{
.appVersion = "1286";
DisplayStrings = (
"/partialdiff",
"/partialdiff ð",
"ð",
"á",
"À",
F,
"the new line\012the",
"/seveninferior",
"/sevensuperior"
);
copyright = "Copyright © 2020 by Corey Hu. All rights reserved.";
customParameters = (
{
name = Axes;
value = (
{
Name = Weight;
Tag = wght;
}
);
}
);
date = "2020-01-23 21:22:09 +0000";
designer = "Corey Hu";
designerURL = github.com/coreywho;
disablesAutomaticAlignment = 1;
familyName = "Urbanist Sans";
featurePrefixes = (
{
automatic = 1;
code = "languagesystem DFLT dflt;\012";
name = Languagesystems;
}
);
features = (
{
automatic = 1;
code = "feature numr;\012feature dnom;\012feature frac;\012";
name = aalt;
},
{
automatic = 1;
code = "sub zero by zero.numr;\012sub one by one.numr;\012sub two by two.numr;\012sub three by three.numr;\012sub four by four.numr;\012sub five by five.numr;\012sub six by six.numr;\012sub seven by seven.numr;\012sub eight by eight.numr;\012sub nine by nine.numr;\012";
name = numr;
},
{
automatic = 1;
code = "sub zero by zero.dnom;\012sub one by one.dnom;\012sub two by two.dnom;\012sub three by three.dnom;\012sub four by four.dnom;\012sub five by five.dnom;\012sub six by six.dnom;\012sub seven by seven.dnom;\012sub eight by eight.dnom;\012sub nine by nine.dnom;\012";
name = dnom;
},
{
automatic = 1;

glyphs = (
{
glyphname = A;
lastChange = "2020-01-23 08:31:58 +0000";
layers = (
{
layerId = "10BC12B3-5274-42E3-B5BC-F74F362F0DF4";
paths = (
{
closed = 1;
nodes = (
"40 0 LINE",
"199 0 LINE",
"239 110 LINE",
"518 110 LINE",
"558 0 LINE",
"717 0 LINE",
"463 700 LINE",
"294 700 LINE"
);
},
{
closed = 1;
nodes = (
"378 492 LINE",
"463 260 LINE",
"294 260 LINE"
);
}
);
width = 758;
},
{
layerId = "9AF1F7D9-E035-453E-B2A8-46DE370997D0";
paths = (
{
closed = 1;
nodes = (
"40 0 LINE",
"72 0 LINE",
"134 170 LINE",
"502 170 LINE",
"564 0 LINE",
"596 0 LINE",
"341 700 LINE",
"295 700 LINE"
);
},
{
closed = 1;
nodes = (
"318 675 LINE",
"491 200 LINE",
"145 200 LINE"
);
}
);
width = 636;
}
);
leftKerningGroup = A;
rightKerningGroup = A;
unicode = 0041;
},
{
glyphname = AE;
lastChange = "2020-01-23 08:25:25 +0000";
layers = (
{
layerId = "10BC12B3-5274-42E3-B5BC-F74F362F0DF4";
paths = (
{
closed = 1;
nodes = (
"199 0 LINE",
"239 110 LINE",
"429 110 LINE",
"429 0 LINE",
"805 0 LINE",
"805 150 LINE",
"579 150 LINE",
"579 275 LINE",
"757 275 LINE",
"757 425 LINE",
"579 425 LINE",
"579 550 LINE",
"805 550 LINE",
"805 700 LINE",
"294 700 LINE",
"40 0 LINE"
);
},
{
closed = 1;
nodes = (
"399 550 LINE",
"429 550 LINE",
"429 260 LINE",
"294 260 LINE"
);
}
);
width = 845;
},
{
layerId = "9AF1F7D9-E035-453E-B2A8-46DE370997D0";
paths = (
{
closed = 1;
nodes = (
"72 0 LINE",
"134 170 LINE",
"391 170 LINE",
"391 0 LINE",
"737 0 LINE",
"737 30 LINE",
"421 30 LINE",
"421 335 LINE",
"689 335 LINE",
"689 365 LINE",
"421 365 LINE",
"421 670 LINE",
"737 670 LINE",
"737 700 LINE",
"295 700 LINE",
"40 0 LINE"
);
},
{
closed = 1;
nodes = (
"317 670 LINE",
"391 670 LINE",
"391 200 LINE",
"145 200 LINE"
);
}
);
width = 777;
}
);
leftKerningGroup = A;
rightKerningGroup = E;
unicode = 00C6;
},
{
glyphname = B;
lastChange = "2020-01-23 09:48:44 +0000";
layers = (
{
layerId = "10BC12B3-5274-42E3-B5BC-F74F362F0DF4";
paths = (
{
closed = 1;
nodes = (
"352 0 LINE SMOOTH",
"468 0 OFFCURVE",
"563 85 OFFCURVE",
"563 201 CURVE SMOOTH",
"563 263 OFFCURVE",
"554 355 OFFCURVE",
"465 367 CURVE",
"517 391 OFFCURVE",
"530 453 OFFCURVE",
"530 497 CURVE SMOOTH",
"530 614 OFFCURVE",
"440 700 OFFCURVE",
"325 700 CURVE SMOOTH",
"60 700 LINE",
"60 0 LINE"
);
},
{
closed = 1;
nodes = (
"210 297 LINE",
"336 297 LINE SMOOTH",
"388 297 OFFCURVE",
"430 258 OFFCURVE",
"430 212 CURVE SMOOTH",
"430 166 OFFCURVE",
"388 127 OFFCURVE",
"336 127 CURVE SMOOTH",
"210 127 LINE"
);
},
{
closed = 1;
nodes = (
"210 572 LINE",
"307 572 LINE SMOOTH",
"347 572 OFFCURVE",
"380 538 OFFCURVE",
"380 497 CURVE SMOOTH",
"380 456 OFFCURVE",
"347 422 OFFCURVE",
"307 422 CURVE SMOOTH",
"210 422 LINE"
);
}
);
width = 593;
},
{
layerId = "9AF1F7D9-E035-453E-B2A8-46DE370997D0";
paths = (
{
closed = 1;
nodes = (
"315 0 LINE SMOOTH",
"414 0 OFFCURVE",
"495 81 OFFCURVE",
"495 181 CURVE SMOOTH",
"495 263 OFFCURVE",
"441 332 OFFCURVE",
"366 354 CURVE",
"419 385 OFFCURVE",
"456 446 OFFCURVE",
"456 515 CURVE SMOOTH",
"456 616 OFFCURVE",
"378 699 OFFCURVE",
"282 699 CURVE SMOOTH",
"60 699 LINE",
"60 0 LINE"
);
},
{
closed = 1;
nodes = (
"90 331 LINE",
"315 331 LINE SMOOTH",
"398 331 OFFCURVE",
"465 264 OFFCURVE",
"465 181 CURVE SMOOTH",
"465 98 OFFCURVE",
"398 30 OFFCURVE",
"315 30 CURVE SMOOTH",
"90 30 LINE"
);
},
{
closed = 1;
nodes = (
"90 669 LINE",
"282 669 LINE SMOOTH",
"361 669 OFFCURVE",
"426 600 OFFCURVE",
"426 515 CURVE SMOOTH",
"426 430 OFFCURVE",
"361 361 OFFCURVE",
"282 361 CURVE SMOOTH",
"90 361 LINE"
);
}
);
width = 525;
}
);
leftKerningGroup = H;
rightKerningGroup = B;
unicode = 0042;
},
{
glyphname = C;
lastChange = "2020-01-23 08:18:54 +0000";
layers = (
{
layerId = "10BC12B3-5274-42E3-B5BC-F74F362F0DF4";
paths = (
{
closed = 1;
nodes = (
"487 -13 OFFCURVE",
"586 44 OFFCURVE",
"649 131 CURVE",
"515 204 LINE",
"480 163 OFFCURVE",
"430 137 OFFCURVE",
"374 137 CURVE",
"267 137 OFFCURVE",
"180 233 OFFCURVE",
"180 350 CURVE",
"180 468 OFFCURVE",
"267 563 OFFCURVE",
"374 563 CURVE",
"430 563 OFFCURVE",
"480 537 OFFCURVE",
"515 497 CURVE",
"649 569 LINE",
"586 656 OFFCURVE",
"487 713 OFFCURVE",
"374 713 CURVE",
"184 713 OFFCURVE",
"30 551 OFFCURVE",
"30 350 CURVE",
"30 150 OFFCURVE",
"184 -13 OFFCURVE",
"374 -13 CURVE"
);
}
);
width = 679;
},
{
layerId = "9AF1F7D9-E035-453E-B2A8-46DE370997D0";
paths = (
{
closed = 1;
nodes = (
"487 -13 OFFCURVE",
"586 43 OFFCURVE",
"649 131 CURVE",
"623 145 LINE",
"568 69 OFFCURVE",
"476 17 OFFCURVE",
"374 17 CURVE SMOOTH",
"201 17 OFFCURVE",
"60 166 OFFCURVE",
"60 350 CURVE SMOOTH",
"60 529 OFFCURVE",
"198 683 OFFCURVE",
"374 683 CURVE SMOOTH",
"471 683 OFFCURVE",
"566 633 OFFCURVE",
"623 554 CURVE",
"649 568 LINE",
"586 656 OFFCURVE",
"487 713 OFFCURVE",
"374 713 CURVE SMOOTH",
"184 713 OFFCURVE",
"30 550 OFFCURVE",
"30 350 CURVE SMOOTH",
"30 149 OFFCURVE",
"184 -13 OFFCURVE",
"374 -13 CURVE SMOOTH"
);
}
);
width = 679;
}
);
leftKerningGroup = O;
rightKerningGroup = C;
unicode = 0043;
},
{
glyphname = D;
lastChange = "2020-01-23 07:47:58 +0000";
layers = (
{
layerId = "10BC12B3-5274-42E3-B5BC-F74F362F0DF4";
paths = (
{
closed = 1;
nodes = (
"272 0 LINE SMOOTH",
"465 0 OFFCURVE",
"622 157 OFFCURVE",
"622 350 CURVE SMOOTH",
"622 543 OFFCURVE",
"465 700 OFFCURVE",
"272 700 CURVE SMOOTH",
"40 700 LINE",
"40 0 LINE"
);
},
{
closed = 1;
nodes = (
"190 550 LINE",
"272 550 LINE SMOOTH",
"381 550 OFFCURVE",
"472 460 OFFCURVE",
"472 350 CURVE SMOOTH",
"472 239 OFFCURVE",
"380 150 OFFCURVE",
"272 150 CURVE SMOOTH",
"190 150 LINE"
);
}
);
width = 632;
},
{
layerId = "9AF1F7D9-E035-453E-B2A8-46DE370997D0";
paths = (
{
closed = 1;
nodes = (
"271 0 LINE SMOOTH",
"465 0 OFFCURVE",
"621 157 OFFCURVE",
"621 350 CURVE SMOOTH",
"621 543 OFFCURVE",
"465 700 OFFCURVE",
"271 700 CURVE SMOOTH",
"40 700 LINE",
"40 0 LINE"
);
},
{
closed = 1;
nodes = (
"70 670 LINE",
"271 670 LINE SMOOTH",
"448 670 OFFCURVE",
"591 527 OFFCURVE",
"591 350 CURVE SMOOTH",
"591 173 OFFCURVE",
"449 30 OFFCURVE",
"271 30 CURVE SMOOTH",
"70 30 LINE"
);
}
);
width = 631;
}
);
leftKerningGroup = H;
rightKerningGroup = O;
unicode = 0044;
},
{
glyphname = Eth;
lastChange = "2020-01-23 07:47:50 +0000";
layers = (
{
layerId = "10BC12B3-5274-42E3-B5BC-F74F362F0DF4";
paths = (
{
closed = 1;
nodes = (
"341 0 LINE SMOOTH",
"534 0 OFFCURVE",
"691 157 OFFCURVE",
"691 350 CURVE SMOOTH",
"691 543 OFFCURVE",
"534 700 OFFCURVE",
"341 700 CURVE SMOOTH",
"110 700 LINE",
"110 425 LINE",
"40 425 LINE",
"40 275 LINE",
"110 275 LINE",
"110 0 LINE"
);
},
{
closed = 1;
nodes = (
"260 275 LINE",
"379 275 LINE",
"379 425 LINE",
"260 425 LINE",
"260 550 LINE",
"341 550 LINE SMOOTH",
"451 550 OFFCURVE",
"541 460 OFFCURVE",
"541 350 CURVE SMOOTH",
"541 240 OFFCURVE",
"451 150 OFFCURVE",
"341 150 CURVE SMOOTH",
"260 150 LINE"
);
}
);
width = 701;
},
{
layerId = "9AF1F7D9-E035-453E-B2A8-46DE370997D0";
paths = (
{
closed = 1;
nodes = (
"346 0 LINE SMOOTH",
"539 0 OFFCURVE",
"696 157 OFFCURVE",
"696 350 CURVE SMOOTH",
"696 543 OFFCURVE",
"539 700 OFFCURVE",
"346 700 CURVE SMOOTH",
"114 700 LINE",
"114 365 LINE",
"50 365 LINE",
"50 335 LINE",
"114 335 LINE",
"114 0 LINE"
);
},
{
closed = 1;
nodes = (
"144 335 LINE",
"343 335 LINE",
"343 365 LINE",
"144 365 LINE",
"144 670 LINE",
"346 670 LINE SMOOTH",
"518 670 OFFCURVE",
"666 530 OFFCURVE",
"666 350 CURVE SMOOTH",
"666 177 OFFCURVE",
"526 30 OFFCURVE",
"346 30 CURVE SMOOTH",
"144 30 LINE"
);
}
);
width = 706;
}
);
leftKerningGroup = H;
rightKerningGroup = O;
unicode = 00D0;
},
{
glyphname = E;
lastChange = "2020-01-23 08:21:59 +0000";
layers = (
{
layerId = "10BC12B3-5274-42E3-B5BC-F74F362F0DF4";
paths = (
{
closed = 1;
nodes = (
"516 0 LINE",
"516 150 LINE",
"220 150 LINE",
"220 275 LINE",
"468 275 LINE",
"468 425 LINE",
"220 425 LINE",
"220 550 LINE",
"516 550 LINE",
"516 700 LINE",
"70 700 LINE",
"70 0 LINE"
);
}
);
width = 566;
},
{
layerId = "9AF1F7D9-E035-453E-B2A8-46DE370997D0";
paths = (
{
closed = 1;
nodes = (
"466 0 LINE",
"466 30 LINE",
"80 30 LINE",
"80 335 LINE",
"418 335 LINE",
"418 365 LINE",
"80 365 LINE",
"80 670 LINE",
"466 670 LINE",
"466 700 LINE",
"50 700 LINE",
"50 0 LINE"
);
}
);
width = 516;
}
);
leftKerningGroup = H;
rightKerningGroup = E;
unicode = 0045;
},
{
glyphname = F;
lastChange = "2020-01-23 08:21:42 +0000";
layers = (
{
layerId = "10BC12B3-5274-42E3-B5BC-F74F362F0DF4";
paths = (
{
closed = 1;
nodes = (
"190 0 LINE",
"190 275 LINE",
"408 275 LINE",
"408 425 LINE",
"190 425 LINE",
"190 550 LINE",
"456 550 LINE",
"456 700 LINE",
"40 700 LINE",
"40 0 LINE"
);
}
);
width = 486;
},
{
layerId = "9AF1F7D9-E035-453E-B2A8-46DE370997D0";
paths = (
{
closed = 1;
nodes = (
"66 0 LINE",
"66 335 LINE",
"394 335 LINE",
"394 365 LINE",
"66 365 LINE",
"66 670 LINE",
"442 670 LINE",
"442 700 LINE",
"36 700 LINE",
"36 0 LINE"
);
}
);
width = 476;
}
);
leftKerningGroup = H;
rightKerningGroup = F;
unicode = 0046;
},
{
glyphname = G;
lastChange = "2020-01-23 01:24:53 +0000";
layers = (
{
layerId = "10BC12B3-5274-42E3-B5BC-F74F362F0DF4";
paths = (
{
closed = 1;
nodes = (
"572 -13 OFFCURVE",
"728 161 OFFCURVE",
"718 370 CURVE",
"447 370 LINE",
"447 240 LINE",
"541 240 LINE",
"500 169 OFFCURVE",
"437 137 OFFCURVE",
"376 137 CURVE SMOOTH",
"268 137 OFFCURVE",
"180 230 OFFCURVE",
"180 348 CURVE SMOOTH",
"180 476 OFFCURVE",
"275 563 OFFCURVE",
"375 563 CURVE SMOOTH",
"424 563 OFFCURVE",
"474 542 OFFCURVE",
"515 496 CURVE",
"649 568 LINE",
"573 669 OFFCURVE",
"474 712 OFFCURVE",
"377 712 CURVE SMOOTH",
"199 712 OFFCURVE",
"30 565 OFFCURVE",
"30 351 CURVE SMOOTH",
"30 152 OFFCURVE",
"178 -13 OFFCURVE",
"374 -13 CURVE SMOOTH"
);
}
);
width = 748;
},
{
layerId = "9AF1F7D9-E035-453E-B2A8-46DE370997D0";
paths = (
{
closed = 1;
nodes = (
"555 -13 OFFCURVE",
"706 136 OFFCURVE",
"718 321 CURVE",
"448 321 LINE",
"448 291 LINE",
"684 291 LINE",
"661 141 OFFCURVE",
"532 17 OFFCURVE",
"375 17 CURVE SMOOTH",
"201 17 OFFCURVE",
"60 168 OFFCURVE",
"60 350 CURVE SMOOTH",
"60 529 OFFCURVE",
"199 683 OFFCURVE",
"375 683 CURVE SMOOTH",
"470 683 OFFCURVE",
"563 636 OFFCURVE",
"623 554 CURVE",
"650 569 LINE",
"587 656 OFFCURVE",
"487 713 OFFCURVE",
"375 713 CURVE SMOOTH",
"184 713 OFFCURVE",
"30 550 OFFCURVE",
"30 350 CURVE SMOOTH",
"30 150 OFFCURVE",
"184 -13 OFFCURVE",
"375 -13 CURVE SMOOTH"
);
}
);
width = 748;
}
);
leftKerningGroup = O;
rightKerningGroup = G;
unicode = 0047;
},
{
glyphname = H;
lastChange = "2020-01-23 08:18:51 +0000";
layers = (
{
layerId = "10BC12B3-5274-42E3-B5BC-F74F362F0DF4";
paths = (
{
closed = 1;
nodes = (
"438 433 LINE",
"190 433 LINE",
"190 700 LINE",
"40 700 LINE",
"40 0 LINE",
"190 0 LINE",
"190 283 LINE",
"438 283 LINE",
"438 0 LINE",
"588 0 LINE",
"588 700 LINE",
"438 700 LINE"
);
}
);
width = 628;
},
{
layerId = "9AF1F7D9-E035-453E-B2A8-46DE370997D0";
paths = (
{
closed = 1;
nodes = (
"497 373 LINE",
"70 373 LINE",
"70 700 LINE",
"40 700 LINE",
"40 0 LINE",
"70 0 LINE",
"70 343 LINE",
"497 343 LINE",
"497 0 LINE",
"527 0 LINE",
"527 700 LINE",
"497 700 LINE"
);
}
);
width = 567;
}
);
leftKerningGroup = H;
rightKerningGroup = H;
unicode = 0048;
},
{
glyphname = I;
lastChange = "2020-01-23 08:13:53 +0000";
layers = (
{
layerId = "10BC12B3-5274-42E3-B5BC-F74F362F0DF4";
paths = (
{
closed = 1;
nodes = (
"190 0 LINE",
"190 700 LINE",
"40 700 LINE",
"40 0 LINE"
);
}
);
width = 230;
},
{
layerId = "9AF1F7D9-E035-453E-B2A8-46DE370997D0";
paths = (
{
closed = 1;
nodes = (
"90 0 LINE",
"90 700 LINE",
"60 700 LINE",
"60 0 LINE"
);
}
);
width = 150;
}
);
leftKerningGroup = H;
rightKerningGroup = H;
unicode = 0049;
},
{
glyphname = J;
lastChange = "2020-01-23 08:38:39 +0000";
layers = (
{
layerId = "10BC12B3-5274-42E3-B5BC-F74F362F0DF4";
paths = (
{
closed = 1;
nodes = (
"301 -13 OFFCURVE",
"407 93 OFFCURVE",
"407 223 CURVE SMOOTH",
"407 700 LINE",
"257 700 LINE",
"257 223 LINE SMOOTH",
"257 176 OFFCURVE",
"218 137 OFFCURVE",
"171 137 CURVE SMOOTH",
"145 137 OFFCURVE",
"127 148 OFFCURVE",
"116 157 CURVE",
"20 42 LINE",
"62 6 OFFCURVE",
"116 -13 OFFCURVE",
"171 -13 CURVE SMOOTH"
);
}
);
width = 447;
},
{
layerId = "9AF1F7D9-E035-453E-B2A8-46DE370997D0";
paths = (
{
closed = 1;
nodes = (
"230 -13 OFFCURVE",
"309 76 OFFCURVE",
"309 173 CURVE SMOOTH",
"309 700 LINE",
"279 700 LINE",
"279 173 LINE SMOOTH",
"279 92 OFFCURVE",
"213 17 OFFCURVE",
"132 17 CURVE SMOOTH",
"98 17 OFFCURVE",
"65 29 OFFCURVE",
"39 51 CURVE",
"20 28 LINE",
"51 1 OFFCURVE",
"91 -13 OFFCURVE",
"132 -13 CURVE SMOOTH"
);
}
);
width = 349;
}
);
leftKerningGroup = J;
rightKerningGroup = J;
unicode = 004A;
},
{
glyphname = K;
lastChange = "2020-01-23 08:38:44 +0000";
layers = (
{
layerId = "10BC12B3-5274-42E3-B5BC-F74F362F0DF4";
paths = (
{
closed = 1;
nodes = (
"308 370 LINE",
"585 700 LINE",
"389 700 LINE",
"190 462 LINE",
"190 700 LINE",
"40 700 LINE",
"40 0 LINE",
"190 0 LINE",
"190 229 LINE",
"210 253 LINE",
"389 0 LINE",
"585 0 LINE"
);
}
);
width = 595;
},
{
layerId = "9AF1F7D9-E035-453E-B2A8-46DE370997D0";
paths = (
{
closed = 1;
nodes = (
"169 369 LINE",
"447 700 LINE",
"408 700 LINE",
"70 297 LINE",
"70 700 LINE",
"40 700 LINE",
"40 0 LINE",
"70 0 LINE",
"70 250 LINE",
"149 345 LINE",
"404 0 LINE",
"442 0 LINE"
);
}
);
width = 457;
}
);
leftKerningGroup = H;
rightKerningGroup = K;
unicode = 004B;
},
{
glyphname = L;
lastChange = "2020-01-23 08:38:35 +0000";
layers = (
{
layerId = "10BC12B3-5274-42E3-B5BC-F74F362F0DF4";
paths = (
{
closed = 1;
nodes = (
"40 0 LINE",
"40 700 LINE",
"190 700 LINE",
"190 150 LINE",
"500 150 LINE",
"500 0 LINE"
);
}
);
width = 510;
},
{
layerId = "9AF1F7D9-E035-453E-B2A8-46DE370997D0";
paths = (
{
closed = 1;
nodes = (
"40 0 LINE",
"40 700 LINE",
"70 700 LINE",
"70 30 LINE",
"450 30 LINE",
"450 0 LINE"
);
}
);
width = 460;
}
);
leftKerningGroup = H;
rightKerningGroup = L;
unicode = 004C;
},
{
glyphname = M;
lastChange = "2020-01-23 08:39:01 +0000";
layers = (
{
layerId = "10BC12B3-5274-42E3-B5BC-F74F362F0DF4";
paths = (
{
closed = 1;
nodes = (
"193 0 LINE",
"266 378 LINE",
"409 0 LINE",
"513 0 LINE",
"656 378 LINE",
"729 0 LINE",
"882 0 LINE",
"746 700 LINE",
"618 700 LINE",
"461 287 LINE",
"304 700 LINE",
"176 700 LINE",
"40 0 LINE"
);
}
);
width = 922;
},
{
layerId = "9AF1F7D9-E035-453E-B2A8-46DE370997D0";
paths = (
{
closed = 1;
nodes = (
"70 0 LINE",
"189 614 LINE",
"395 69 LINE",
"410 69 LINE",
"616 614 LINE",
"735 0 LINE",
"766 0 LINE",
"630 700 LINE",
"617 700 LINE",
"403 134 LINE",
"188 700 LINE",
"175 700 LINE",
"40 0 LINE"
);
}
);
width = 806;
}
);
leftKerningGroup = M;
rightKerningGroup = M;
unicode = 004D;
},
{
glyphname = N;
lastChange = "2020-01-23 08:38:50 +0000";
layers = (
{
layerId = "10BC12B3-5274-42E3-B5BC-F74F362F0DF4";
paths = (
{
closed = 1;
nodes = (
"210 0 LINE",
"210 429 LINE",
"466 0 LINE",
"628 0 LINE",
"628 700 LINE",
"478 700 LINE",
"478 271 LINE",
"222 700 LINE",
"60 700 LINE",
"60 0 LINE"
);
}
);
width = 688;
},
{
layerId = "9AF1F7D9-E035-453E-B2A8-46DE370997D0";
paths = (
{
closed = 1;
nodes = (
"90 0 LINE",
"90 646 LINE",
"517 0 LINE",
"549 0 LINE",
"549 700 LINE",
"519 700 LINE",
"519 54 LINE",
"93 700 LINE",
"60 700 LINE",
"60 0 LINE"
);
}
);
width = 609;
}
);
leftKerningGroup = H;
rightKerningGroup = H;
unicode = 004E;
},
{
glyphname = O;
lastChange = "2020-01-23 08:29:41 +0000";
layers = (
{
layerId = "10BC12B3-5274-42E3-B5BC-F74F362F0DF4";
paths = (
{
closed = 1;
nodes = (
"575 -13 OFFCURVE",
"730 150 OFFCURVE",
"730 350 CURVE SMOOTH",
"730 550 OFFCURVE",
"575 713 OFFCURVE",
"385 713 CURVE SMOOTH",
"195 713 OFFCURVE",
"40 550 OFFCURVE",
"40 350 CURVE SMOOTH",
"40 150 OFFCURVE",
"195 -13 OFFCURVE",
"385 -13 CURVE SMOOTH"
);
},
{
closed = 1;
nodes = (
"278 137 OFFCURVE",
"190 233 OFFCURVE",
"190 350 CURVE SMOOTH",
"190 467 OFFCURVE",
"278 563 OFFCURVE",
"385 563 CURVE SMOOTH",
"492 563 OFFCURVE",
"580 467 OFFCURVE",
"580 350 CURVE SMOOTH",
"580 233 OFFCURVE",
"492 137 OFFCURVE",
"385 137 CURVE SMOOTH"
);
}
);
width = 770;
},
{
layerId = "9AF1F7D9-E035-453E-B2A8-46DE370997D0";
paths = (
{
closed = 1;
nodes = (
"575 -13 OFFCURVE",
"730 150 OFFCURVE",
"730 350 CURVE SMOOTH",
"730 550 OFFCURVE",
"575 713 OFFCURVE",
"385 713 CURVE SMOOTH",
"195 713 OFFCURVE",
"40 550 OFFCURVE",
"40 350 CURVE SMOOTH",
"40 150 OFFCURVE",
"195 -13 OFFCURVE",
"385 -13 CURVE SMOOTH"
);
},
{
closed = 1;
nodes = (
"211 17 OFFCURVE",
"70 167 OFFCURVE",
"70 350 CURVE SMOOTH",
"70 530 OFFCURVE",
"209 683 OFFCURVE",
"385 683 CURVE SMOOTH",
"559 683 OFFCURVE",
"700 532 OFFCURVE",
"700 350 CURVE SMOOTH",
"700 170 OFFCURVE",
"561 17 OFFCURVE",
"385 17 CURVE SMOOTH"
);
}
);
width = 770;
}
);
leftKerningGroup = O;
rightKerningGroup = O;
unicode = 004F;
},
{
glyphname = Oslash;
lastChange = "2020-01-23 01:24:53 +0000";
layers = (
{
layerId = "10BC12B3-5274-42E3-B5BC-F74F362F0DF4";
paths = (
{
closed = 1;
nodes = (
"274 7 LINE",
"309 -6 OFFCURVE",
"346 -13 OFFCURVE",
"385 -13 CURVE SMOOTH",
"575 -13 OFFCURVE",
"730 150 OFFCURVE",
"730 350 CURVE SMOOTH",
"730 453 OFFCURVE",
"689 546 OFFCURVE",
"623 613 CURVE",
"666 686 LINE",
"536 761 LINE",
"497 694 LINE",
"462 706 OFFCURVE",
"425 713 OFFCURVE",
"385 713 CURVE SMOOTH",
"195 713 OFFCURVE",
"40 550 OFFCURVE",
"40 350 CURVE SMOOTH",
"40 247 OFFCURVE",
"82 154 OFFCURVE",
"147 88 CURVE",
"105 14 LINE",
"235 -61 LINE"
);
},
{
closed = 1;
nodes = (
"204 261 OFFCURVE",
"190 304 OFFCURVE",
"190 350 CURVE SMOOTH",
"190 467 OFFCURVE",
"278 563 OFFCURVE",
"385 563 CURVE SMOOTH",
"397 563 OFFCURVE",
"409 562 OFFCURVE",
"420 560 CURVE",
"227 226 LINE"
);
},
{
closed = 1;
nodes = (
"374 137 OFFCURVE",
"362 138 OFFCURVE",
"351 141 CURVE",
"544 474 LINE",
"567 439 OFFCURVE",
"580 396 OFFCURVE",
"580 350 CURVE SMOOTH",
"580 233 OFFCURVE",
"492 137 OFFCURVE",
"385 137 CURVE SMOOTH"
);
}
);
width = 770;
},
{
layerId = "9AF1F7D9-E035-453E-B2A8-46DE370997D0";
paths = (
{
closed = 1;
nodes = (
"219 32 LINE",
"269 4 OFFCURVE",
"325 -13 OFFCURVE",
"385 -13 CURVE SMOOTH",
"575 -13 OFFCURVE",
"730 150 OFFCURVE",
"730 350 CURVE SMOOTH",
"730 476 OFFCURVE",
"669 587 OFFCURVE",
"577 652 CURVE",
"614 716 LINE",
"588 731 LINE",
"552 668 LINE",
"502 697 OFFCURVE",
"446 713 OFFCURVE",
"385 713 CURVE SMOOTH",
"195 713 OFFCURVE",
"40 550 OFFCURVE",
"40 350 CURVE SMOOTH",
"40 225 OFFCURVE",
"102 114 OFFCURVE",
"194 48 CURVE",
"157 -16 LINE",
"183 -31 LINE"
);
},
{
closed = 1;
nodes = (
"125 135 OFFCURVE",
"70 236 OFFCURVE",
"70 350 CURVE SMOOTH",
"70 530 OFFCURVE",
"209 683 OFFCURVE",
"385 683 CURVE SMOOTH",
"440 683 OFFCURVE",
"492 668 OFFCURVE",
"537 642 CURVE",
"209 75 LINE"
);
},
{
closed = 1;
nodes = (
"331 17 OFFCURVE",
"279 32 OFFCURVE",
"234 58 CURVE",
"562 626 LINE",
"645 565 OFFCURVE",
"700 464 OFFCURVE",
"700 350 CURVE SMOOTH",
"700 170 OFFCURVE",
"561 17 OFFCURVE",
"385 17 CURVE SMOOTH"
);
}
);
width = 770;
}
);
leftKerningGroup = O;
rightKerningGroup = O;
unicode = 00D8;
},
{
glyphname = OE;
lastChange = "2020-01-23 08:25:41 +0000";
layers = (
{
layerId = "10BC12B3-5274-42E3-B5BC-F74F362F0DF4";
paths = (
{
closed = 1;
nodes = (
"448 -13 OFFCURVE",
"516 11 OFFCURVE",
"572 52 CURVE",
"572 0 LINE",
"988 0 LINE",
"988 150 LINE",
"722 150 LINE",
"722 275 LINE",
"940 275 LINE",
"940 425 LINE",
"722 425 LINE",
"722 550 LINE",
"988 550 LINE",
"988 700 LINE",
"572 700 LINE",
"572 648 LINE",
"516 689 OFFCURVE",
"448 713 OFFCURVE",
"375 713 CURVE SMOOTH",
"185 713 OFFCURVE",
"30 550 OFFCURVE",
"30 350 CURVE SMOOTH",
"30 150 OFFCURVE",
"185 -13 OFFCURVE",
"375 -13 CURVE SMOOTH"
);
},
{
closed = 1;
nodes = (
"268 137 OFFCURVE",
"180 233 OFFCURVE",
"180 350 CURVE SMOOTH",
"180 467 OFFCURVE",
"268 563 OFFCURVE",
"375 563 CURVE SMOOTH",
"482 563 OFFCURVE",
"570 467 OFFCURVE",
"570 350 CURVE SMOOTH",
"570 233 OFFCURVE",
"482 137 OFFCURVE",
"375 137 CURVE SMOOTH"
);
}
);
width = 1028;
},
{
layerId = "9AF1F7D9-E035-453E-B2A8-46DE370997D0";
paths = (
{
closed = 1;
nodes = (
"515 -13 OFFCURVE",
"636 76 OFFCURVE",
"690 202 CURVE",
"690 0 LINE",
"1043 0 LINE",
"1043 30 LINE",
"720 30 LINE",
"720 335 LINE",
"995 335 LINE",
"995 365 LINE",
"720 365 LINE",
"720 670 LINE",
"1043 670 LINE",
"1043 700 LINE",
"690 700 LINE",
"690 498 LINE",
"636 624 OFFCURVE",
"515 713 OFFCURVE",
"375 713 CURVE SMOOTH",
"185 713 OFFCURVE",
"30 550 OFFCURVE",
"30 350 CURVE SMOOTH",
"30 150 OFFCURVE",
"185 -13 OFFCURVE",
"375 -13 CURVE SMOOTH"
);
},
{
closed = 1;
nodes = (
"201 17 OFFCURVE",
"60 167 OFFCURVE",
"60 350 CURVE SMOOTH",
"60 530 OFFCURVE",
"199 683 OFFCURVE",
"375 683 CURVE SMOOTH",
"549 683 OFFCURVE",
"690 532 OFFCURVE",
"690 350 CURVE SMOOTH",
"690 170 OFFCURVE",
"551 17 OFFCURVE",
"375 17 CURVE SMOOTH"
);
}
);
width = 1083;
}
);
leftKerningGroup = O;
rightKerningGroup = E;
unicode = 0152;
},
{
glyphname = P;
lastChange = "2020-01-23 08:18:15 +0000";
layers = (
{
layerId = "10BC12B3-5274-42E3-B5BC-F74F362F0DF4";
paths = (
{
closed = 1;
nodes = (
"210 0 LINE",
"210 272 LINE",
"324 272 LINE SMOOTH",
"435 272 OFFCURVE",
"530 368 OFFCURVE",
"530 486 CURVE SMOOTH",
"530 602 OFFCURVE",
"439 700 OFFCURVE",
"324 700 CURVE SMOOTH",
"60 700 LINE",
"60 0 LINE"
);
},
{
closed = 1;
nodes = (
"210 572 LINE",
"307 572 LINE SMOOTH",
"347 572 OFFCURVE",
"380 538 OFFCURVE",
"380 497 CURVE SMOOTH",
"380 456 OFFCURVE",
"347 422 OFFCURVE",
"307 422 CURVE SMOOTH",
"210 422 LINE"
);
}
);
width = 545;
},
{
layerId = "9AF1F7D9-E035-453E-B2A8-46DE370997D0";
paths = (
{
closed = 1;
nodes = (
"90 0 LINE",
"90 300 LINE",
"264 300 LINE SMOOTH",
"371 300 OFFCURVE",
"460 385 OFFCURVE",
"460 500 CURVE SMOOTH",
"460 614 OFFCURVE",
"374 700 OFFCURVE",
"264 700 CURVE SMOOTH",
"60 700 LINE",
"60 0 LINE"
);
},
{
closed = 1;
nodes = (
"90 670 LINE",
"264 670 LINE SMOOTH",
"355 670 OFFCURVE",
"430 598 OFFCURVE",
"430 500 CURVE SMOOTH",
"430 402 OFFCURVE",
"355 330 OFFCURVE",
"264 330 CURVE SMOOTH",
"90 330 LINE"
);
}
);
width = 475;
}
);
leftKerningGroup = H;
rightKerningGroup = P;
unicode = 0050;
},
{
glyphname = Thorn;
lastChange = "2020-01-23 01:24:53 +0000";
layers = (
{
layerId = "10BC12B3-5274-42E3-B5BC-F74F362F0DF4";
paths = (
{
closed = 1;
nodes = (
"210 0 LINE",
"210 136 LINE",
"324 136 LINE SMOOTH",
"435 136 OFFCURVE",
"530 232 OFFCURVE",
"530 350 CURVE SMOOTH",
"530 466 OFFCURVE",
"439 564 OFFCURVE",
"324 564 CURVE SMOOTH",
"210 564 LINE",
"210 700 LINE",
"60 700 LINE",
"60 0 LINE"
);
},
{
closed = 1;
nodes = (
"210 436 LINE",
"307 436 LINE SMOOTH",
"347 436 OFFCURVE",
"380 402 OFFCURVE",
"380 361 CURVE SMOOTH",
"380 320 OFFCURVE",
"347 286 OFFCURVE",
"307 286 CURVE SMOOTH",
"210 286 LINE"
);
}
);
width = 550;
},
{
layerId = "9AF1F7D9-E035-453E-B2A8-46DE370997D0";
paths = (
{
closed = 1;
nodes = (
"90 0 LINE",
"90 150 LINE",
"264 150 LINE SMOOTH",
"371 150 OFFCURVE",
"460 235 OFFCURVE",
"460 350 CURVE SMOOTH",
"460 464 OFFCURVE",
"374 550 OFFCURVE",
"264 550 CURVE SMOOTH",
"90 550 LINE",
"90 700 LINE",
"60 700 LINE",
"60 0 LINE"
);
},
{
closed = 1;
nodes = (
"90 520 LINE",
"264 520 LINE SMOOTH",
"355 520 OFFCURVE",
"430 448 OFFCURVE",
"430 350 CURVE SMOOTH",
"430 252 OFFCURVE",
"355 180 OFFCURVE",
"264 180 CURVE SMOOTH",
"90 180 LINE"
);
}
);
width = 480;
}
);
leftKerningGroup = H;
rightKerningGroup = Thorn;
unicode = 00DE;
},
{
glyphname = Q;
lastChange = "2020-01-23 01:24:53 +0000";
layers = (
{
layerId = "10BC12B3-5274-42E3-B5BC-F74F362F0DF4";
paths = (
{
closed = 1;
nodes = (
"752 80 LINE",
"675 157 LINE",
"709 214 OFFCURVE",
"730 281 OFFCURVE",
"730 354 CURVE SMOOTH",
"730 554 OFFCURVE",
"575 717 OFFCURVE",
"385 717 CURVE SMOOTH",
"195 717 OFFCURVE",
"40 554 OFFCURVE",
"40 354 CURVE SMOOTH",
"40 153 OFFCURVE",
"195 -9 OFFCURVE",
"385 -9 CURVE SMOOTH",
"454 -9 OFFCURVE",
"518 12 OFFCURVE",
"571 48 CURVE",
"646 -26 LINE"
);
},
{
closed = 1;
nodes = (
"278 141 OFFCURVE",
"190 236 OFFCURVE",
"190 354 CURVE SMOOTH",
"190 471 OFFCURVE",
"278 567 OFFCURVE",
"385 567 CURVE SMOOTH",
"492 567 OFFCURVE",
"580 471 OFFCURVE",
"580 354 CURVE SMOOTH",
"580 324 OFFCURVE",
"574 295 OFFCURVE",
"563 269 CURVE",
"526 306 LINE",
"420 200 LINE",
"462 158 LINE",
"438 147 OFFCURVE",
"412 141 OFFCURVE",
"385 141 CURVE SMOOTH"
);
}
);
width = 792;
},
{
layerId = "9AF1F7D9-E035-453E-B2A8-46DE370997D0";
paths = (
{
closed = 1;
nodes = (
"717 16 LINE",
"628 104 LINE",
"685 169 OFFCURVE",
"719 255 OFFCURVE",
"719 350 CURVE SMOOTH",
"719 550 OFFCURVE",
"565 713 OFFCURVE",
"375 713 CURVE SMOOTH",
"184 713 OFFCURVE",
"30 550 OFFCURVE",
"30 350 CURVE SMOOTH",
"30 150 OFFCURVE",
"184 -13 OFFCURVE",
"375 -13 CURVE SMOOTH",
"464 -13 OFFCURVE",
"546 23 OFFCURVE",
"608 83 CURVE",
"696 -5 LINE"
);
},
{
closed = 1;
nodes = (
"202 17 OFFCURVE",
"60 167 OFFCURVE",
"60 350 CURVE SMOOTH",
"60 529 OFFCURVE",
"199 683 OFFCURVE",
"375 683 CURVE SMOOTH",
"547 683 OFFCURVE",
"689 533 OFFCURVE",
"689 350 CURVE SMOOTH",
"689 268 OFFCURVE",
"660 188 OFFCURVE",
"607 126 CURVE",
"473 260 LINE",
"452 238 LINE",
"586 104 LINE",
"531 49 OFFCURVE",
"452 17 OFFCURVE",
"375 17 CURVE SMOOTH"
);
}
);
width = 769;
}
);
leftKerningGroup = O;
rightKerningGroup = O;
unicode = 0051;
},
{
glyphname = R;
lastChange = "2020-01-23 09:49:55 +0000";
layers = (
{
layerId = "10BC12B3-5274-42E3-B5BC-F74F362F0DF4";
paths = (
{
closed = 1;
nodes = (
"210 0 LINE",
"210 272 LINE",
"262 272 LINE",
"420 0 LINE",
"593 0 LINE",
"427 286 LINE",
"502 322 OFFCURVE",
"550 396 OFFCURVE",
"550 486 CURVE SMOOTH",
"550 603 OFFCURVE",
"460 700 OFFCURVE",
"345 700 CURVE SMOOTH",
"60 700 LINE",
"60 0 LINE"
);
},
{
closed = 1;
nodes = (
"210 572 LINE",
"327 572 LINE SMOOTH",
"367 572 OFFCURVE",
"400 538 OFFCURVE",
"400 497 CURVE SMOOTH",
"400 456 OFFCURVE",
"367 422 OFFCURVE",
"327 422 CURVE SMOOTH",
"210 422 LINE"
);
}
);
width = 623;
},
{
layerId = "9AF1F7D9-E035-453E-B2A8-46DE370997D0";
paths = (
{
closed = 1;
nodes = (
"90 0 LINE",
"90 300 LINE",
"256 300 LINE",
"430 0 LINE",
"465 0 LINE",
"291 301 LINE",
"390 309 OFFCURVE",
"470 391 OFFCURVE",
"470 500 CURVE SMOOTH",
"470 614 OFFCURVE",
"384 700 OFFCURVE",
"274 700 CURVE SMOOTH",
"60 700 LINE",
"60 0 LINE"
);
},
{
closed = 1;
nodes = (
"90 670 LINE",
"274 670 LINE SMOOTH",
"365 670 OFFCURVE",
"440 598 OFFCURVE",
"440 500 CURVE SMOOTH",
"440 402 OFFCURVE",
"365 330 OFFCURVE",
"274 330 CURVE SMOOTH",
"90 330 LINE"
);
}
);
width = 500;
}
);
leftKerningGroup = H;
rightKerningGroup = R;
unicode = 0052;
},
{
glyphname = S;
lastChange = "2020-01-23 08:21:48 +0000";
layers = (
{
layerId = "10BC12B3-5274-42E3-B5BC-F74F362F0DF4";
paths = (
{
closed = 1;
nodes = (
"459 -13 OFFCURVE",
"582 75 OFFCURVE",
"582 206 CURVE SMOOTH",
"582 335 OFFCURVE",
"460 404 OFFCURVE",
"316 425 CURVE SMOOTH",
"253 434 OFFCURVE",
"200 440 OFFCURVE",
"200 494 CURVE SMOOTH",
"200 533 OFFCURVE",
"258 563 OFFCURVE",
"316 562 CURVE SMOOTH",
"381 562 OFFCURVE",
"431 533 OFFCURVE",
"441 504 CURVE",
"582 555 LINE",
"547 654 OFFCURVE",
"434 713 OFFCURVE",
"316 713 CURVE SMOOTH",
"175 713 OFFCURVE",
"50 625 OFFCURVE",
"50 494 CURVE SMOOTH",
"50 357 OFFCURVE",
"164 297 OFFCURVE",
"316 275 CURVE SMOOTH",
"372 267 OFFCURVE",
"432 248 OFFCURVE",
"432 206 CURVE SMOOTH",
"432 165 OFFCURVE",
"376 137 OFFCURVE",
"316 137 CURVE SMOOTH",
"251 137 OFFCURVE",
"201 167 OFFCURVE",
"191 196 CURVE",
"50 144 LINE",
"86 46 OFFCURVE",
"198 -13 OFFCURVE",
"316 -13 CURVE SMOOTH"
);
}
);
width = 632;
},
{
layerId = "9AF1F7D9-E035-453E-B2A8-46DE370997D0";
paths = (
{
closed = 1;
nodes = (
"429 -13 OFFCURVE",
"544 60 OFFCURVE",
"544 175 CURVE SMOOTH",
"544 288 OFFCURVE",
"428 341 OFFCURVE",
"299 365 CURVE SMOOTH",
"176 388 OFFCURVE",
"85 413 OFFCURVE",
"85 521 CURVE SMOOTH",
"85 616 OFFCURVE",
"185 679 OFFCURVE",
"299 679 CURVE SMOOTH",
"390 679 OFFCURVE",
"492 638 OFFCURVE",
"520 559 CURVE",
"549 569 LINE",
"514 660 OFFCURVE",
"403 709 OFFCURVE",
"299 709 CURVE SMOOTH",
"170 709 OFFCURVE",
"55 636 OFFCURVE",
"55 521 CURVE SMOOTH",
"55 395 OFFCURVE",
"160 359 OFFCURVE",
"299 333 CURVE SMOOTH",
"407 313 OFFCURVE",
"514 273 OFFCURVE",
"514 175 CURVE SMOOTH",
"514 79 OFFCURVE",
"412 17 OFFCURVE",
"299 17 CURVE SMOOTH",
"208 17 OFFCURVE",
"106 58 OFFCURVE",
"78 137 CURVE",
"50 126 LINE",
"80 39 OFFCURVE",
"190 -13 OFFCURVE",
"299 -13 CURVE SMOOTH"
);
}
);
width = 599;
}
);
leftKerningGroup = S;
rightKerningGroup = S;
unicode = 0053;
},
{
glyphname = Germandbls;
lastChange = "2020-01-23 09:55:44 +0000";
layers = (
{
layerId = "10BC12B3-5274-42E3-B5BC-F74F362F0DF4";
paths = (
{
closed = 1;
nodes = (
"210 0 LINE",
"210 475 LINE SMOOTH",
"210 529 OFFCURVE",
"254 572 OFFCURVE",
"297 572 CURVE SMOOTH",
"340 572 OFFCURVE",
"379 574 OFFCURVE",
"379 537 CURVE SMOOTH",
"379 520 OFFCURVE",
"295 429 OFFCURVE",
"295 352 CURVE SMOOTH",
"295 297 LINE",
"336 297 LINE SMOOTH",
"388 297 OFFCURVE",
"460 278 OFFCURVE",
"460 212 CURVE SMOOTH",
"460 146 OFFCURVE",
"388 127 OFFCURVE",
"336 127 CURVE SMOOTH",
"295 127 LINE",
"325 0 LINE",
"352 0 LINE SMOOTH",
"468 0 OFFCURVE",
"593 75 OFFCURVE",
"593 211 CURVE SMOOTH",
"593 293 OFFCURVE",
"505 385 OFFCURVE",
"416 367 CURVE",
"487 453 OFFCURVE",
"529 486 OFFCURVE",
"529 534 CURVE SMOOTH",
"529 624 OFFCURVE",
"429 700 OFFCURVE",
"325 700 CURVE SMOOTH",
"179 700 OFFCURVE",
"60 581 OFFCURVE",
"60 435 CURVE SMOOTH",
"60 0 LINE"
);
}
);
width = 623;
},
{
layerId = "9AF1F7D9-E035-453E-B2A8-46DE370997D0";
paths = (
{
closed = 1;
nodes = (
"90 0 LINE",
"90 497 LINE SMOOTH",
"90 592 OFFCURVE",
"166 669 OFFCURVE",
"261 669 CURVE SMOOTH",
"336 669 OFFCURVE",
"402 641 OFFCURVE",
"403 576 CURVE SMOOTH",
"404 516 OFFCURVE",
"255 377 OFFCURVE",
"259 347 CURVE SMOOTH",
"261 331 LINE",
"294 331 LINE SMOOTH",
"377 331 OFFCURVE",
"475 284 OFFCURVE",
"475 182 CURVE SMOOTH",
"475 78 OFFCURVE",
"378 30 OFFCURVE",
"295 30 CURVE SMOOTH",
"248 30 LINE",
"258 0 LINE",
"295 0 LINE SMOOTH",
"394 0 OFFCURVE",
"505 61 OFFCURVE",
"505 181 CURVE SMOOTH",
"505 294 OFFCURVE",
"401 370 OFFCURVE",
"301 360 CURVE",
"400 496 OFFCURVE",
"438 535 OFFCURVE",
"438 576 CURVE SMOOTH",
"438 660 OFFCURVE",
"358 699 OFFCURVE",
"263 699 CURVE SMOOTH",
"151 699 OFFCURVE",
"60 608 OFFCURVE",
"60 496 CURVE SMOOTH",
"60 0 LINE"
);
}
);
width = 535;
}
);
leftKerningGroup = Germandbls;
rightKerningGroup = Germandbls;
unicode = 1E9E;
},
{
glyphname = T;
lastChange = "2020-01-23 08:19:00 +0000";
layers = (
{
layerId = "10BC12B3-5274-42E3-B5BC-F74F362F0DF4";
paths = (
{
closed = 1;
nodes = (
"30 700 LINE",
"30 550 LINE",
"230 550 LINE",
"230 0 LINE",
"380 0 LINE",
"380 550 LINE",
"580 550 LINE",
"580 700 LINE"
);
}
);
width = 610;
},
{
layerId = "9AF1F7D9-E035-453E-B2A8-46DE370997D0";
paths = (
{
closed = 1;
nodes = (
"30 700 LINE",
"30 670 LINE",
"289 670 LINE",
"289 0 LINE",
"319 0 LINE",
"319 670 LINE",
"579 670 LINE",
"579 700 LINE"
);
}
);
width = 609;
}
);
leftKerningGroup = T;
rightKerningGroup = T;
unicode = 0054;
},
{
glyphname = U;
lastChange = "2020-01-23 08:22:29 +0000";
layers = (
{
layerId = "10BC12B3-5274-42E3-B5BC-F74F362F0DF4";
paths = (
{
closed = 1;
nodes = (
"493 -13 OFFCURVE",
"609 123 OFFCURVE",
"609 292 CURVE SMOOTH",
"609 700 LINE",
"459 700 LINE",
"459 292 LINE SMOOTH",
"459 206 OFFCURVE",
"411 137 OFFCURVE",
"325 137 CURVE SMOOTH",
"240 137 OFFCURVE",
"190 207 OFFCURVE",
"190 292 CURVE SMOOTH",
"190 700 LINE",
"40 700 LINE",
"40 292 LINE SMOOTH",
"40 123 OFFCURVE",
"157 -13 OFFCURVE",
"325 -13 CURVE SMOOTH"
);
}
);
width = 649;
},
{
layerId = "9AF1F7D9-E035-453E-B2A8-46DE370997D0";
paths = (
{
closed = 1;
nodes = (
"473 -13 OFFCURVE",
"570 123 OFFCURVE",
"570 292 CURVE SMOOTH",
"570 700 LINE",
"540 700 LINE",
"540 292 LINE SMOOTH",
"540 144 OFFCURVE",
"459 17 OFFCURVE",
"305 17 CURVE SMOOTH",
"153 17 OFFCURVE",
"70 142 OFFCURVE",
"70 292 CURVE SMOOTH",
"70 700 LINE",
"40 700 LINE",
"40 292 LINE SMOOTH",
"40 123 OFFCURVE",
"137 -13 OFFCURVE",
"305 -13 CURVE SMOOTH"
);
}
);
width = 610;
}
);
leftKerningGroup = U;
rightKerningGroup = U;
unicode = 0055;
},
{
glyphname = V;
lastChange = "2020-01-23 08:38:53 +0000";
layers = (
{
layerId = "10BC12B3-5274-42E3-B5BC-F74F362F0DF4";
paths = (
{
closed = 1;
nodes = (
"458 0 LINE",
"712 700 LINE",
"553 700 LINE",
"361 172 LINE",
"169 700 LINE",
"10 700 LINE",
"264 0 LINE"
);
}
);
width = 722;
},
{
layerId = "9AF1F7D9-E035-453E-B2A8-46DE370997D0";
paths = (
{
closed = 1;
nodes = (
"314 0 LINE",
"569 700 LINE",
"537 700 LINE",
"299 46 LINE",
"62 700 LINE",
"30 700 LINE",
"284 0 LINE"
);
}
);
width = 599;
}
);
leftKerningGroup = V;
rightKerningGroup = V;
unicode = 0056;
},
{
glyphname = W;
lastChange = "2020-01-23 08:26:01 +0000";
layers = (
{
layerId = "10BC12B3-5274-42E3-B5BC-F74F362F0DF4";
paths = (
{
closed = 1;
nodes = (
"370 0 LINE",
"462 363 LINE",
"555 0 LINE",
"724 0 LINE",
"902 700 LINE",
"747 700 LINE",
"639 276 LINE",
"531 700 LINE",
"393 700 LINE",
"285 276 LINE",
"177 700 LINE",
"22 700 LINE",
"201 0 LINE"
);
}
);
width = 924;
},
{
layerId = "9AF1F7D9-E035-453E-B2A8-46DE370997D0";
paths = (
{
closed = 1;
nodes = (
"240 0 LINE",
"400 625 LINE",
"560 0 LINE",
"600 0 LINE",
"778 700 LINE",
"747 700 LINE",
"580 43 LINE",
"412 700 LINE",
"388 700 LINE",
"221 43 LINE",
"53 700 LINE",
"22 700 LINE",
"201 0 LINE"
);
}
);
width = 800;
}
);
leftKerningGroup = W;
rightKerningGroup = W;
unicode = 0057;
},
{
glyphname = X;
lastChange = "2020-01-23 08:38:48 +0000";
layers = (
{
layerId = "10BC12B3-5274-42E3-B5BC-F74F362F0DF4";
paths = (
{
closed = 1;
nodes = (
"216 0 LINE",
"379 224 LINE",
"542 0 LINE",
"728 0 LINE",
"472 352 LINE",
"726 701 LINE",
"541 701 LINE",
"379 479 LINE",
"217 701 LINE",
"32 701 LINE",
"286 352 LINE",
"30 0 LINE"
);
}
);
width = 758;
},
{
layerId = "9AF1F7D9-E035-453E-B2A8-46DE370997D0";
paths = (
{
closed = 1;
nodes = (
"68 0 LINE",
"305 326 LINE",
"543 0 LINE",
"580 0 LINE",
"324 352 LINE",
"578 701 LINE",
"541 701 LINE",
"305 377 LINE",
"69 701 LINE",
"32 701 LINE",
"287 352 LINE",
"30 0 LINE"
);
}
);
width = 610;
}
);
leftKerningGroup = X;
rightKerningGroup = X;
unicode = 0058;
},
{
glyphname = Y;
lastChange = "2020-01-23 08:31:13 +0000";
layers = (
{
layerId = "10BC12B3-5274-42E3-B5BC-F74F362F0DF4";
paths = (
{
closed = 1;
nodes = (
"348 478 LINE",
"207 700 LINE",
"30 700 LINE",
"273 315 LINE",
"273 0 LINE",
"423 0 LINE",
"423 315 LINE",
"666 700 LINE",
"489 700 LINE"
);
}
);
width = 696;
},
{
layerId = "9AF1F7D9-E035-453E-B2A8-46DE370997D0";
paths = (
{
closed = 1;
nodes = (
"277 351 LINE",
"65 700 LINE",
"30 700 LINE",
"262 318 LINE",
"262 0 LINE",
"292 0 LINE",
"292 318 LINE",
"524 700 LINE",
"489 700 LINE"
);
}
);
width = 554;
}
);
leftKerningGroup = Y;
rightKerningGroup = Y;
unicode = 0059;
},
{
glyphname = Z;
lastChange = "2020-01-23 07:45:49 +0000";
layers = (
{
layerId = "10BC12B3-5274-42E3-B5BC-F74F362F0DF4";
paths = (
{
closed = 1;
nodes = (
"586 0 LINE",
"586 150 LINE",
"223 150 LINE",
"586 550 LINE",
"586 700 LINE",
"20 700 LINE",
"20 550 LINE",
"383 550 LINE",
"20 150 LINE",
"20 0 LINE"
);
}
);
width = 606;
},
{
layerId = "9AF1F7D9-E035-453E-B2A8-46DE370997D0";
paths = (
{
closed = 1;
nodes = (
"586 0 LINE",
"586 30 LINE",
"59 30 LINE",
"586 670 LINE",
"586 700 LINE",
"20 700 LINE",
"20 670 LINE",
"547 670 LINE",
"20 30 LINE",
"20 0 LINE"
);
}
);
width = 606;
}
);
leftKerningGroup = Z;
rightKerningGroup = Z;
unicode = 005A;
},
{
glyphname = a;
lastChange = "2020-01-23 10:17:38 +0000";
layers = (
{
layerId = "10BC12B3-5274-42E3-B5BC-F74F362F0DF4";
paths = (
{
closed = 1;
nodes = (
"425 454 LINE",
"394 489 OFFCURVE",
"352 514 OFFCURVE",
"298 514 CURVE SMOOTH",
"153 514 OFFCURVE",
"35 396 OFFCURVE",
"35 250 CURVE SMOOTH",
"35 105 OFFCURVE",
"153 -13 OFFCURVE",
"298 -13 CURVE SMOOTH",
"352 -13 OFFCURVE",
"394 12 OFFCURVE",
"425 47 CURVE",
"425 0 LINE",
"575 0 LINE",
"575 500 LINE",
"425 500 LINE"
);
},
{
closed = 1;
nodes = (
"239 131 OFFCURVE",
"189 185 OFFCURVE",
"189 250 CURVE SMOOTH",
"189 316 OFFCURVE",
"239 369 OFFCURVE",
"300 369 CURVE SMOOTH",
"362 369 OFFCURVE",
"412 316 OFFCURVE",
"412 250 CURVE SMOOTH",
"412 185 OFFCURVE",
"362 131 OFFCURVE",
"300 131 CURVE SMOOTH"
);
}
);
width = 635;
},
{
layerId = "9AF1F7D9-E035-453E-B2A8-46DE370997D0";
paths = (
{
closed = 1;
nodes = (
"502 384 LINE",
"466 462 OFFCURVE",
"395 514 OFFCURVE",
"298 514 CURVE",
"153 514 OFFCURVE",
"35 396 OFFCURVE",
"35 250 CURVE",
"35 105 OFFCURVE",
"153 -13 OFFCURVE",
"298 -13 CURVE",
"395 -13 OFFCURVE",
"466 39 OFFCURVE",
"502 117 CURVE",
"502 0 LINE",
"532 0 LINE",
"532 500 LINE",
"502 500 LINE"
);
},
{
closed = 1;
nodes = (
"173 17 OFFCURVE",
"65 119 OFFCURVE",
"65 250 CURVE",
"65 379 OFFCURVE",
"169 484 OFFCURVE",
"298 484 CURVE",
"425 484 OFFCURVE",
"500 381 OFFCURVE",
"500 250 CURVE",
"500 122 OFFCURVE",
"427 17 OFFCURVE",
"298 17 CURVE"
);
}
);
width = 592;
}
);
leftKerningGroup = "1";
rightKerningGroup = n;
unicode = 0061;
},
{
glyphname = ae;
lastChange = "2020-01-23 10:12:03 +0000";
layers = (
{
layerId = "10BC12B3-5274-42E3-B5BC-F74F362F0DF4";
paths = (
{
closed = 1;
nodes = (
"315 -13 LINE SMOOTH",
"382 -13 OFFCURVE",
"422 7 OFFCURVE",
"465 51 CURVE",
"509 11 OFFCURVE",
"566 -13 OFFCURVE",
"629 -13 CURVE SMOOTH",
"729 -13 OFFCURVE",
"815 49 OFFCURVE",
"855 138 CURVE",
"702 174 LINE",
"684 151 OFFCURVE",
"658 137 OFFCURVE",
"629 137 CURVE SMOOTH",
"582 138 OFFCURVE",
"555 165 OFFCURVE",
"541 201 CURVE",
"874 201 LINE",
"904 361 OFFCURVE",
"788 514 OFFCURVE",
"629 514 CURVE SMOOTH",
"567 514 OFFCURVE",
"511 491 OFFCURVE",
"467 452 CURVE",
"423 495 OFFCURVE",
"357 514 OFFCURVE",
"276 514 CURVE SMOOTH",
"178 514 OFFCURVE",
"107 502 OFFCURVE",
"59 419 CURVE",
"188 343 LINE",
"197 358 OFFCURVE",
"208 378 OFFCURVE",
"276 378 CURVE SMOOTH",
"332 378 OFFCURVE",
"373 354 OFFCURVE",
"381 311 CURVE",
"179 311 LINE SMOOTH",
"99 311 OFFCURVE",
"35 246 OFFCURVE",
"35 167 CURVE SMOOTH",
"35 54 OFFCURVE",
"110 -13 OFFCURVE",
"252 -13 CURVE SMOOTH"
);
},
{
closed = 1;
nodes = (
"219 87 OFFCURVE",
"185 117 OFFCURVE",
"185 165 CURVE SMOOTH",
"185 206 OFFCURVE",
"221 211 OFFCURVE",
"265 211 CURVE SMOOTH",
"376 211 LINE",
"376 187 LINE SMOOTH",
"376 133 OFFCURVE",
"331 87 OFFCURVE",
"275 87 CURVE SMOOTH"
);
},
{
closed = 1;
nodes = (
"549 354 OFFCURVE",
"586 384 OFFCURVE",
"629 384 CURVE SMOOTH",
"672 384 OFFCURVE",
"708 354 OFFCURVE",
"722 311 CURVE",
"535 311 LINE"
);
}
);
width = 909;
},
{
layerId = "9AF1F7D9-E035-453E-B2A8-46DE370997D0";
paths = (
{
closed = 1;
nodes = (
"286 0 LINE SMOOTH",
"370 0 OFFCURVE",
"440 61 OFFCURVE",
"452 142 CURVE",
"494 58 OFFCURVE",
"577 0 OFFCURVE",
"674 0 CURVE SMOOTH",
"774 0 OFFCURVE",
"860 62 OFFCURVE",
"900 151 CURVE",
"870 158 LINE",
"830 78 OFFCURVE",
"759 30 OFFCURVE",
"674 30 CURVE SMOOTH",
"559 30 OFFCURVE",
"464 123 OFFCURVE",
"454 248 CURVE",
"923 248 LINE",
"920 415 OFFCURVE",
"817 527 OFFCURVE",
"674 527 CURVE SMOOTH",
"571 527 OFFCURVE",
"482 461 OFFCURVE",
"444 367 CURVE",
"429 457 OFFCURVE",
"389 527 OFFCURVE",
"265 527 CURVE SMOOTH",
"199 527 OFFCURVE",
"117 507 OFFCURVE",
"80 444 CURVE",
"106 429 LINE",
"138 482 OFFCURVE",
"210 497 OFFCURVE",
"265 497 CURVE SMOOTH",
"413 497 OFFCURVE",
"415 398 OFFCURVE",
"423 278 CURVE",
"213 278 LINE SMOOTH",
"123 278 OFFCURVE",
"40 258 OFFCURVE",
"35 159 CURVE",
"37 46 OFFCURVE",
"140 0 OFFCURVE",
"230 0 CURVE SMOOTH"
);
},
{
closed = 1;
nodes = (
"156 30 OFFCURVE",
"67 56 OFFCURVE",
"65 159 CURVE",
"68 229 OFFCURVE",
"125 248 OFFCURVE",
"213 248 CURVE SMOOTH",
"424 248 LINE",
"424 192 LINE",
"424 165 OFFCURVE",
"429 30 OFFCURVE",
"259 30 CURVE"
);
},
{
closed = 1;
nodes = (
"462 399 OFFCURVE",
"555 497 OFFCURVE",
"674 497 CURVE SMOOTH",
"792 497 OFFCURVE",
"889 395 OFFCURVE",
"893 278 CURVE",
"454 278 LINE"
);
}
);
width = 953;
}
);
leftKerningGroup = "1";
rightKerningGroup = e;
unicode = 00E6;
},
{
glyphname = b;
lastChange = "2020-01-23 10:14:00 +0000";
layers = (
{
layerId = "10BC12B3-5274-42E3-B5BC-F74F362F0DF4";
paths = (
{
closed = 1;
nodes = (
"283 514 OFFCURVE",
"241 489 OFFCURVE",
"210 454 CURVE",
"210 750 LINE",
"60 750 LINE",
"60 0 LINE",
"210 0 LINE",
"210 47 LINE",
"241 12 OFFCURVE",
"283 -13 OFFCURVE",
"336 -13 CURVE",
"482 -13 OFFCURVE",
"600 105 OFFCURVE",
"600 251 CURVE",
"600 396 OFFCURVE",
"482 514 OFFCURVE",
"336 514 CURVE"
);
},
{
closed = 1;
nodes = (
"273 132 OFFCURVE",
"223 185 OFFCURVE",
"223 251 CURVE",
"223 316 OFFCURVE",
"273 370 OFFCURVE",
"334 370 CURVE",
"396 370 OFFCURVE",
"446 316 OFFCURVE",
"446 251 CURVE",
"446 185 OFFCURVE",
"396 132 OFFCURVE",
"334 132 CURVE"
);
}
);
width = 630;
},
{
layerId = "9AF1F7D9-E035-453E-B2A8-46DE370997D0";
paths = (
{
closed = 1;
nodes = (
"197 514 OFFCURVE",
"126 462 OFFCURVE",
"90 384 CURVE",
"90 750 LINE",
"60 750 LINE",
"60 0 LINE",
"90 0 LINE",
"90 117 LINE",
"126 39 OFFCURVE",
"197 -13 OFFCURVE",
"294 -13 CURVE",
"439 -13 OFFCURVE",
"557 105 OFFCURVE",
"557 250 CURVE",
"557 396 OFFCURVE",
"439 514 OFFCURVE",
"294 514 CURVE"
);
},
{
closed = 1;
nodes = (
"167 17 OFFCURVE",
"92 120 OFFCURVE",
"92 250 CURVE",
"92 378 OFFCURVE",
"165 484 OFFCURVE",
"294 484 CURVE",
"419 484 OFFCURVE",
"527 382 OFFCURVE",
"527 250 CURVE",
"527 122 OFFCURVE",
"423 17 OFFCURVE",
"294 17 CURVE"
);
}
);
width = 597;
}
);
leftKerningGroup = h;
rightKerningGroup = o;
unicode = 0062;
},
{
glyphname = c;
lastChange = "2020-01-23 10:00:09 +0000";
layers = (
{
layerId = "10BC12B3-5274-42E3-B5BC-F74F362F0DF4";
paths = (
{
closed = 1;
nodes = (
"327 147 OFFCURVE",
"304 137 OFFCURVE",
"280 137 CURVE",
"223 137 OFFCURVE",
"180 191 OFFCURVE",
"180 250 CURVE",
"180 310 OFFCURVE",
"223 364 OFFCURVE",
"280 364 CURVE",
"304 364 OFFCURVE",
"327 354 OFFCURVE",
"345 336 CURVE",
"480 409 LINE",
"434 473 OFFCURVE",
"362 514 OFFCURVE",
"280 514 CURVE",
"142 514 OFFCURVE",
"30 396 OFFCURVE",
"30 250 CURVE",
"30 105 OFFCURVE",
"142 -13 OFFCURVE",
"280 -13 CURVE",
"362 -13 OFFCURVE",
"434 28 OFFCURVE",
"480 91 CURVE",
"345 164 LINE"
);
}
);
width = 510;
},
{
layerId = "9AF1F7D9-E035-453E-B2A8-46DE370997D0";
paths = (
{
closed = 1;
nodes = (
"414 54 OFFCURVE",
"350 17 OFFCURVE",
"280 17 CURVE",
"159 17 OFFCURVE",
"60 121 OFFCURVE",
"60 250 CURVE",
"60 377 OFFCURVE",
"156 484 OFFCURVE",
"280 484 CURVE",
"344 484 OFFCURVE",
"410 452 OFFCURVE",
"453 395 CURVE",
"479 409 LINE",
"434 473 OFFCURVE",
"361 514 OFFCURVE",
"280 514 CURVE",
"142 514 OFFCURVE",
"30 396 OFFCURVE",
"30 250 CURVE",
"30 105 OFFCURVE",
"142 -13 OFFCURVE",
"280 -13 CURVE",
"361 -13 OFFCURVE",
"434 28 OFFCURVE",
"479 92 CURVE",
"453 106 LINE"
);
}
);
width = 509;
}
);
leftKerningGroup = "1";
rightKerningGroup = c;
unicode = 0063;
},
{
glyphname = d;
lastChange = "2020-01-23 10:15:20 +0000";
layers = (
{
layerId = "10BC12B3-5274-42E3-B5BC-F74F362F0DF4";
paths = (
{
closed = 1;
nodes = (
"430 454 LINE",
"399 489 OFFCURVE",
"357 513 OFFCURVE",
"303 513 CURVE",
"158 513 OFFCURVE",
"40 395 OFFCURVE",
"40 250 CURVE",
"40 105 OFFCURVE",
"158 -13 OFFCURVE",
"303 -13 CURVE",
"357 -13 OFFCURVE",
"399 11 OFFCURVE",
"430 46 CURVE",
"430 0 LINE",
"580 0 LINE",
"580 750 LINE",
"430 750 LINE"
);
},
{
closed = 1;
nodes = (
"244 131 OFFCURVE",
"194 184 OFFCURVE",
"194 250 CURVE",
"194 316 OFFCURVE",
"244 369 OFFCURVE",
"305 369 CURVE",
"367 369 OFFCURVE",
"417 316 OFFCURVE",
"417 250 CURVE",
"417 184 OFFCURVE",
"367 131 OFFCURVE",
"305 131 CURVE"
);
}
);
width = 640;
},
{
layerId = "9AF1F7D9-E035-453E-B2A8-46DE370997D0";
paths = (
{
closed = 1;
nodes = (
"507 384 LINE",
"471 462 OFFCURVE",
"400 514 OFFCURVE",
"303 514 CURVE",
"158 514 OFFCURVE",
"40 396 OFFCURVE",
"40 250 CURVE",
"40 105 OFFCURVE",
"158 -13 OFFCURVE",
"303 -13 CURVE",
"400 -13 OFFCURVE",
"471 39 OFFCURVE",
"507 117 CURVE",
"507 0 LINE",
"537 0 LINE",
"537 750 LINE",
"507 750 LINE"
);
},
{
closed = 1;
nodes = (
"178 17 OFFCURVE",
"70 119 OFFCURVE",
"70 250 CURVE",
"70 379 OFFCURVE",
"175 484 OFFCURVE",
"303 484 CURVE",
"430 484 OFFCURVE",
"505 381 OFFCURVE",
"505 250 CURVE",
"505 122 OFFCURVE",
"432 17 OFFCURVE",
"303 17 CURVE"
);
}
);
width = 597;
}
);
leftKerningGroup = "2";
unicode = 0064;
},
{
glyphname = eth;
lastChange = "2020-01-23 18:41:16 +0000";
layers = (
{
components = (
{
name = partialdiff;
}
);
layerId = "10BC12B3-5274-42E3-B5BC-F74F362F0DF4";
paths = (
{
closed = 1;
nodes = (
"438 725 LINE",
"368 796 LINE",
"149 580 LINE",
"220 509 LINE"
);
}
);
width = 563;
},
{
components = (
{
name = partialdiff;
}
);
layerId = "9AF1F7D9-E035-453E-B2A8-46DE370997D0";
paths = (
{
closed = 1;
nodes = (
"433 750 LINE",
"412 771 LINE",
"192 557 LINE",
"214 535 LINE"
);
}
);
width = 600;
}
);
leftKerningGroup = "2";
rightKerningGroup = eth;
unicode = 00F0;
},
{
glyphname = e;
lastChange = "2020-01-23 10:14:36 +0000";
layers = (
{
layerId = "10BC12B3-5274-42E3-B5BC-F74F362F0DF4";
paths = (
{
closed = 1;
nodes = (
"555 361 OFFCURVE",
"439 514 OFFCURVE",
"280 514 CURVE",
"142 514 OFFCURVE",
"30 396 OFFCURVE",
"30 251 CURVE",
"30 105 OFFCURVE",
"142 -13 OFFCURVE",
"280 -13 CURVE",
"380 -13 OFFCURVE",
"466 49 OFFCURVE",
"506 138 CURVE",
"353 174 LINE",
"335 151 OFFCURVE",
"309 137 OFFCURVE",
"280 137 CURVE",
"233 138 OFFCURVE",
"206 165 OFFCURVE",
"192 201 CURVE",
"525 201 LINE"
);
},
{
closed = 1;
nodes = (
"323 384 OFFCURVE",
"359 354 OFFCURVE",
"373 311 CURVE",
"186 311 LINE",
"200 354 OFFCURVE",
"237 384 OFFCURVE",
"280 384 CURVE"
);
}
);
width = 560;
},
{
layerId = "9AF1F7D9-E035-453E-B2A8-46DE370997D0";
paths = (
{
closed = 1;
nodes = (
"526 402 OFFCURVE",
"423 514 OFFCURVE",
"280 514 CURVE",
"142 514 OFFCURVE",
"30 396 OFFCURVE",
"30 250 CURVE",
"30 105 OFFCURVE",
"142 -13 OFFCURVE",
"280 -13 CURVE",
"380 -13 OFFCURVE",
"466 49 OFFCURVE",
"506 138 CURVE",
"476 145 LINE",
"436 65 OFFCURVE",
"365 17 OFFCURVE",
"280 17 CURVE",
"165 17 OFFCURVE",
"70 110 OFFCURVE",
"60 235 CURVE",
"529 235 LINE"
);
},
{
closed = 1;
nodes = (
"398 484 OFFCURVE",
"495 382 OFFCURVE",
"499 265 CURVE",
"60 265 LINE",
"68 386 OFFCURVE",
"161 484 OFFCURVE",
"280 484 CURVE"
);
}
);
width = 559;
}
);
leftKerningGroup = "1";
rightKerningGroup = e;
unicode = 0065;
},
{
glyphname = f;
lastChange = "2020-01-23 10:16:01 +0000";
layers = (
{
layerId = "10BC12B3-5274-42E3-B5BC-F74F362F0DF4";
paths = (
{
closed = 1;
nodes = (
"222 603 OFFCURVE",
"232 612 OFFCURVE",
"244 612 CURVE",
"252 612 OFFCURVE",
"257 608 OFFCURVE",
"259 606 CURVE",
"366 711 LINE",
"334 744 OFFCURVE",
"290 762 OFFCURVE",
"244 762 CURVE",
"149 762 OFFCURVE",
"72 685 OFFCURVE",
"72 591 CURVE",
"72 500 LINE",
"40 500 LINE",
"40 350 LINE",
"72 350 LINE",
"72 0 LINE",
"222 0 LINE",
"222 350 LINE",
"320 350 LINE",
"320 500 LINE",
"222 500 LINE",
"222 591 LINE"
);
}
);
width = 396;
},
{
layerId = "9AF1F7D9-E035-453E-B2A8-46DE370997D0";
paths = (
{
closed = 1;
nodes = (
"162 695 OFFCURVE",
"199 732 OFFCURVE",
"244 732 CURVE",
"266 732 OFFCURVE",
"287 723 OFFCURVE",
"302 708 CURVE",
"323 729 LINE",
"302 750 OFFCURVE",
"274 762 OFFCURVE",
"244 762 CURVE",
"182 762 OFFCURVE",
"132 712 OFFCURVE",
"132 650 CURVE",
"132 500 LINE",
"70 500 LINE",
"70 470 LINE",
"132 470 LINE",
"132 0 LINE",
"162 0 LINE",
"162 470 LINE",
"278 470 LINE",
"278 500 LINE",
"162 500 LINE",
"162 650 LINE"
);
}
);
width = 373;
}
);
leftKerningGroup = f;
rightKerningGroup = f;
unicode = 0066;
},
{
glyphname = g;
lastChange = "2020-01-23 10:14:08 +0000";
layers = (
{
layerId = "10BC12B3-5274-42E3-B5BC-F74F362F0DF4";
paths = (
{
closed = 1;
nodes = (
"427 456 LINE",
"397 490 OFFCURVE",
"356 513 OFFCURVE",
"303 513 CURVE SMOOTH",
"158 513 OFFCURVE",
"40 395 OFFCURVE",
"40 250 CURVE SMOOTH",
"40 105 OFFCURVE",
"158 -13 OFFCURVE",
"303 -13 CURVE SMOOTH",
"356 -13 OFFCURVE",
"397 10 OFFCURVE",
"427 44 CURVE",
"427 -5 LINE SMOOTH",
"427 -70 OFFCURVE",
"362 -99 OFFCURVE",
"293 -99 CURVE SMOOTH",
"246 -99 OFFCURVE",
"203 -73 OFFCURVE",
"182 -28 CURVE",
"45 -90 LINE",
"89 -185 OFFCURVE",
"187 -250 OFFCURVE",
"293 -250 CURVE SMOOTH",
"445 -250 OFFCURVE",
"577 -157 OFFCURVE",
"577 -5 CURVE SMOOTH",
"577 500 LINE",
"427 500 LINE"
);
},
{
closed = 1;
nodes = (
"244 131 OFFCURVE",
"194 184 OFFCURVE",
"194 250 CURVE SMOOTH",
"194 316 OFFCURVE",
"244 369 OFFCURVE",
"305 369 CURVE SMOOTH",
"367 369 OFFCURVE",
"417 316 OFFCURVE",
"417 250 CURVE SMOOTH",
"417 184 OFFCURVE",
"367 131 OFFCURVE",
"305 131 CURVE SMOOTH"
);
}
);
width = 637;
},
{
layerId = "9AF1F7D9-E035-453E-B2A8-46DE370997D0";
paths = (
{
closed = 1;
nodes = (
"488 385 LINE",
"451 462 OFFCURVE",
"381 514 OFFCURVE",
"290 514 CURVE",
"152 514 OFFCURVE",
"40 396 OFFCURVE",
"40 250 CURVE",
"40 105 OFFCURVE",
"152 -13 OFFCURVE",
"290 -13 CURVE",
"381 -13 OFFCURVE",
"451 39 OFFCURVE",
"488 116 CURVE",
"488 -25 LINE",
"488 -125 OFFCURVE",
"387 -220 OFFCURVE",
"284 -220 CURVE",
"195 -220 OFFCURVE",
"100 -145 OFFCURVE",
"83 -55 CURVE",
"55 -68 LINE",
"78 -165 OFFCURVE",
"180 -250 OFFCURVE",
"284 -250 CURVE",
"402 -250 OFFCURVE",
"518 -141 OFFCURVE",
"518 -25 CURVE",
"518 500 LINE",
"488 500 LINE"
);
},
{
closed = 1;
nodes = (
"170 17 OFFCURVE",
"70 120 OFFCURVE",
"70 250 CURVE",
"70 379 OFFCURVE",
"167 484 OFFCURVE",
"290 484 CURVE",
"412 484 OFFCURVE",
"487 377 OFFCURVE",
"487 250 CURVE",
"487 126 OFFCURVE",
"414 17 OFFCURVE",
"290 17 CURVE"
);
}
);
width = 578;
}
);
leftKerningGroup = "2";
rightKerningGroup = g;
unicode = 0067;
},
{
glyphname = h;
lastChange = "2020-01-23 10:11:28 +0000";
layers = (
{
layerId = "10BC12B3-5274-42E3-B5BC-F74F362F0DF4";
paths = (
{
closed = 1;
nodes = (
"547 396 OFFCURVE",
"460 513 OFFCURVE",
"316 513 CURVE",
"266 513 OFFCURVE",
"230 510 OFFCURVE",
"210 469 CURVE",
"210 750 LINE",
"60 750 LINE",
"60 0 LINE",
"211 0 LINE",
"211 250 LINE",
"211 316 OFFCURVE",
"234 369 OFFCURVE",
"300 369 CURVE",
"355 369 OFFCURVE",
"399 316 OFFCURVE",
"399 250 CURVE",
"399 0 LINE",
"549 0 LINE",
"549 252 LINE"
);
}
);
width = 589;
},
{
layerId = "9AF1F7D9-E035-453E-B2A8-46DE370997D0";
paths = (
{
closed = 1;
nodes = (
"477 403 OFFCURVE",
"389 514 OFFCURVE",
"269 514 CURVE",
"195 514 OFFCURVE",
"131 471 OFFCURVE",
"90 398 CURVE",
"90 750 LINE",
"60 750 LINE",
"60 0 LINE",
"90 0 LINE",
"90 275 LINE",
"90 390 OFFCURVE",
"171 484 OFFCURVE",
"269 484 CURVE",
"368 484 OFFCURVE",
"449 390 OFFCURVE",
"449 275 CURVE",
"449 0 LINE",
"479 0 LINE",
"479 277 LINE"
);
}
);
width = 519;
}
);
leftKerningGroup = "1";
rightKerningGroup = n;
unicode = 0068;
},
{
glyphname = i;
lastChange = "2020-01-23 10:13:19 +0000";
layers = (
{
layerId = "10BC12B3-5274-42E3-B5BC-F74F362F0DF4";
paths = (
{
closed = 1;
nodes = (
"61 0 LINE",
"211 0 LINE",
"211 500 LINE",
"61 500 LINE"
);
},
{
closed = 1;
nodes = (
"177 550 OFFCURVE",
"210 583 OFFCURVE",
"210 625 CURVE",
"210 666 OFFCURVE",
"177 700 OFFCURVE",
"135 700 CURVE",
"94 700 OFFCURVE",
"60 666 OFFCURVE",
"60 625 CURVE",
"60 583 OFFCURVE",
"94 550 OFFCURVE",
"135 550 CURVE"
);
}
);
width = 271;
},
{
layerId = "9AF1F7D9-E035-453E-B2A8-46DE370997D0";
paths = (
{
closed = 1;
nodes = (
"63 0 LINE",
"93 0 LINE",
"93 500 LINE",
"63 500 LINE"
);
},
{
closed = 1;
nodes = (
"94 600 OFFCURVE",
"105 612 OFFCURVE",
"105 622 CURVE",
"105 634 OFFCURVE",
"94 645 OFFCURVE",
"82 645 CURVE",
"70 645 OFFCURVE",
"60 634 OFFCURVE",
"60 622 CURVE",
"60 612 OFFCURVE",
"70 600 OFFCURVE",
"82 600 CURVE"
);
}
);
width = 165;
}
);
leftKerningGroup = i;
rightKerningGroup = i;
unicode = 0069;
},
{
glyphname = idotless;
lastChange = "2020-01-23 06:34:23 +0000";
layers = (
{
layerId = "10BC12B3-5274-42E3-B5BC-F74F362F0DF4";
paths = (
{
closed = 1;
nodes = (
"60 0 LINE",
"210 0 LINE",
"210 500 LINE",
"60 500 LINE"
);
}
);
width = 270;
},
{
layerId = "9AF1F7D9-E035-453E-B2A8-46DE370997D0";
paths = (
{
closed = 1;
nodes = (
"60 0 LINE",
"90 0 LINE",
"90 500 LINE",
"60 500 LINE"
);
}
);
width = 150;
}
);
leftKerningGroup = i;
unicode = 0131;
},
{
glyphname = iacute;
lastChange = "2020-01-23 01:24:53 +0000";
layers = (
{
components = (
{
name = acutecomb;
transform = "{1, 0, 0, 1, -145, 0}";
}
);
layerId = "10BC12B3-5274-42E3-B5BC-F74F362F0DF4";
paths = (
{
closed = 1;
nodes = (
"60 0 LINE",
"210 0 LINE",
"210 500 LINE",
"60 500 LINE"
);
}
);
width = 270;
},
{
components = (
{
name = acutecomb;
transform = "{1, 0, 0, 1, -170, 0}";
}
);
layerId = "9AF1F7D9-E035-453E-B2A8-46DE370997D0";
paths = (
{
closed = 1;
nodes = (
"60 0 LINE",
"90 0 LINE",
"90 500 LINE",
"60 500 LINE"
);
}
);
width = 150;
}
);
leftKerningGroup = i;
rightKerningGroup = i;
unicode = 00ED;
},
{
glyphname = icircumflex;
lastChange = "2020-01-23 01:24:53 +0000";
layers = (
{
components = (
{
name = circumflexcomb;
transform = "{1, 0, 0, 1, -190, 0}";
}
);
layerId = "10BC12B3-5274-42E3-B5BC-F74F362F0DF4";
paths = (
{
closed = 1;
nodes = (
"60 0 LINE",
"210 0 LINE",
"210 500 LINE",
"60 500 LINE"
);
}
);
width = 270;
},
{
components = (
{
name = circumflexcomb;
transform = "{1, 0, 0, 1, -185, 0}";
}
);
layerId = "9AF1F7D9-E035-453E-B2A8-46DE370997D0";
paths = (
{
closed = 1;
nodes = (
"60 0 LINE",
"90 0 LINE",
"90 500 LINE",
"60 500 LINE"
);
}
);
width = 150;
}
);
leftKerningGroup = i;
rightKerningGroup = i;
unicode = 00EE;
},
{
glyphname = idieresis;
lastChange = "2020-01-23 01:24:53 +0000";
layers = (
{
components = (
{
name = dieresiscomb;
transform = "{1, 0, 0, 1, -250, 0}";
}
);
layerId = "10BC12B3-5274-42E3-B5BC-F74F362F0DF4";
paths = (
{
closed = 1;
nodes = (
"60 0 LINE",
"210 0 LINE",
"210 500 LINE",
"60 500 LINE"
);
}
);
width = 270;
},
{
components = (
{
name = dieresiscomb;
transform = "{1, 0, 0, 1, -211, 0}";
}
);
layerId = "9AF1F7D9-E035-453E-B2A8-46DE370997D0";
paths = (
{
closed = 1;
nodes = (
"60 0 LINE",
"90 0 LINE",
"90 500 LINE",
"60 500 LINE"
);
}
);
width = 150;
}
);
leftKerningGroup = i;
rightKerningGroup = i;
unicode = 00EF;
},
{
glyphname = igrave;
lastChange = "2020-01-23 01:24:53 +0000";
layers = (
{
components = (
{
name = grave;
transform = "{1, 0, 0, 1, -175, 0}";
}
);
layerId = "10BC12B3-5274-42E3-B5BC-F74F362F0DF4";
paths = (
{
closed = 1;
nodes = (
"60 0 LINE",
"210 0 LINE",
"210 500 LINE",
"60 500 LINE"
);
}
);
width = 270;
},
{
components = (
{
name = grave;
transform = "{1, 0, 0, 1, -150, 0}";
}
);
layerId = "9AF1F7D9-E035-453E-B2A8-46DE370997D0";
paths = (
{
closed = 1;
nodes = (
"60 0 LINE",
"90 0 LINE",
"90 500 LINE",
"60 500 LINE"
);
}
);
width = 150;
}
);
leftKerningGroup = i;
rightKerningGroup = i;
unicode = 00EC;
},
{
glyphname = j;
lastChange = "2020-01-23 10:13:32 +0000";
layers = (
{
layerId = "10BC12B3-5274-42E3-B5BC-F74F362F0DF4";
paths = (
{
closed = 1;
nodes = (
"161 -250 OFFCURVE",
"266 -144 OFFCURVE",
"266 -14 CURVE",
"266 500 LINE",
"116 500 LINE",
"116 -14 LINE",
"116 -62 OFFCURVE",
"77 -100 OFFCURVE",
"30 -100 CURVE",
"30 -100 OFFCURVE",
"30 -250 OFFCURVE",
"30 -250 CURVE"
);
},
{
closed = 1;
nodes = (
"232 550 OFFCURVE",
"266 584 OFFCURVE",
"266 625 CURVE",
"266 667 OFFCURVE",
"232 700 OFFCURVE",
"191 700 CURVE",
"149 700 OFFCURVE",
"116 667 OFFCURVE",
"116 625 CURVE",
"116 584 OFFCURVE",
"149 550 OFFCURVE",
"191 550 CURVE"
);
}
);
width = 326;
},
{
layerId = "9AF1F7D9-E035-453E-B2A8-46DE370997D0";
paths = (
{
closed = 1;
nodes = (
"136 -250 OFFCURVE",
"213 -172 OFFCURVE",
"213 -74 CURVE",
"213 500 LINE",
"183 500 LINE",
"183 -74 LINE",
"183 -157 OFFCURVE",
"118 -220 OFFCURVE",
"30 -220 CURVE",
"30 -220 OFFCURVE",
"30 -250 OFFCURVE",
"30 -250 CURVE SMOOTH"
);
},
{
closed = 1;
nodes = (
"210 600 OFFCURVE",
"221 610 OFFCURVE",
"221 622 CURVE",
"221 634 OFFCURVE",
"210 645 OFFCURVE",
"198 645 CURVE",
"186 645 OFFCURVE",
"176 634 OFFCURVE",
"176 622 CURVE",
"176 610 OFFCURVE",
"186 600 OFFCURVE",
"198 600 CURVE"
);
}
);
width = 291;
}
);
leftKerningGroup = j;
rightKerningGroup = j;
unicode = 006A;
},
{
glyphname = k;
lastChange = "2020-01-23 10:07:38 +0000";
layers = (
{
layerId = "10BC12B3-5274-42E3-B5BC-F74F362F0DF4";
paths = (
{
closed = 1;
nodes = (
"367 294 LINE",
"539 500 LINE",
"343 500 LINE",
"210 341 LINE",
"210 750 LINE",
"60 750 LINE",
"60 0 LINE",
"210 0 LINE",
"210 108 LINE",
"264 172 LINE",
"364 0 LINE",
"537 0 LINE"
);
}
);
width = 579;
},
{
layerId = "9AF1F7D9-E035-453E-B2A8-46DE370997D0";
paths = (
{
closed = 1;
nodes = (
"233 301 LINE",
"401 500 LINE",
"362 500 LINE",
"90 176 LINE",
"90 750 LINE",
"60 750 LINE",
"60 0 LINE",
"90 0 LINE",
"90 129 LINE",
"213 276 LINE",
"373 0 LINE",
"407 0 LINE"
);
}
);
width = 447;
}
);
leftKerningGroup = h;
rightKerningGroup = k;
unicode = 006B;
},
{
glyphname = l;
lastChange = "2020-01-23 10:13:39 +0000";
layers = (
{
layerId = "10BC12B3-5274-42E3-B5BC-F74F362F0DF4";
paths = (
{
closed = 1;
nodes = (
"210 0 LINE",
"210 750 LINE",
"60 750 LINE",
"60 0 LINE"
);
}
);
width = 270;
},
{
layerId = "9AF1F7D9-E035-453E-B2A8-46DE370997D0";
paths = (
{
closed = 1;
nodes = (
"110 1 LINE",
"110 750 LINE",
"80 750 LINE",
"80 1 LINE"
);
}
);
width = 190;
}
);
leftKerningGroup = h;
rightKerningGroup = l;
unicode = 006C;
},
{
glyphname = m;
lastChange = "2020-01-23 09:59:10 +0000";
layers = (
{
layerId = "10BC12B3-5274-42E3-B5BC-F74F362F0DF4";
paths = (
{
closed = 1;
nodes = (
"190 0 LINE",
"190 214 LINE SMOOTH",
"190 297 OFFCURVE",
"233 363 OFFCURVE",
"294 363 CURVE SMOOTH",
"365 363 OFFCURVE",
"398 297 OFFCURVE",
"398 214 CURVE SMOOTH",
"398 0 LINE",
"548 0 LINE",
"548 214 LINE SMOOTH",
"548 297 OFFCURVE",
"586 363 OFFCURVE",
"657 363 CURVE SMOOTH",
"728 363 OFFCURVE",
"756 297 OFFCURVE",
"756 214 CURVE SMOOTH",
"756 0 LINE",
"906 0 LINE",
"906 214 LINE SMOOTH",
"906 376 OFFCURVE",
"814 513 OFFCURVE",
"657 513 CURVE SMOOTH",
"583 513 OFFCURVE",
"537 497 OFFCURVE",
"473 428 CURVE",
"413 494 OFFCURVE",
"368 513 OFFCURVE",
"294 513 CURVE SMOOTH",
"240 513 OFFCURVE",
"204 485 OFFCURVE",
"190 465 CURVE",
"190 500 LINE",
"40 500 LINE",
"40 0 LINE"
);
}
);
width = 946;
},
{
layerId = "9AF1F7D9-E035-453E-B2A8-46DE370997D0";
paths = (
{
closed = 1;
nodes = (
"70 0 LINE",
"70 265 LINE SMOOTH",
"70 380 OFFCURVE",
"134 484 OFFCURVE",
"229 484 CURVE SMOOTH",
"333 484 OFFCURVE",
"398 390 OFFCURVE",
"398 275 CURVE SMOOTH",
"398 0 LINE",
"428 0 LINE",
"428 275 LINE SMOOTH",
"428 390 OFFCURVE",
"493 484 OFFCURVE",
"597 484 CURVE SMOOTH",
"701 484 OFFCURVE",
"756 390 OFFCURVE",
"756 275 CURVE SMOOTH",
"756 0 LINE",
"786 0 LINE",
"786 275 LINE SMOOTH",
"786 403 OFFCURVE",
"721 514 OFFCURVE",
"597 514 CURVE SMOOTH",
"505 514 OFFCURVE",
"444 460 OFFCURVE",
"413 372 CURVE",
"382 458 OFFCURVE",
"324 514 OFFCURVE",
"229 514 CURVE SMOOTH",
"149 514 OFFCURVE",
"108 467 OFFCURVE",
"70 396 CURVE",
"70 500 LINE",
"40 500 LINE",
"40 0 LINE"
);
}
);
width = 826;
}
);
leftKerningGroup = "3";
rightKerningGroup = n;
unicode = 006D;
},
{
glyphname = n;
lastChange = "2020-01-23 10:11:56 +0000";
layers = (
{
layerId = "10BC12B3-5274-42E3-B5BC-F74F362F0DF4";
paths = (
{
closed = 1;
nodes = (
"567 397 OFFCURVE",
"480 514 OFFCURVE",
"336 514 CURVE",
"282 514 OFFCURVE",
"241 490 OFFCURVE",
"210 454 CURVE",
"210 500 LINE",
"60 500 LINE",
"60 0 LINE",
"210 0 LINE",
"210 251 LINE",
"210 316 OFFCURVE",
"244 370 OFFCURVE",
"309 370 CURVE",
"375 370 OFFCURVE",
"418 316 OFFCURVE",
"418 251 CURVE",
"418 0 LINE",
"568 0 LINE",
"568 253 LINE"
);
}
);
width = 608;
},
{
layerId = "9AF1F7D9-E035-453E-B2A8-46DE370997D0";
paths = (
{
closed = 1;
nodes = (
"477 403 OFFCURVE",
"389 514 OFFCURVE",
"269 514 CURVE",
"195 514 OFFCURVE",
"131 471 OFFCURVE",
"90 398 CURVE",
"90 500 LINE",
"60 500 LINE",
"60 0 LINE",
"90 0 LINE",
"90 275 LINE",
"90 390 OFFCURVE",
"171 484 OFFCURVE",
"269 484 CURVE",
"368 484 OFFCURVE",
"449 390 OFFCURVE",
"449 275 CURVE",
"449 0 LINE",
"479 0 LINE",
"479 277 LINE"
);
}
);
width = 519;
}
);
leftKerningGroup = n;
rightKerningGroup = n;
unicode = 006E;
},
{
glyphname = o;
lastChange = "2020-01-23 10:15:51 +0000";
layers = (
{
layerId = "10BC12B3-5274-42E3-B5BC-F74F362F0DF4";
paths = (
{
closed = 1;
nodes = (
"418 -13 OFFCURVE",
"530 105 OFFCURVE",
"530 250 CURVE SMOOTH",
"530 396 OFFCURVE",
"418 514 OFFCURVE",
"280 514 CURVE SMOOTH",
"142 514 OFFCURVE",
"30 396 OFFCURVE",
"30 250 CURVE SMOOTH",
"30 105 OFFCURVE",
"142 -13 OFFCURVE",
"280 -13 CURVE SMOOTH"
);
},
{
closed = 1;
nodes = (
"226 137 OFFCURVE",
"180 186 OFFCURVE",
"180 250 CURVE SMOOTH",
"180 311 OFFCURVE",
"224 364 OFFCURVE",
"280 364 CURVE SMOOTH",
"334 364 OFFCURVE",
"380 313 OFFCURVE",
"380 250 CURVE SMOOTH",
"380 189 OFFCURVE",
"337 137 OFFCURVE",
"280 137 CURVE SMOOTH"
);
}
);
width = 560;
},
{
layerId = "9AF1F7D9-E035-453E-B2A8-46DE370997D0";
paths = (
{
closed = 1;
nodes = (
"418 -13 OFFCURVE",
"530 105 OFFCURVE",
"530 250 CURVE SMOOTH",
"530 396 OFFCURVE",
"418 514 OFFCURVE",
"280 514 CURVE SMOOTH",
"142 514 OFFCURVE",
"30 396 OFFCURVE",
"30 250 CURVE SMOOTH",
"30 105 OFFCURVE",
"142 -13 OFFCURVE",
"280 -13 CURVE SMOOTH"
);
},
{
closed = 1;
nodes = (
"160 17 OFFCURVE",
"60 120 OFFCURVE",
"60 250 CURVE SMOOTH",
"60 376 OFFCURVE",
"155 484 OFFCURVE",
"280 484 CURVE SMOOTH",
"404 484 OFFCURVE",
"500 376 OFFCURVE",
"500 250 CURVE SMOOTH",
"500 125 OFFCURVE",
"404 17 OFFCURVE",
"280 17 CURVE SMOOTH"
);
}
);
width = 560;
}
);
leftKerningGroup = "1";
rightKerningGroup = o;
unicode = 006F;
},
{
glyphname = oslash;
lastChange = "2020-01-23 08:26:46 +0000";
layers = (
{
layerId = "10BC12B3-5274-42E3-B5BC-F74F362F0DF4";
paths = (
{
closed = 1;
nodes = (
"204 -1 LINE",
"228 -9 OFFCURVE",
"253 -13 OFFCURVE",
"280 -13 CURVE SMOOTH",
"418 -13 OFFCURVE",
"530 105 OFFCURVE",
"530 250 CURVE SMOOTH",
"530 323 OFFCURVE",
"502 389 OFFCURVE",
"457 437 CURVE",
"484 484 LINE",
"380 544 LINE",
"355 502 LINE",
"332 510 OFFCURVE",
"306 514 OFFCURVE",
"280 514 CURVE SMOOTH",
"142 514 OFFCURVE",
"30 396 OFFCURVE",
"30 250 CURVE SMOOTH",
"30 178 OFFCURVE",
"58 112 OFFCURVE",
"103 64 CURVE",
"76 17 LINE",
"180 -43 LINE"
);
},
{
closed = 1;
nodes = (
"171 206 OFFCURVE",
"168 222 OFFCURVE",
"168 241 CURVE SMOOTH",
"168 316 OFFCURVE",
"221 381 OFFCURVE",
"288 383 CURVE",
"177 190 LINE"
);
},
{
closed = 1;
nodes = (
"383 311 LINE",
"388 295 OFFCURVE",
"392 278 OFFCURVE",
"392 259 CURVE SMOOTH",
"392 184 OFFCURVE",
"341 120 OFFCURVE",
"272 118 CURVE"
);
}
);
width = 560;
},
{
layerId = "9AF1F7D9-E035-453E-B2A8-46DE370997D0";
paths = (
{
closed = 1;
nodes = (
"163 18 LINE",
"198 -1 OFFCURVE",
"238 -13 OFFCURVE",
"280 -13 CURVE SMOOTH",
"418 -13 OFFCURVE",
"530 105 OFFCURVE",
"530 250 CURVE SMOOTH",
"530 341 OFFCURVE",
"488 420 OFFCURVE",
"423 468 CURVE",
"446 507 LINE",
"420 522 LINE",
"397 484 LINE",
"363 503 OFFCURVE",
"323 514 OFFCURVE",
"280 514 CURVE SMOOTH",
"142 514 OFFCURVE",
"30 396 OFFCURVE",
"30 250 CURVE SMOOTH",
"30 161 OFFCURVE",
"73 82 OFFCURVE",
"138 34 CURVE",
"115 -5 LINE",
"141 -20 LINE"
);
},
{
closed = 1;
nodes = (
"97 103 OFFCURVE",
"60 172 OFFCURVE",
"60 250 CURVE SMOOTH",
"60 423 OFFCURVE",
"236 540 OFFCURVE",
"382 458 CURVE",
"153 61 LINE"
);
},
{
closed = 1;
nodes = (
"408 441 LINE",
"464 398 OFFCURVE",
"500 328 OFFCURVE",
"500 250 CURVE SMOOTH",
"500 81 OFFCURVE",
"330 -40 OFFCURVE",
"178 44 CURVE"
);
}
);
width = 560;
}
);
leftKerningGroup = "1";
rightKerningGroup = o;
unicode = 00F8;
},
{
glyphname = oe;
lastChange = "2020-01-23 10:04:35 +0000";
layers = (
{
layerId = "10BC12B3-5274-42E3-B5BC-F74F362F0DF4";
paths = (
{
closed = 1;
nodes = (
"348 -13 OFFCURVE",
"410 16 OFFCURVE",
"455 62 CURVE",
"500 16 OFFCURVE",
"562 -13 OFFCURVE",
"630 -13 CURVE SMOOTH",
"730 -13 OFFCURVE",
"816 49 OFFCURVE",
"856 138 CURVE",
"703 174 LINE",
"685 151 OFFCURVE",
"659 137 OFFCURVE",
"630 137 CURVE SMOOTH",
"583 138 OFFCURVE",
"556 165 OFFCURVE",
"542 201 CURVE",
"875 201 LINE",
"905 361 OFFCURVE",
"789 514 OFFCURVE",
"630 514 CURVE SMOOTH",
"562 514 OFFCURVE",
"500 485 OFFCURVE",
"455 439 CURVE",
"410 485 OFFCURVE",
"348 514 OFFCURVE",
"280 514 CURVE SMOOTH",
"142 514 OFFCURVE",
"30 396 OFFCURVE",
"30 250 CURVE SMOOTH",
"30 105 OFFCURVE",
"142 -13 OFFCURVE",
"280 -13 CURVE SMOOTH"
);
},
{
closed = 1;
nodes = (
"226 137 OFFCURVE",
"180 186 OFFCURVE",
"180 250 CURVE SMOOTH",
"180 311 OFFCURVE",
"224 364 OFFCURVE",
"280 364 CURVE SMOOTH",
"334 364 OFFCURVE",
"380 313 OFFCURVE",
"380 250 CURVE SMOOTH",
"380 189 OFFCURVE",
"337 137 OFFCURVE",
"280 137 CURVE SMOOTH"
);
},
{
closed = 1;
nodes = (
"550 354 OFFCURVE",
"587 384 OFFCURVE",
"630 384 CURVE SMOOTH",
"673 384 OFFCURVE",
"709 354 OFFCURVE",
"723 311 CURVE",
"536 311 LINE"
);
}
);
width = 910;
},
{
layerId = "9AF1F7D9-E035-453E-B2A8-46DE370997D0";
paths = (
{
closed = 1;
nodes = (
"388 -13 OFFCURVE",
"480 59 OFFCURVE",
"515 160 CURVE",
"550 59 OFFCURVE",
"642 -13 OFFCURVE",
"750 -13 CURVE SMOOTH",
"850 -13 OFFCURVE",
"936 49 OFFCURVE",
"976 138 CURVE",
"946 145 LINE",
"906 65 OFFCURVE",
"835 17 OFFCURVE",
"750 17 CURVE SMOOTH",
"635 17 OFFCURVE",
"540 110 OFFCURVE",
"530 235 CURVE",
"999 235 LINE",
"996 402 OFFCURVE",
"893 514 OFFCURVE",
"750 514 CURVE SMOOTH",
"642 514 OFFCURVE",
"550 442 OFFCURVE",
"515 340 CURVE",
"480 442 OFFCURVE",
"388 514 OFFCURVE",
"280 514 CURVE SMOOTH",
"142 514 OFFCURVE",
"30 396 OFFCURVE",
"30 250 CURVE SMOOTH",
"30 105 OFFCURVE",
"142 -13 OFFCURVE",
"280 -13 CURVE SMOOTH"
);
},
{
closed = 1;
nodes = (
"160 17 OFFCURVE",
"60 120 OFFCURVE",
"60 250 CURVE SMOOTH",
"60 376 OFFCURVE",
"155 484 OFFCURVE",
"280 484 CURVE SMOOTH",
"404 484 OFFCURVE",
"500 376 OFFCURVE",
"500 250 CURVE SMOOTH",
"500 125 OFFCURVE",
"404 17 OFFCURVE",
"280 17 CURVE SMOOTH"
);
},
{
closed = 1;
nodes = (
"538 386 OFFCURVE",
"631 484 OFFCURVE",
"750 484 CURVE SMOOTH",
"868 484 OFFCURVE",
"965 382 OFFCURVE",
"969 265 CURVE",
"530 265 LINE"
);
}
);
width = 1029;
}
);
leftKerningGroup = "1";
rightKerningGroup = e;
unicode = 0153;
},
{
glyphname = p;
lastChange = "2020-01-23 10:04:10 +0000";
layers = (
{
layerId = "10BC12B3-5274-42E3-B5BC-F74F362F0DF4";
paths = (
{
closed = 1;
nodes = (
"210 46 LINE",
"241 11 OFFCURVE",
"282 -14 OFFCURVE",
"336 -14 CURVE",
"482 -14 OFFCURVE",
"599 104 OFFCURVE",
"599 250 CURVE",
"599 395 OFFCURVE",
"482 513 OFFCURVE",
"336 513 CURVE",
"282 513 OFFCURVE",
"241 488 OFFCURVE",
"210 453 CURVE",
"210 500 LINE",
"60 500 LINE",
"60 -250 LINE",
"210 -250 LINE"
);
},
{
closed = 1;
nodes = (
"396 369 OFFCURVE",
"446 315 OFFCURVE",
"446 250 CURVE",
"446 184 OFFCURVE",
"396 131 OFFCURVE",
"334 131 CURVE",
"273 131 OFFCURVE",
"223 184 OFFCURVE",
"223 250 CURVE",
"223 315 OFFCURVE",
"273 369 OFFCURVE",
"334 369 CURVE"
);
}
);
width = 639;
},
{
layerId = "9AF1F7D9-E035-453E-B2A8-46DE370997D0";
paths = (
{
closed = 1;
nodes = (
"90 116 LINE",
"126 38 OFFCURVE",
"197 -14 OFFCURVE",
"294 -14 CURVE SMOOTH",
"439 -14 OFFCURVE",
"557 104 OFFCURVE",
"557 250 CURVE SMOOTH",
"557 395 OFFCURVE",
"439 513 OFFCURVE",
"294 513 CURVE SMOOTH",
"197 513 OFFCURVE",
"126 461 OFFCURVE",
"90 383 CURVE",
"90 500 LINE",
"60 500 LINE",
"60 -250 LINE",
"90 -250 LINE"
);
},
{
closed = 1;
nodes = (
"423 483 OFFCURVE",
"527 378 OFFCURVE",
"527 250 CURVE SMOOTH",
"527 118 OFFCURVE",
"419 16 OFFCURVE",
"294 16 CURVE SMOOTH",
"165 16 OFFCURVE",
"92 122 OFFCURVE",
"92 250 CURVE SMOOTH",
"92 380 OFFCURVE",
"167 483 OFFCURVE",
"294 483 CURVE SMOOTH"
);
}
);
width = 597;
}
);
leftKerningGroup = p;
rightKerningGroup = o;
unicode = 0070;
},
{
glyphname = thorn;
lastChange = "2020-01-23 02:38:09 +0000";
layers = (
{
layerId = "10BC12B3-5274-42E3-B5BC-F74F362F0DF4";
paths = (
{
closed = 1;
nodes = (
"210 -250 LINE",
"210 46 LINE",
"241 11 OFFCURVE",
"282 -14 OFFCURVE",
"336 -14 CURVE SMOOTH",
"482 -14 OFFCURVE",
"599 104 OFFCURVE",
"599 250 CURVE SMOOTH",
"599 395 OFFCURVE",
"482 513 OFFCURVE",
"336 513 CURVE SMOOTH",
"282 513 OFFCURVE",
"241 488 OFFCURVE",
"210 453 CURVE",
"210 700 LINE",
"60 700 LINE",
"60 -250 LINE"
);
},
{
closed = 1;
nodes = (
"273 131 OFFCURVE",
"223 184 OFFCURVE",
"223 250 CURVE SMOOTH",
"223 315 OFFCURVE",
"273 369 OFFCURVE",
"334 369 CURVE SMOOTH",
"396 369 OFFCURVE",
"446 315 OFFCURVE",
"446 250 CURVE SMOOTH",
"446 184 OFFCURVE",
"396 131 OFFCURVE",
"334 131 CURVE SMOOTH"
);
}
);
width = 639;
},
{
layerId = "9AF1F7D9-E035-453E-B2A8-46DE370997D0";
paths = (
{
closed = 1;
nodes = (
"90 -250 LINE",
"90 116 LINE",
"126 38 OFFCURVE",
"197 -14 OFFCURVE",
"294 -14 CURVE SMOOTH",
"439 -14 OFFCURVE",
"557 104 OFFCURVE",
"557 250 CURVE SMOOTH",
"557 395 OFFCURVE",
"439 513 OFFCURVE",
"294 513 CURVE SMOOTH",
"197 513 OFFCURVE",
"126 461 OFFCURVE",
"90 383 CURVE",
"90 700 LINE",
"60 700 LINE",
"60 -250 LINE"
);
},
{
closed = 1;
nodes = (
"165 16 OFFCURVE",
"92 122 OFFCURVE",
"92 250 CURVE SMOOTH",
"92 380 OFFCURVE",
"167 483 OFFCURVE",
"294 483 CURVE SMOOTH",
"423 483 OFFCURVE",
"527 378 OFFCURVE",
"527 250 CURVE SMOOTH",
"527 118 OFFCURVE",
"419 16 OFFCURVE",
"294 16 CURVE SMOOTH"
);
}
);
width = 597;
}
);
leftKerningGroup = h;
rightKerningGroup = o;
unicode = 00FE;
},
{
glyphname = q;
lastChange = "2020-01-23 07:42:57 +0000";
layers = (
{
layerId = "10BC12B3-5274-42E3-B5BC-F74F362F0DF4";
paths = (
{
closed = 1;
nodes = (
"357 -14 OFFCURVE",
"398 11 OFFCURVE",
"429 46 CURVE",
"429 -250 LINE",
"579 -250 LINE",
"579 500 LINE",
"429 500 LINE",
"429 453 LINE",
"398 488 OFFCURVE",
"357 513 OFFCURVE",
"303 513 CURVE",
"158 513 OFFCURVE",
"40 395 OFFCURVE",
"40 250 CURVE",
"40 104 OFFCURVE",
"158 -14 OFFCURVE",
"303 -14 CURVE"
);
},
{
closed = 1;
nodes = (
"367 369 OFFCURVE",
"416 315 OFFCURVE",
"416 250 CURVE",
"416 184 OFFCURVE",
"367 131 OFFCURVE",
"305 131 CURVE",
"243 131 OFFCURVE",
"194 184 OFFCURVE",
"194 250 CURVE",
"194 315 OFFCURVE",
"243 369 OFFCURVE",
"305 369 CURVE"
);
}
);
width = 639;
},
{
layerId = "9AF1F7D9-E035-453E-B2A8-46DE370997D0";
paths = (
{
closed = 1;
nodes = (
"400 -14 OFFCURVE",
"471 38 OFFCURVE",
"507 116 CURVE",
"507 -250 LINE",
"537 -250 LINE",
"537 500 LINE",
"507 500 LINE",
"507 383 LINE",
"471 461 OFFCURVE",
"400 513 OFFCURVE",
"303 513 CURVE",
"158 513 OFFCURVE",
"40 395 OFFCURVE",
"40 250 CURVE",
"40 104 OFFCURVE",
"158 -14 OFFCURVE",
"303 -14 CURVE"
);
},
{
closed = 1;
nodes = (
"430 483 OFFCURVE",
"505 380 OFFCURVE",
"505 250 CURVE",
"505 122 OFFCURVE",
"432 16 OFFCURVE",
"303 16 CURVE",
"178 16 OFFCURVE",
"70 118 OFFCURVE",
"70 250 CURVE",
"70 378 OFFCURVE",
"174 483 OFFCURVE",
"303 483 CURVE"
);
}
);
width = 597;
}
);
leftKerningGroup = "2";
rightKerningGroup = q;
unicode = 0071;
},
{
glyphname = r;
lastChange = "2020-01-23 10:17:43 +0000";
layers = (
{
layerId = "10BC12B3-5274-42E3-B5BC-F74F362F0DF4";
paths = (
{
closed = 1;
nodes = (
"401 507 LINE",
"381 513 OFFCURVE",
"359 513 OFFCURVE",
"336 513 CURVE SMOOTH",
"282 513 OFFCURVE",
"241 489 OFFCURVE",
"210 454 CURVE",
"210 499 LINE",
"60 499 LINE",
"60 0 LINE",
"211 0 LINE",
"211 250 LINE SMOOTH",
"211 316 OFFCURVE",
"244 369 OFFCURVE",
"309 369 CURVE SMOOTH",
"336 369 OFFCURVE",
"359 360 OFFCURVE",
"377 346 CURVE"
);
}
);
width = 441;
},
{
layerId = "9AF1F7D9-E035-453E-B2A8-46DE370997D0";
paths = (
{
closed = 1;
nodes = (
"326 505 LINE",
"309 511 OFFCURVE",
"290 514 OFFCURVE",
"270 514 CURVE",
"196 514 OFFCURVE",
"131 471 OFFCURVE",
"90 398 CURVE",
"90 500 LINE",
"60 500 LINE",
"60 0 LINE",
"90 0 LINE",
"90 275 LINE",
"90 390 OFFCURVE",
"171 484 OFFCURVE",
"270 484 CURVE",
"288 484 OFFCURVE",
"305 481 OFFCURVE",
"321 475 CURVE"
);
}
);
width = 366;
}
);
leftKerningGroup = n;
rightKerningGroup = r;
unicode = 0072;
},
{
glyphname = s;
lastChange = "2020-01-23 10:12:45 +0000";
layers = (
{
layerId = "10BC12B3-5274-42E3-B5BC-F74F362F0DF4";
paths = (
{
closed = 1;
nodes = (
"330 -19 OFFCURVE",
"432 51 OFFCURVE",
"432 151 CURVE SMOOTH",
"435 237 OFFCURVE",
"354 289 OFFCURVE",
"268 317 CURVE SMOOTH",
"246 324 OFFCURVE",
"194 325 OFFCURVE",
"194 354 CURVE SMOOTH",
"194 385 OFFCURVE",
"220 393 OFFCURVE",
"255 390 CURVE SMOOTH",
"281 387 OFFCURVE",
"302 369 OFFCURVE",
"314 354 CURVE",
"432 424 LINE",
"389 484 OFFCURVE",
"320 517 OFFCURVE",
"242 517 CURVE SMOOTH",
"143 517 OFFCURVE",
"54 453 OFFCURVE",
"54 350 CURVE SMOOTH",
"54 258 OFFCURVE",
"143 200 OFFCURVE",
"232 186 CURVE SMOOTH",
"257 182 OFFCURVE",
"294 177 OFFCURVE",
"294 149 CURVE SMOOTH",
"294 124 OFFCURVE",
"267 117 OFFCURVE",
"241 117 CURVE SMOOTH",
"202 117 OFFCURVE",
"181 141 OFFCURVE",
"171 152 CURVE",
"45 98 LINE",
"77 33 OFFCURVE",
"148 -2 OFFCURVE",
"224 -9 CURVE SMOOTH"
);
}
);
width = 477;
},
{
layerId = "9AF1F7D9-E035-453E-B2A8-46DE370997D0";
paths = (
{
closed = 1;
nodes = (
"333 -10 OFFCURVE",
"419 44 OFFCURVE",
"419 129 CURVE",
"419 212 OFFCURVE",
"334 239 OFFCURVE",
"240 269 CURVE SMOOTH",
"145 299 OFFCURVE",
"90 309 OFFCURVE",
"90 378 CURVE",
"90 445 OFFCURVE",
"161 487 OFFCURVE",
"240 487 CURVE",
"303 487 OFFCURVE",
"374 456 OFFCURVE",
"395 403 CURVE",
"421 418 LINE",
"397 476 OFFCURVE",
"323 517 OFFCURVE",
"240 517 CURVE",
"146 517 OFFCURVE",
"60 463 OFFCURVE",
"60 378 CURVE",
"60 295 OFFCURVE",
"125 275 OFFCURVE",
"240 239 CURVE SMOOTH",
"314 216 OFFCURVE",
"389 197 OFFCURVE",
"389 129 CURVE",
"389 64 OFFCURVE",
"318 20 OFFCURVE",
"240 20 CURVE",
"177 20 OFFCURVE",
"92 56 OFFCURVE",
"73 110 CURVE",
"45 98 LINE",
"66 38 OFFCURVE",
"154 -10 OFFCURVE",
"240 -10 CURVE"
);
}
);
width = 466;
}
);
leftKerningGroup = "1";
rightKerningGroup = s;
unicode = 0073;
},
{
glyphname = germandbls;
lastChange = "2020-01-23 09:54:49 +0000";
layers = (
{
layerId = "10BC12B3-5274-42E3-B5BC-F74F362F0DF4";
paths = (
{
closed = 1;
nodes = (
"210 0 LINE",
"210 475 LINE SMOOTH",
"210 529 OFFCURVE",
"253 572 OFFCURVE",
"307 572 CURVE SMOOTH",
"347 572 OFFCURVE",
"380 538 OFFCURVE",
"380 497 CURVE SMOOTH",
"380 456 OFFCURVE",
"347 429 OFFCURVE",
"307 422 CURVE SMOOTH",
"295 420 LINE",
"295 299 LINE",
"336 297 LINE SMOOTH",
"388 294 OFFCURVE",
"430 258 OFFCURVE",
"430 212 CURVE SMOOTH",
"430 166 OFFCURVE",
"388 127 OFFCURVE",
"336 127 CURVE SMOOTH",
"295 127 LINE",
"315 0 LINE",
"352 0 LINE SMOOTH",
"468 0 OFFCURVE",
"563 85 OFFCURVE",
"563 201 CURVE SMOOTH",
"563 263 OFFCURVE",
"554 355 OFFCURVE",
"465 367 CURVE",
"517 391 OFFCURVE",
"530 453 OFFCURVE",
"530 497 CURVE SMOOTH",
"530 614 OFFCURVE",
"440 700 OFFCURVE",
"325 700 CURVE SMOOTH",
"178 700 OFFCURVE",
"60 581 OFFCURVE",
"60 435 CURVE SMOOTH",
"60 0 LINE"
);
}
);
width = 593;
},
{
layerId = "9AF1F7D9-E035-453E-B2A8-46DE370997D0";
paths = (
{
closed = 1;
nodes = (
"90 0 LINE",
"90 497 LINE SMOOTH",
"90 592 OFFCURVE",
"167 669 OFFCURVE",
"262 669 CURVE SMOOTH",
"341 669 OFFCURVE",
"406 600 OFFCURVE",
"406 515 CURVE SMOOTH",
"406 430 OFFCURVE",
"341 361 OFFCURVE",
"262 361 CURVE SMOOTH",
"248 361 LINE",
"248 331 LINE",
"295 331 LINE SMOOTH",
"378 331 OFFCURVE",
"445 264 OFFCURVE",
"445 181 CURVE SMOOTH",
"445 98 OFFCURVE",
"378 30 OFFCURVE",
"295 30 CURVE SMOOTH",
"248 30 LINE",
"258 0 LINE",
"295 0 LINE SMOOTH",
"394 0 OFFCURVE",
"475 81 OFFCURVE",
"475 181 CURVE SMOOTH",
"475 263 OFFCURVE",
"421 332 OFFCURVE",
"346 354 CURVE",
"399 385 OFFCURVE",
"436 446 OFFCURVE",
"436 515 CURVE SMOOTH",
"436 616 OFFCURVE",
"358 699 OFFCURVE",
"262 699 CURVE SMOOTH",
"150 699 OFFCURVE",
"60 608 OFFCURVE",
"60 497 CURVE SMOOTH",
"60 0 LINE"
);
}
);
width = 505;
}
);
leftKerningGroup = h;
rightKerningGroup = germandbls;
unicode = 00DF;
},
{
glyphname = t;
lastChange = "2020-01-23 10:17:23 +0000";
layers = (
{
layerId = "10BC12B3-5274-42E3-B5BC-F74F362F0DF4";
paths = (
{
closed = 1;
nodes = (
"320 500 LINE",
"250 500 LINE",
"250 657 LINE",
"100 657 LINE",
"100 500 LINE",
"40 500 LINE",
"40 350 LINE",
"100 350 LINE",
"100 0 LINE",
"250 0 LINE",
"250 350 LINE",
"320 350 LINE"
);
}
);
width = 370;
},
{
layerId = "9AF1F7D9-E035-453E-B2A8-46DE370997D0";
paths = (
{
closed = 1;
nodes = (
"320 500 LINE",
"178 500 LINE",
"178 657 LINE",
"148 657 LINE",
"148 500 LINE",
"40 500 LINE",
"40 470 LINE",
"148 470 LINE",
"148 0 LINE",
"178 0 LINE",
"178 470 LINE",
"320 470 LINE"
);
}
);
width = 370;
}
);
leftKerningGroup = t;
rightKerningGroup = t;
unicode = 0074;
},
{
glyphname = u;
lastChange = "2020-01-23 10:10:21 +0000";
layers = (
{
layerId = "10BC12B3-5274-42E3-B5BC-F74F362F0DF4";
paths = (
{
closed = 1;
nodes = (
"46 103 OFFCURVE",
"133 -14 OFFCURVE",
"277 -14 CURVE",
"331 -14 OFFCURVE",
"372 11 OFFCURVE",
"403 46 CURVE",
"403 0 LINE",
"553 0 LINE",
"553 500 LINE",
"403 500 LINE",
"403 250 LINE",
"403 184 OFFCURVE",
"369 131 OFFCURVE",
"304 131 CURVE",
"238 131 OFFCURVE",
"195 184 OFFCURVE",
"195 250 CURVE",
"195 500 LINE",
"45 500 LINE",
"45 248 LINE"
);
}
);
width = 613;
},
{
layerId = "9AF1F7D9-E035-453E-B2A8-46DE370997D0";
paths = (
{
closed = 1;
nodes = (
"47 98 OFFCURVE",
"135 -13 OFFCURVE",
"255 -13 CURVE",
"329 -13 OFFCURVE",
"393 30 OFFCURVE",
"434 103 CURVE",
"434 0 LINE",
"464 0 LINE",
"464 500 LINE",
"434 500 LINE",
"434 226 LINE",
"434 111 OFFCURVE",
"353 17 OFFCURVE",
"255 17 CURVE",
"156 17 OFFCURVE",
"75 111 OFFCURVE",
"75 226 CURVE",
"75 500 LINE",
"45 500 LINE",
"45 224 LINE"
);
}
);
width = 524;
}
);
leftKerningGroup = u;
rightKerningGroup = u;
unicode = 0075;
},
{
glyphname = v;
lastChange = "2020-01-23 10:15:16 +0000";
layers = (
{
layerId = "10BC12B3-5274-42E3-B5BC-F74F362F0DF4";
paths = (
{
closed = 1;
nodes = (
"588 500 LINE",
"428 500 LINE",
"309 172 LINE",
"190 500 LINE",
"30 500 LINE",
"212 0 LINE",
"406 0 LINE"
);
}
);
width = 618;
},
{
layerId = "9AF1F7D9-E035-453E-B2A8-46DE370997D0";
paths = (
{
closed = 1;
nodes = (
"452 502 LINE",
"420 502 LINE",
"251 37 LINE",
"82 502 LINE",
"50 502 LINE",
"233 0 LINE",
"269 0 LINE"
);
}
);
width = 502;
}
);
leftKerningGroup = v;
rightKerningGroup = v;
unicode = 0076;
},
{
glyphname = w;
lastChange = "2020-01-23 10:12:54 +0000";
layers = (
{
layerId = "10BC12B3-5274-42E3-B5BC-F74F362F0DF4";
paths = (
{
closed = 1;
nodes = (
"437 281 LINE",
"530 0 LINE",
"677 0 LINE",
"844 500 LINE",
"697 500 LINE",
"603 219 LINE",
"510 500 LINE",
"364 500 LINE",
"271 219 LINE",
"177 500 LINE",
"30 500 LINE",
"197 0 LINE",
"344 0 LINE"
);
}
);
width = 874;
},
{
layerId = "9AF1F7D9-E035-453E-B2A8-46DE370997D0";
paths = (
{
closed = 1;
nodes = (
"390 470 LINE",
"549 0 LINE",
"584 0 LINE",
"752 501 LINE",
"722 501 LINE",
"566 36 LINE",
"410 501 LINE",
"372 501 LINE",
"216 36 LINE",
"59 501 LINE",
"30 501 LINE",
"198 0 LINE",
"232 0 LINE"
);
}
);
width = 782;
}
);
leftKerningGroup = "2";
rightKerningGroup = w;
unicode = 0077;
},
{
glyphname = x;
lastChange = "2020-01-23 06:39:56 +0000";
layers = (
{
layerId = "10BC12B3-5274-42E3-B5BC-F74F362F0DF4";
paths = (
{
closed = 1;
nodes = (
"205 0 LINE",
"295 124 LINE",
"386 0 LINE",
"571 0 LINE",
"388 251 LINE",
"569 500 LINE",
"384 500 LINE",
"295 379 LINE",
"207 500 LINE",
"22 500 LINE",
"203 251 LINE",
"20 0 LINE"
);
}
);
width = 591;
},
{
layerId = "9AF1F7D9-E035-453E-B2A8-46DE370997D0";
paths = (
{
closed = 1;
nodes = (
"57 0 LINE",
"222 226 LINE",
"386 0 LINE",
"423 0 LINE",
"240 251 LINE",
"423 502 LINE",
"386 502 LINE",
"222 277 LINE",
"57 502 LINE",
"20 502 LINE",
"203 251 LINE",
"20 0 LINE"
);
}
);
width = 443;
}
);
leftKerningGroup = "2";
rightKerningGroup = x;
unicode = 0078;
},
{
glyphname = y;
lastChange = "2020-01-23 10:16:33 +0000";
layers = (
{
layerId = "10BC12B3-5274-42E3-B5BC-F74F362F0DF4";
paths = (
{
closed = 1;
nodes = (
"320 205 LINE",
"194 500 LINE",
"30 500 LINE",
"245 0 LINE",
"155 -250 LINE",
"314 -250 LINE",
"588 500 LINE",
"428 500 LINE"
);
}
);
width = 628;
},
{
layerId = "9AF1F7D9-E035-453E-B2A8-46DE370997D0";
paths = (
{
closed = 1;
nodes = (
"259 42 LINE",
"63 500 LINE",
"30 500 LINE",
"244 1 LINE",
"153 -250 LINE",
"185 -250 LINE",
"458 500 LINE",
"427 500 LINE"
);
}
);
width = 498;
}
);
leftKerningGroup = y;
rightKerningGroup = y;
unicode = 0079;
},
{
glyphname = z;
lastChange = "2020-01-23 08:37:39 +0000";
layers = (
{
layerId = "10BC12B3-5274-42E3-B5BC-F74F362F0DF4";
paths = (
{
closed = 1;
nodes = (
"467 500 LINE",
"40 500 LINE",
"40 350 LINE",
"250 350 LINE",
"40 150 LINE",
"40 0 LINE",
"467 0 LINE",
"467 150 LINE",
"257 150 LINE",
"467 350 LINE"
);
}
);
width = 507;
},
{
layerId = "9AF1F7D9-E035-453E-B2A8-46DE370997D0";
paths = (
{
closed = 1;
nodes = (
"477 500 LINE",
"50 500 LINE",
"50 470 LINE",
"437 470 LINE",
"50 30 LINE",
"50 0 LINE",
"477 0 LINE",
"477 30 LINE",
"90 30 LINE",
"477 470 LINE"
);
}
);
width = 527;
}
);
leftKerningGroup = z;
rightKerningGroup = z;
unicode = 007A;
},
{
glyphname = mu;
lastChange = "2020-01-23 05:51:00 +0000";
layers = (
{
layerId = "10BC12B3-5274-42E3-B5BC-F74F362F0DF4";
paths = (
{
closed = 1;
nodes = (
"190 -216 LINE",
"190 0 LINE",
"215 -9 OFFCURVE",
"242 -14 OFFCURVE",
"272 -14 CURVE SMOOTH",
"326 -14 OFFCURVE",
"367 11 OFFCURVE",
"398 46 CURVE",
"398 0 LINE",
"548 0 LINE",
"548 500 LINE",
"398 500 LINE",
"398 250 LINE SMOOTH",
"398 184 OFFCURVE",
"364 131 OFFCURVE",
"299 131 CURVE SMOOTH",
"233 131 OFFCURVE",
"190 184 OFFCURVE",
"190 250 CURVE SMOOTH",
"190 500 LINE",
"40 500 LINE",
"40 -216 LINE"
);
}
);
width = 588;
},
{
layerId = "9AF1F7D9-E035-453E-B2A8-46DE370997D0";
paths = (
{
closed = 1;
nodes = (
"70 -216 LINE",
"70 104 LINE",
"106 35 OFFCURVE",
"171 -13 OFFCURVE",
"250 -13 CURVE SMOOTH",
"324 -13 OFFCURVE",
"388 30 OFFCURVE",
"429 103 CURVE",
"429 0 LINE",
"459 0 LINE",
"459 500 LINE",
"429 500 LINE",
"429 226 LINE SMOOTH",
"429 111 OFFCURVE",
"348 17 OFFCURVE",
"250 17 CURVE SMOOTH",
"151 17 OFFCURVE",
"70 111 OFFCURVE",
"70 226 CURVE SMOOTH",
"70 500 LINE",
"40 500 LINE",
"40 -216 LINE"
);
}
);
width = 499;
}
);
unicode = 03BC;
},
{
glyphname = zero;
lastChange = "2020-01-23 01:24:53 +0000";
layers = (
{
layerId = "10BC12B3-5274-42E3-B5BC-F74F362F0DF4";
paths = (
{
closed = 1;
nodes = (
"465 -13 OFFCURVE",
"579 150 OFFCURVE",
"579 350 CURVE SMOOTH",
"579 550 OFFCURVE",
"465 713 OFFCURVE",
"305 713 CURVE SMOOTH",
"145 713 OFFCURVE",
"30 550 OFFCURVE",
"30 350 CURVE SMOOTH",
"30 150 OFFCURVE",
"145 -13 OFFCURVE",
"305 -13 CURVE SMOOTH"
);
},
{
closed = 1;
nodes = (
"213 137 OFFCURVE",
"170 242 OFFCURVE",
"170 350 CURVE SMOOTH",
"170 459 OFFCURVE",
"212 563 OFFCURVE",
"305 563 CURVE SMOOTH",
"394 563 OFFCURVE",
"439 465 OFFCURVE",
"439 350 CURVE SMOOTH",
"439 241 OFFCURVE",
"398 137 OFFCURVE",
"305 137 CURVE SMOOTH"
);
}
);
width = 609;
},
{
layerId = "9AF1F7D9-E035-453E-B2A8-46DE370997D0";
paths = (
{
closed = 1;
nodes = (
"465 -13 OFFCURVE",
"559 150 OFFCURVE",
"559 350 CURVE SMOOTH",
"559 551 OFFCURVE",
"465 713 OFFCURVE",
"295 713 CURVE SMOOTH",
"124 713 OFFCURVE",
"30 551 OFFCURVE",
"30 350 CURVE SMOOTH",
"30 150 OFFCURVE",
"124 -13 OFFCURVE",
"295 -13 CURVE SMOOTH"
);
},
{
closed = 1;
nodes = (
"143 17 OFFCURVE",
"60 166 OFFCURVE",
"60 350 CURVE SMOOTH",
"60 529 OFFCURVE",
"138 683 OFFCURVE",
"295 683 CURVE SMOOTH",
"444 683 OFFCURVE",
"529 541 OFFCURVE",
"529 350 CURVE SMOOTH",
"529 168 OFFCURVE",
"447 17 OFFCURVE",
"295 17 CURVE SMOOTH"
);
}
);
width = 589;
}
);
leftKerningGroup = zero;
rightKerningGroup = zero;
unicode = 0030;
},
{
glyphname = one;
lastChange = "2020-01-23 08:33:26 +0000";
layers = (
{
layerId = "10BC12B3-5274-42E3-B5BC-F74F362F0DF4";
paths = (
{
closed = 1;
nodes = (
"285 0 LINE",
"285 700 LINE",
"80 700 LINE",
"40 550 LINE",
"135 550 LINE",
"135 0 LINE"
);
}
);
width = 345;
},
{
layerId = "9AF1F7D9-E035-453E-B2A8-46DE370997D0";
paths = (
{
closed = 1;
nodes = (
"135 0 LINE",
"135 700 LINE",
"50 700 LINE",
"40 670 LINE",
"105 670 LINE",
"105 0 LINE"
);
}
);
width = 195;
}
);
leftKerningGroup = one;
rightKerningGroup = one;
unicode = 0031;
},
{
glyphname = two;
lastChange = "2020-01-23 02:39:46 +0000";
layers = (
{
hints = (
{
horizontal = 1;
origin = "{0, 22}";
target = "{0, 2}";
type = Stem;
},
{
horizontal = 1;
origin = "{0, 15}";
target = "{0, 8}";
type = Stem;
},
{
origin = "{0, 11}";
target = "{0, 12}";
type = Stem;
},
{
origin = "{0, 18}";
target = "{0, 0}";
type = Stem;
}
);
layerId = "10BC12B3-5274-42E3-B5BC-F74F362F0DF4";
paths = (
{
closed = 1;
nodes = (
"526 0 LINE",
"526 150 LINE",
"316 150 LINE",
"450 280 OFFCURVE",
"526 359 OFFCURVE",
"526 470 CURVE SMOOTH",
"526 605 OFFCURVE",
"417 713 OFFCURVE",
"284 713 CURVE SMOOTH",
"153 713 OFFCURVE",
"41 608 OFFCURVE",
"41 470 CURVE",
"191 470 LINE",
"191 521 OFFCURVE",
"233 563 OFFCURVE",
"284 563 CURVE SMOOTH",
"335 563 OFFCURVE",
"376 521 OFFCURVE",
"376 470 CURVE SMOOTH",
"376 386 OFFCURVE",
"133 192 OFFCURVE",
"40 134 CURVE",
"40 0 LINE"
);
}
);
width = 586;
},
{
hints = (
{
horizontal = 1;
origin = "{0, 22}";
target = "{0, 2}";
type = Stem;
},
{
horizontal = 1;
origin = "{0, 15}";
target = "{0, 8}";
type = Stem;
},
{
origin = "{0, 11}";
target = "{0, 12}";
type = Stem;
},
{
origin = "{0, 18}";
target = "{0, 5}";
type = Stem;
}
);
layerId = "9AF1F7D9-E035-453E-B2A8-46DE370997D0";
paths = (
{
closed = 1;
nodes = (
"464 0 LINE",
"464 30 LINE",
"89 30 LINE",
"227 157 OFFCURVE",
"448 390 OFFCURVE",
"448 513 CURVE SMOOTH",
"448 623 OFFCURVE",
"359 713 OFFCURVE",
"250 713 CURVE SMOOTH",
"140 713 OFFCURVE",
"51 623 OFFCURVE",
"51 513 CURVE",
"81 513 LINE",
"81 606 OFFCURVE",
"157 683 OFFCURVE",
"250 683 CURVE SMOOTH",
"343 683 OFFCURVE",
"418 606 OFFCURVE",
"418 513 CURVE SMOOTH",
"418 391 OFFCURVE",
"200 186 OFFCURVE",
"40 26 CURVE",
"40 0 LINE"
);
}
);
width = 524;
}
);
leftKerningGroup = two;
rightKerningGroup = two;
unicode = 0032;
},
{
glyphname = three;
lastChange = "2020-01-23 02:39:28 +0000";
layers = (
{
hints = (
{
horizontal = 1;
origin = "{0, 38}";
target = "{0, 31}";
type = Stem;
},
{
horizontal = 1;
origin = "{0, 25}";
target = "{0, 24}";
type = Stem;
},
{
horizontal = 1;
origin = "{0, 18}";
target = "{0, 11}";
type = Stem;
},
{
origin = "{0, 35}";
target = "{0, 34}";
type = Stem;
},
{
origin = "{0, 28}";
target = "{0, 2}";
type = Stem;
},
{
origin = "{0, 14}";
target = "{0, 15}";
type = Stem;
},
{
origin = "{0, 21}";
target = "{0, 8}";
type = Stem;
}
);
layerId = "10BC12B3-5274-42E3-B5BC-F74F362F0DF4";
paths = (
{
closed = 1;
nodes = (
"388 -13 OFFCURVE",
"492 91 OFFCURVE",
"492 218 CURVE SMOOTH",
"492 278 OFFCURVE",
"465 352 OFFCURVE",
"413 372 CURVE",
"453 393 OFFCURVE",
"473 451 OFFCURVE",
"473 498 CURVE SMOOTH",
"473 618 OFFCURVE",
"373 714 OFFCURVE",
"256 714 CURVE SMOOTH",
"137 714 OFFCURVE",
"30 617 OFFCURVE",
"30 498 CURVE",
"180 498 LINE",
"180 534 OFFCURVE",
"221 564 OFFCURVE",
"258 564 CURVE SMOOTH",
"294 564 OFFCURVE",
"323 534 OFFCURVE",
"323 498 CURVE SMOOTH",
"323 448 OFFCURVE",
"278 423 OFFCURVE",
"205 423 CURVE",
"205 309 LINE",
"288 309 OFFCURVE",
"342 279 OFFCURVE",
"342 218 CURVE SMOOTH",
"342 174 OFFCURVE",
"305 137 OFFCURVE",
"261 137 CURVE SMOOTH",
"217 137 OFFCURVE",
"180 174 OFFCURVE",
"180 218 CURVE",
"30 218 LINE",
"30 90 OFFCURVE",
"135 -13 OFFCURVE",
"261 -13 CURVE SMOOTH"
);
}
);
width = 522;
},
{
background = {
paths = (
{
closed = 1;
nodes = (
"454 354 OFFCURVE",
"411 373 CURVE",
"453 402 OFFCURVE",
"471 451 OFFCURVE",
"471 500 CURVE",
"471 624 OFFCURVE",
"371 712 OFFCURVE",
"249 712 CURVE",
"126 712 OFFCURVE",
"27 623 OFFCURVE",
"27 500 CURVE",
"177 500 LINE",
"177 540 OFFCURVE",
"209 572 OFFCURVE",
"249 572 CURVE",
"288 572 OFFCURVE",
"321 540 OFFCURVE",
"321 500 CURVE",
"321 468 OFFCURVE",
"284 415 OFFCURVE",
"195 415 CURVE",
"195 324 LINE",
"309 324 OFFCURVE",
"339 265 OFFCURVE",
"339 223 CURVE",
"339 176 OFFCURVE",
"300 137 OFFCURVE",
"252 137 CURVE",
"205 137 OFFCURVE",
"166 176 OFFCURVE",
"166 223 CURVE",
"16 223 LINE",
"16 92 OFFCURVE",
"122 -13 OFFCURVE",
"252 -13 CURVE",
"382 -13 OFFCURVE",
"489 93 OFFCURVE",
"489 223 CURVE",
"489 280 OFFCURVE"
);
}
);
};
layerId = "9AF1F7D9-E035-453E-B2A8-46DE370997D0";
paths = (
{
closed = 1;
nodes = (
"347 -13 OFFCURVE",
"446 76 OFFCURVE",
"446 185 CURVE SMOOTH",
"446 273 OFFCURVE",
"398 339 OFFCURVE",
"307 369 CURVE",
"377 392 OFFCURVE",
"424 453 OFFCURVE",
"424 533 CURVE SMOOTH",
"424 632 OFFCURVE",
"333 713 OFFCURVE",
"234 713 CURVE SMOOTH",
"134 713 OFFCURVE",
"43 632 OFFCURVE",
"43 533 CURVE",
"73 533 LINE",
"73 615 OFFCURVE",
"151 683 OFFCURVE",
"234 683 CURVE SMOOTH",
"316 683 OFFCURVE",
"394 615 OFFCURVE",
"394 533 CURVE SMOOTH",
"394 435 OFFCURVE",
"318 383 OFFCURVE",
"206 383 CURVE",
"206 353 LINE",
"326 353 OFFCURVE",
"416 297 OFFCURVE",
"416 185 CURVE SMOOTH",
"416 92 OFFCURVE",
"330 17 OFFCURVE",
"238 17 CURVE SMOOTH",
"125 17 OFFCURVE",
"60 92 OFFCURVE",
"60 185 CURVE",
"30 185 LINE",
"30 76 OFFCURVE",
"109 -13 OFFCURVE",
"238 -13 CURVE SMOOTH"
);
}
);
width = 476;
}
);
leftKerningGroup = three;
rightKerningGroup = three;
unicode = 0033;
},
{
glyphname = four;
lastChange = "2020-01-23 09:03:56 +0000";
layers = (
{
layerId = "10BC12B3-5274-42E3-B5BC-F74F362F0DF4";
paths = (
{
closed = 1;
nodes = (
"486 0 LINE",
"486 155 LINE",
"537 155 LINE",
"537 305 LINE",
"486 305 LINE",
"486 700 LINE",
"302 700 LINE",
"40 305 LINE",
"40 155 LINE",
"336 155 LINE",
"336 0 LINE"
);
},
{
closed = 1;
nodes = (
"336 498 LINE",
"336 305 LINE",
"213 305 LINE"
);
}
);
width = 597;
},
{
layerId = "9AF1F7D9-E035-453E-B2A8-46DE370997D0";
paths = (
{
closed = 1;
nodes = (
"380 0 LINE",
"380 217 LINE",
"465 217 LINE",
"465 247 LINE",
"380 247 LINE",
"380 700 LINE",
"340 700 LINE",
"45 249 LINE",
"45 217 LINE",
"350 217 LINE",
"350 0 LINE"
);
},
{
closed = 1;
nodes = (
"348 651 LINE",
"350 247 LINE",
"83 249 LINE"
);
}
);
width = 525;
}
);
leftKerningGroup = four;
rightKerningGroup = four;
unicode = 0034;
},
{
glyphname = five;
lastChange = "2020-01-23 01:35:27 +0000";
layers = (
{
layerId = "10BC12B3-5274-42E3-B5BC-F74F362F0DF4";
paths = (
{
closed = 1;
nodes = (
"417 -13 OFFCURVE",
"526 98 OFFCURVE",
"526 232 CURVE SMOOTH",
"526 366 OFFCURVE",
"426 473 OFFCURVE",
"284 479 CURVE",
"252 480 LINE",
"267 550 LINE",
"498 550 LINE",
"498 700 LINE",
"145 700 LINE",
"67 330 LINE",
"252 330 LINE SMOOTH",
"352 330 OFFCURVE",
"376 285 OFFCURVE",
"376 232 CURVE SMOOTH",
"376 179 OFFCURVE",
"333 137 OFFCURVE",
"281 137 CURVE SMOOTH",
"228 137 OFFCURVE",
"185 179 OFFCURVE",
"185 232 CURVE",
"35 232 LINE",
"35 100 OFFCURVE",
"142 -13 OFFCURVE",
"281 -13 CURVE SMOOTH"
);
}
);
width = 586;
},
{
layerId = "9AF1F7D9-E035-453E-B2A8-46DE370997D0";
paths = (
{
closed = 1;
nodes = (
"377 -13 OFFCURVE",
"477 86 OFFCURVE",
"477 208 CURVE SMOOTH",
"477 341 OFFCURVE",
"379 429 OFFCURVE",
"236 429 CURVE SMOOTH",
"130 429 LINE",
"177 670 LINE",
"468 670 LINE",
"468 700 LINE",
"153 700 LINE",
"93 399 LINE",
"256 399 LINE SMOOTH",
"361 399 OFFCURVE",
"447 313 OFFCURVE",
"447 208 CURVE SMOOTH",
"447 103 OFFCURVE",
"361 17 OFFCURVE",
"256 17 CURVE SMOOTH",
"150 17 OFFCURVE",
"65 103 OFFCURVE",
"65 208 CURVE",
"35 208 LINE",
"35 86 OFFCURVE",
"133 -13 OFFCURVE",
"256 -13 CURVE SMOOTH"
);
}
);
width = 537;
}
);
leftKerningGroup = five;
rightKerningGroup = five;
unicode = 0035;
},
{
glyphname = six;
lastChange = "2020-01-23 02:31:54 +0000";
layers = (
{
layerId = "10BC12B3-5274-42E3-B5BC-F74F362F0DF4";
paths = (
{
closed = 1;
nodes = (
"428 -13 OFFCURVE",
"540 100 OFFCURVE",
"540 237 CURVE SMOOTH",
"540 365 OFFCURVE",
"445 471 OFFCURVE",
"318 486 CURVE",
"442 700 LINE",
"268 700 LINE",
"73 362 LINE SMOOTH",
"50 323 OFFCURVE",
"40 280 OFFCURVE",
"40 237 CURVE SMOOTH",
"40 99 OFFCURVE",
"153 -13 OFFCURVE",
"289 -13 CURVE SMOOTH"
);
},
{
closed = 1;
nodes = (
"238 137 OFFCURVE",
"190 179 OFFCURVE",
"190 236 CURVE SMOOTH",
"190 288 OFFCURVE",
"230 337 OFFCURVE",
"290 337 CURVE SMOOTH",
"347 337 OFFCURVE",
"390 291 OFFCURVE",
"390 236 CURVE SMOOTH",
"390 186 OFFCURVE",
"347 137 OFFCURVE",
"289 137 CURVE SMOOTH"
);
}
);
width = 600;
},
{
layerId = "9AF1F7D9-E035-453E-B2A8-46DE370997D0";
paths = (
{
closed = 1;
nodes = (
"408 -13 OFFCURVE",
"515 94 OFFCURVE",
"515 225 CURVE SMOOTH",
"515 410 OFFCURVE",
"312 522 OFFCURVE",
"156 429 CURVE",
"312 700 LINE",
"277 700 LINE",
"77 352 LINE",
"53 305 OFFCURVE",
"40 280 OFFCURVE",
"40 225 CURVE SMOOTH",
"40 94 OFFCURVE",
"147 -13 OFFCURVE",
"277 -13 CURVE SMOOTH"
);
},
{
closed = 1;
nodes = (
"166 17 OFFCURVE",
"70 108 OFFCURVE",
"70 226 CURVE SMOOTH",
"70 336 OFFCURVE",
"160 432 OFFCURVE",
"278 432 CURVE SMOOTH",
"392 432 OFFCURVE",
"485 340 OFFCURVE",
"485 226 CURVE SMOOTH",
"485 116 OFFCURVE",
"398 17 OFFCURVE",
"277 17 CURVE SMOOTH"
);
}
);
width = 575;
}
);
leftKerningGroup = six;
rightKerningGroup = six;
unicode = 0036;
},
{
glyphname = seven;
lastChange = "2020-01-23 09:03:17 +0000";
layers = (
{
layerId = "10BC12B3-5274-42E3-B5BC-F74F362F0DF4";
paths = (
{
closed = 1;
nodes = (
"250 0 LINE",
"568 550 LINE",
"568 700 LINE",
"50 700 LINE",
"50 550 LINE",
"394 550 LINE",
"77 0 LINE"
);
}
);
width = 598;
},
{
layerId = "9AF1F7D9-E035-453E-B2A8-46DE370997D0";
paths = (
{
closed = 1;
nodes = (
"146 0 LINE",
"533 670 LINE",
"533 700 LINE",
"50 700 LINE",
"50 670 LINE",
"498 670 LINE",
"112 0 LINE"
);
}
);
width = 563;
}
);
leftKerningGroup = seven;
rightKerningGroup = seven;
unicode = 0037;
},
{
glyphname = eight;
lastChange = "2020-01-23 01:24:53 +0000";
layers = (
{
layerId = "10BC12B3-5274-42E3-B5BC-F74F362F0DF4";
paths = (
{
closed = 1;
nodes = (
"409 -13 OFFCURVE",
"515 88 OFFCURVE",
"515 213 CURVE SMOOTH",
"515 271 OFFCURVE",
"492 326 OFFCURVE",
"450 368 CURVE",
"481 405 OFFCURVE",
"500 451 OFFCURVE",
"500 501 CURVE SMOOTH",
"500 618 OFFCURVE",
"400 713 OFFCURVE",
"277 713 CURVE SMOOTH",
"154 713 OFFCURVE",
"54 618 OFFCURVE",
"54 501 CURVE SMOOTH",
"54 451 OFFCURVE",
"73 405 OFFCURVE",
"104 368 CURVE",
"63 326 OFFCURVE",
"40 271 OFFCURVE",
"40 213 CURVE SMOOTH",
"40 87 OFFCURVE",
"145 -13 OFFCURVE",
"277 -13 CURVE SMOOTH"
);
},
{
closed = 1;
nodes = (
"233 137 OFFCURVE",
"197 171 OFFCURVE",
"197 213 CURVE SMOOTH",
"197 255 OFFCURVE",
"233 289 OFFCURVE",
"277 289 CURVE SMOOTH",
"321 289 OFFCURVE",
"357 255 OFFCURVE",
"357 213 CURVE SMOOTH",
"357 171 OFFCURVE",
"321 137 OFFCURVE",
"277 137 CURVE SMOOTH"
);
},
{
closed = 1;
nodes = (
"241 439 OFFCURVE",
"212 467 OFFCURVE",
"212 501 CURVE SMOOTH",
"212 535 OFFCURVE",
"241 563 OFFCURVE",
"277 563 CURVE SMOOTH",
"313 563 OFFCURVE",
"342 535 OFFCURVE",
"342 501 CURVE SMOOTH",
"342 467 OFFCURVE",
"313 439 OFFCURVE",
"277 439 CURVE SMOOTH"
);
}
);
width = 555;
},
{
layerId = "9AF1F7D9-E035-453E-B2A8-46DE370997D0";
paths = (
{
closed = 1;
nodes = (
"375 -13 OFFCURVE",
"472 76 OFFCURVE",
"472 185 CURVE SMOOTH",
"472 268 OFFCURVE",
"416 339 OFFCURVE",
"337 369 CURVE",
"404 397 OFFCURVE",
"453 460 OFFCURVE",
"453 533 CURVE SMOOTH",
"453 632 OFFCURVE",
"364 713 OFFCURVE",
"256 713 CURVE SMOOTH",
"148 713 OFFCURVE",
"59 632 OFFCURVE",
"59 533 CURVE SMOOTH",
"59 460 OFFCURVE",
"108 397 OFFCURVE",
"175 369 CURVE",
"97 339 OFFCURVE",
"40 268 OFFCURVE",
"40 185 CURVE SMOOTH",
"40 76 OFFCURVE",
"137 -13 OFFCURVE",
"256 -13 CURVE SMOOTH"
);
},
{
closed = 1;
nodes = (
"156 17 OFFCURVE",
"73 92 OFFCURVE",
"73 185 CURVE SMOOTH",
"73 278 OFFCURVE",
"156 353 OFFCURVE",
"256 353 CURVE SMOOTH",
"358 353 OFFCURVE",
"439 278 OFFCURVE",
"439 185 CURVE SMOOTH",
"439 92 OFFCURVE",
"358 17 OFFCURVE",
"256 17 CURVE SMOOTH"
);
},
{
closed = 1;
nodes = (
"165 383 OFFCURVE",
"92 450 OFFCURVE",
"92 533 CURVE SMOOTH",
"92 616 OFFCURVE",
"165 683 OFFCURVE",
"256 683 CURVE SMOOTH",
"347 683 OFFCURVE",
"420 616 OFFCURVE",
"420 533 CURVE SMOOTH",
"420 450 OFFCURVE",
"347 383 OFFCURVE",
"256 383 CURVE SMOOTH"
);
}
);
width = 512;
}
);
leftKerningGroup = eight;
rightKerningGroup = eight;
unicode = 0038;
},
{
glyphname = nine;
lastChange = "2020-01-23 01:24:53 +0000";
layers = (
{
layerId = "10BC12B3-5274-42E3-B5BC-F74F362F0DF4";
paths = (
{
closed = 1;
nodes = (
"302 0 LINE",
"497 338 LINE SMOOTH",
"520 377 OFFCURVE",
"530 420 OFFCURVE",
"530 463 CURVE SMOOTH",
"530 601 OFFCURVE",
"417 713 OFFCURVE",
"281 713 CURVE SMOOTH",
"142 713 OFFCURVE",
"30 600 OFFCURVE",
"30 463 CURVE SMOOTH",
"30 335 OFFCURVE",
"125 229 OFFCURVE",
"252 214 CURVE",
"128 0 LINE"
);
},
{
closed = 1;
nodes = (
"223 363 OFFCURVE",
"180 409 OFFCURVE",
"180 464 CURVE SMOOTH",
"180 514 OFFCURVE",
"223 563 OFFCURVE",
"281 563 CURVE SMOOTH",
"332 563 OFFCURVE",
"380 521 OFFCURVE",
"380 464 CURVE SMOOTH",
"380 412 OFFCURVE",
"340 363 OFFCURVE",
"280 363 CURVE SMOOTH"
);
}
);
width = 580;
},
{
layerId = "9AF1F7D9-E035-453E-B2A8-46DE370997D0";
paths = (
{
closed = 1;
nodes = (
"234 0 LINE",
"444 367 LINE",
"467 412 OFFCURVE",
"480 435 OFFCURVE",
"480 487 CURVE SMOOTH",
"480 611 OFFCURVE",
"378 713 OFFCURVE",
"255 713 CURVE SMOOTH",
"131 713 OFFCURVE",
"30 611 OFFCURVE",
"30 487 CURVE SMOOTH",
"30 312 OFFCURVE",
"222 206 OFFCURVE",
"370 294 CURVE",
"200 0 LINE"
);
},
{
closed = 1;
nodes = (
"146 291 OFFCURVE",
"58 378 OFFCURVE",
"58 486 CURVE SMOOTH",
"58 591 OFFCURVE",
"140 684 OFFCURVE",
"255 684 CURVE SMOOTH",
"360 684 OFFCURVE",
"451 598 OFFCURVE",
"451 486 CURVE SMOOTH",
"451 382 OFFCURVE",
"366 291 OFFCURVE",
"254 291 CURVE SMOOTH"
);
}
);
width = 530;
}
);
leftKerningGroup = nine;
rightKerningGroup = nine;
unicode = 0039;
},
{
glyphname = zero.dnom;
lastChange = "2020-01-23 05:33:21 +0000";
layers = (
{
layerId = "10BC12B3-5274-42E3-B5BC-F74F362F0DF4";
paths = (
{
closed = 1;
nodes = (
"193 -13 OFFCURVE",
"240 52 OFFCURVE",
"240 132 CURVE",
"240 211 OFFCURVE",
"193 276 OFFCURVE",
"135 276 CURVE",
"77 276 OFFCURVE",
"30 211 OFFCURVE",
"30 132 CURVE",
"30 52 OFFCURVE",
"77 -13 OFFCURVE",
"135 -13 CURVE"
);
},
{
closed = 1;
nodes = (
"112 57 OFFCURVE",
"100 99 OFFCURVE",
"100 132 CURVE",
"100 161 OFFCURVE",
"110 206 OFFCURVE",
"135 206 CURVE",
"157 206 OFFCURVE",
"170 163 OFFCURVE",
"170 132 CURVE",
"170 105 OFFCURVE",
"158 57 OFFCURVE",
"135 57 CURVE"
);
}
);
width = 270;
},
{
layerId = "9AF1F7D9-E035-453E-B2A8-46DE370997D0";
paths = (
{
closed = 1;
nodes = (
"193 -13 OFFCURVE",
"240 46 OFFCURVE",
"240 126 CURVE",
"240 206 OFFCURVE",
"193 266 OFFCURVE",
"135 266 CURVE",
"77 266 OFFCURVE",
"30 206 OFFCURVE",
"30 126 CURVE",
"30 46 OFFCURVE",
"77 -13 OFFCURVE",
"135 -13 CURVE"
);
},
{
closed = 1;
nodes = (
"91 17 OFFCURVE",
"60 70 OFFCURVE",
"60 126 CURVE",
"60 180 OFFCURVE",
"89 236 OFFCURVE",
"135 236 CURVE",
"179 236 OFFCURVE",
"210 183 OFFCURVE",
"210 126 CURVE",
"210 73 OFFCURVE",
"181 17 OFFCURVE",
"135 17 CURVE"
);
}
);
width = 270;
}
);
leftKerningGroup = zero.dnom;
rightKerningGroup = zero.dnom;
},
{
glyphname = one.dnom;
lastChange = "2020-01-23 01:24:53 +0000";
layers = (
{
layerId = "10BC12B3-5274-42E3-B5BC-F74F362F0DF4";
paths = (
{
closed = 1;
nodes = (
"134 0 LINE",
"134 263 LINE",
"50 263 LINE",
"40 193 LINE",
"64 193 LINE",
"64 0 LINE"
);
}
);
width = 194;
},
{
layerId = "9AF1F7D9-E035-453E-B2A8-46DE370997D0";
paths = (
{
closed = 1;
nodes = (
"107 0 LINE",
"107 263 LINE",
"44 263 LINE",
"40 233 LINE",
"77 233 LINE",
"77 0 LINE"
);
}
);
width = 167;
}
);
leftKerningGroup = one.dnom;
rightKerningGroup = one.dnom;
},
{
glyphname = two.dnom;
lastChange = "2020-01-23 01:24:53 +0000";
layers = (
{
layerId = "10BC12B3-5274-42E3-B5BC-F74F362F0DF4";
paths = (
{
closed = 1;
nodes = (
"238 0 LINE",
"238 70 LINE",
"168 70 LINE",
"204 102 OFFCURVE",
"243 131 OFFCURVE",
"243 174 CURVE",
"243 230 OFFCURVE",
"198 276 OFFCURVE",
"142 276 CURVE",
"86 276 OFFCURVE",
"40 230 OFFCURVE",
"40 174 CURVE",
"110 174 LINE",
"110 192 OFFCURVE",
"124 206 OFFCURVE",
"142 206 CURVE",
"159 206 OFFCURVE",
"173 192 OFFCURVE",
"173 174 CURVE",
"143 117 OFFCURVE",
"88 94 OFFCURVE",
"40 61 CURVE",
"40 0 LINE"
);
}
);
width = 303;
},
{
layerId = "9AF1F7D9-E035-453E-B2A8-46DE370997D0";
paths = (
{
closed = 1;
nodes = (
"219 0 LINE",
"219 30 LINE",
"91 30 LINE",
"142 65 OFFCURVE",
"219 136 OFFCURVE",
"219 186 CURVE SMOOTH",
"219 235 OFFCURVE",
"179 271 OFFCURVE",
"130 271 CURVE SMOOTH",
"80 271 OFFCURVE",
"40 235 OFFCURVE",
"40 186 CURVE",
"70 186 LINE",
"70 219 OFFCURVE",
"97 241 OFFCURVE",
"130 241 CURVE SMOOTH",
"163 241 OFFCURVE",
"189 219 OFFCURVE",
"189 186 CURVE SMOOTH",
"189 138 OFFCURVE",
"81 58 OFFCURVE",
"40 31 CURVE",
"40 0 LINE"
);
}
);
width = 279;
}
);
leftKerningGroup = two.dnom;
rightKerningGroup = two.dnom;
},
{
glyphname = three.dnom;
lastChange = "2020-01-23 05:33:36 +0000";
layers = (
{
layerId = "10BC12B3-5274-42E3-B5BC-F74F362F0DF4";
paths = (
{
closed = 1;
nodes = (
"173 -13 OFFCURVE",
"215 29 OFFCURVE",
"215 80 CURVE SMOOTH",
"215 101 OFFCURVE",
"208 123 OFFCURVE",
"193 139 CURVE",
"203 154 OFFCURVE",
"208 171 OFFCURVE",
"208 189 CURVE SMOOTH",
"208 237 OFFCURVE",
"169 276 OFFCURVE",
"121 276 CURVE SMOOTH",
"73 276 OFFCURVE",
"34 237 OFFCURVE",
"34 189 CURVE",
"104 189 LINE",
"104 198 OFFCURVE",
"112 206 OFFCURVE",
"121 206 CURVE SMOOTH",
"130 206 OFFCURVE",
"138 198 OFFCURVE",
"138 189 CURVE SMOOTH",
"138 177 OFFCURVE",
"131 159 OFFCURVE",
"99 159 CURVE",
"99 115 LINE",
"130 115 OFFCURVE",
"145 96 OFFCURVE",
"145 80 CURVE SMOOTH",
"145 67 OFFCURVE",
"135 57 OFFCURVE",
"123 57 CURVE SMOOTH",
"110 57 OFFCURVE",
"100 67 OFFCURVE",
"100 80 CURVE",
"30 80 LINE",
"30 29 OFFCURVE",
"72 -13 OFFCURVE",
"123 -13 CURVE SMOOTH"
);
}
);
width = 245;
},
{
layerId = "9AF1F7D9-E035-453E-B2A8-46DE370997D0";
paths = (
{
closed = 1;
nodes = (
"158 -13 OFFCURVE",
"195 19 OFFCURVE",
"195 65 CURVE SMOOTH",
"195 99 OFFCURVE",
"182 115 OFFCURVE",
"157 134 CURVE",
"173 142 OFFCURVE",
"187 168 OFFCURVE",
"187 194 CURVE SMOOTH",
"187 236 OFFCURVE",
"153 265 OFFCURVE",
"111 265 CURVE SMOOTH",
"69 265 OFFCURVE",
"35 236 OFFCURVE",
"35 194 CURVE",
"65 194 LINE",
"65 219 OFFCURVE",
"86 235 OFFCURVE",
"111 235 CURVE SMOOTH",
"136 235 OFFCURVE",
"157 219 OFFCURVE",
"157 194 CURVE SMOOTH",
"157 164 OFFCURVE",
"135 148 OFFCURVE",
"97 148 CURVE",
"97 118 LINE",
"140 118 OFFCURVE",
"165 98 OFFCURVE",
"165 65 CURVE SMOOTH",
"165 36 OFFCURVE",
"142 17 OFFCURVE",
"113 17 CURVE SMOOTH",
"83 17 OFFCURVE",
"60 36 OFFCURVE",
"60 65 CURVE",
"30 65 LINE",
"30 19 OFFCURVE",
"67 -13 OFFCURVE",
"113 -13 CURVE SMOOTH"
);
}
);
width = 225;
}
);
leftKerningGroup = three.dnom;
rightKerningGroup = three.dnom;
},
{
glyphname = four.dnom;
lastChange = "2020-01-23 05:34:42 +0000";
layers = (
{
layerId = "10BC12B3-5274-42E3-B5BC-F74F362F0DF4";
paths = (
{
closed = 1;
nodes = (
"208 0 LINE",
"208 36 LINE",
"230 36 LINE",
"230 106 LINE",
"208 106 LINE",
"208 263 LINE",
"131 263 LINE",
"40 120 LINE",
"40 36 LINE",
"138 36 LINE",
"138 0 LINE"
);
},
{
closed = 1;
nodes = (
"145 165 LINE",
"145 106 LINE",
"108 106 LINE"
);
}
);
width = 290;
},
{
layerId = "9AF1F7D9-E035-453E-B2A8-46DE370997D0";
paths = (
{
closed = 1;
nodes = (
"188 0 LINE",
"188 58 LINE",
"221 58 LINE",
"221 88 LINE",
"188 88 LINE",
"188 263 LINE",
"147 263 LINE",
"40 94 LINE",
"40 58 LINE",
"158 58 LINE",
"158 0 LINE"
);
},
{
closed = 1;
nodes = (
"158 223 LINE",
"158 88 LINE",
"72 88 LINE"
);
}
);
width = 281;
}
);
leftKerningGroup = four.dnom;
rightKerningGroup = four.dnom;
},
{
glyphname = five.dnom;
lastChange = "2020-01-23 01:24:53 +0000";
layers = (
{
layerId = "10BC12B3-5274-42E3-B5BC-F74F362F0DF4";
paths = (
{
closed = 1;
nodes = (
"189 -13 OFFCURVE",
"234 31 OFFCURVE",
"234 86 CURVE",
"234 142 OFFCURVE",
"201 185 OFFCURVE",
"136 185 CURVE",
"126 185 LINE",
"126 202 LINE",
"204 202 LINE",
"204 263 LINE",
"62 263 LINE",
"47 115 LINE",
"134 115 LINE",
"151 115 OFFCURVE",
"164 102 OFFCURVE",
"164 86 CURVE",
"164 70 OFFCURVE",
"151 57 OFFCURVE",
"134 57 CURVE",
"118 57 OFFCURVE",
"105 70 OFFCURVE",
"105 86 CURVE",
"35 86 LINE",
"35 31 OFFCURVE",
"80 -13 OFFCURVE",
"134 -13 CURVE"
);
}
);
width = 294;
},
{
layerId = "9AF1F7D9-E035-453E-B2A8-46DE370997D0";
paths = (
{
closed = 1;
nodes = (
"178 -13 OFFCURVE",
"219 23 OFFCURVE",
"219 74 CURVE",
"219 124 OFFCURVE",
"178 165 OFFCURVE",
"127 165 CURVE",
"87 162 LINE",
"92 227 LINE",
"210 227 LINE",
"210 257 LINE",
"65 257 LINE",
"53 121 LINE",
"127 135 LINE",
"161 135 OFFCURVE",
"189 108 OFFCURVE",
"189 74 CURVE",
"189 40 OFFCURVE",
"161 17 OFFCURVE",
"127 17 CURVE",
"93 17 OFFCURVE",
"65 40 OFFCURVE",
"65 74 CURVE SMOOTH",
"35 74 LINE SMOOTH",
"35 23 OFFCURVE",
"76 -13 OFFCURVE",
"127 -13 CURVE"
);
}
);
width = 279;
}
);
leftKerningGroup = five.dnom;
rightKerningGroup = five.dnom;
},
{
glyphname = six.dnom;
lastChange = "2020-01-23 01:24:53 +0000";
layers = (
{
layerId = "10BC12B3-5274-42E3-B5BC-F74F362F0DF4";
paths = (
{
closed = 1;
nodes = (
"190 -13 OFFCURVE",
"234 29 OFFCURVE",
"234 83 CURVE SMOOTH",
"234 127 OFFCURVE",
"209 162 OFFCURVE",
"160 178 CURVE",
"209 262 LINE",
"128 262 LINE",
"47 122 OFFCURVE",
"40 114 OFFCURVE",
"40 84 CURVE SMOOTH",
"40 29 OFFCURVE",
"83 -13 OFFCURVE",
"137 -13 CURVE SMOOTH"
);
},
{
closed = 1;
nodes = (
"127 57 OFFCURVE",
"114 61 OFFCURVE",
"111 77 CURVE SMOOTH",
"108 91 OFFCURVE",
"116 110 OFFCURVE",
"137 110 CURVE SMOOTH",
"150 110 OFFCURVE",
"160 102 OFFCURVE",
"163 90 CURVE SMOOTH",
"167 73 OFFCURVE",
"154 57 OFFCURVE",
"137 57 CURVE SMOOTH"
);
}
);
width = 284;
},
{
layerId = "9AF1F7D9-E035-453E-B2A8-46DE370997D0";
paths = (
{
closed = 1;
nodes = (
"188 -13 OFFCURVE",
"234 22 OFFCURVE",
"234 79 CURVE",
"234 138 OFFCURVE",
"177 189 OFFCURVE",
"114 173 CURVE SMOOTH",
"163 258 LINE",
"128 258 LINE SMOOTH",
"56 136 OFFCURVE",
"40 112 OFFCURVE",
"40 79 CURVE",
"40 28 OFFCURVE",
"80 -13 OFFCURVE",
"137 -13 CURVE"
);
},
{
closed = 1;
nodes = (
"100 17 OFFCURVE",
"70 42 OFFCURVE",
"70 78 CURVE",
"70 116 OFFCURVE",
"100 146 OFFCURVE",
"137 146 CURVE",
"170 146 OFFCURVE",
"204 120 OFFCURVE",
"204 79 CURVE",
"204 42 OFFCURVE",
"174 17 OFFCURVE",
"137 17 CURVE"
);
}
);
width = 284;
}
);
leftKerningGroup = six.dnom;
rightKerningGroup = six.dnom;
},
{
glyphname = seven.dnom;
lastChange = "2020-01-23 09:52:41 +0000";
layers = (
{
layerId = "10BC12B3-5274-42E3-B5BC-F74F362F0DF4";
paths = (
{
closed = 1;
nodes = (
"145 0 LINE",
"256 193 LINE",
"256 261 LINE",
"50 261 LINE",
"50 191 LINE",
"175 191 LINE",
"65 0 LINE"
);
}
);
width = 286;
},
{
layerId = "9AF1F7D9-E035-453E-B2A8-46DE370997D0";
paths = (
{
closed = 1;
nodes = (
"103 0 LINE",
"225 212 LINE",
"225 242 LINE",
"50 242 LINE",
"50 212 LINE",
"190 212 LINE",
"68 0 LINE"
);
}
);
width = 255;
}
);
leftKerningGroup = seven.dnom;
rightKerningGroup = seven.dnom;
},
{
glyphname = eight.dnom;
lastChange = "2020-01-23 01:24:53 +0000";
layers = (
{
layerId = "10BC12B3-5274-42E3-B5BC-F74F362F0DF4";
paths = (
{
closed = 1;
nodes = (
"184 -13 OFFCURVE",
"225 27 OFFCURVE",
"225 78 CURVE SMOOTH",
"225 101 OFFCURVE",
"217 122 OFFCURVE",
"204 138 CURVE",
"214 152 OFFCURVE",
"220 170 OFFCURVE",
"220 188 CURVE SMOOTH",
"220 237 OFFCURVE",
"180 276 OFFCURVE",
"132 276 CURVE SMOOTH",
"84 276 OFFCURVE",
"45 237 OFFCURVE",
"45 188 CURVE SMOOTH",
"45 170 OFFCURVE",
"51 152 OFFCURVE",
"61 138 CURVE",
"48 122 OFFCURVE",
"40 101 OFFCURVE",
"40 78 CURVE SMOOTH",
"40 27 OFFCURVE",
"81 -13 OFFCURVE",
"132 -13 CURVE SMOOTH"
);
},
{
closed = 1;
nodes = (
"120 56 OFFCURVE",
"110 66 OFFCURVE",
"110 78 CURVE SMOOTH",
"110 91 OFFCURVE",
"120 101 OFFCURVE",
"132 101 CURVE SMOOTH",
"145 101 OFFCURVE",
"155 91 OFFCURVE",
"155 78 CURVE SMOOTH",
"155 66 OFFCURVE",
"145 56 OFFCURVE",
"132 56 CURVE SMOOTH"
);
},
{
closed = 1;
nodes = (
"123 171 OFFCURVE",
"115 179 OFFCURVE",
"115 188 CURVE SMOOTH",
"115 198 OFFCURVE",
"123 206 OFFCURVE",
"132 206 CURVE SMOOTH",
"142 206 OFFCURVE",
"150 198 OFFCURVE",
"150 188 CURVE SMOOTH",
"150 179 OFFCURVE",
"142 171 OFFCURVE",
"132 171 CURVE SMOOTH"
);
}
);
width = 265;
},
{
layerId = "9AF1F7D9-E035-453E-B2A8-46DE370997D0";
paths = (
{
closed = 1;
nodes = (
"169 -13 OFFCURVE",
"207 19 OFFCURVE",
"207 65 CURVE SMOOTH",
"207 94 OFFCURVE",
"192 119 OFFCURVE",
"170 134 CURVE",
"188 148 OFFCURVE",
"200 170 OFFCURVE",
"200 194 CURVE SMOOTH",
"200 237 OFFCURVE",
"166 266 OFFCURVE",
"123 266 CURVE SMOOTH",
"81 266 OFFCURVE",
"47 237 OFFCURVE",
"47 194 CURVE SMOOTH",
"47 170 OFFCURVE",
"59 148 OFFCURVE",
"77 134 CURVE",
"55 119 OFFCURVE",
"40 94 OFFCURVE",
"40 65 CURVE SMOOTH",
"40 19 OFFCURVE",
"78 -13 OFFCURVE",
"123 -13 CURVE SMOOTH"
);
},
{
closed = 1;
nodes = (
"94 17 OFFCURVE",
"70 36 OFFCURVE",
"70 65 CURVE SMOOTH",
"70 94 OFFCURVE",
"94 118 OFFCURVE",
"123 118 CURVE SMOOTH",
"153 118 OFFCURVE",
"177 94 OFFCURVE",
"177 65 CURVE SMOOTH",
"177 36 OFFCURVE",
"153 17 OFFCURVE",
"123 17 CURVE SMOOTH"
);
},
{
closed = 1;
nodes = (
"98 148 OFFCURVE",
"77 169 OFFCURVE",
"77 194 CURVE SMOOTH",
"77 220 OFFCURVE",
"98 236 OFFCURVE",
"123 236 CURVE SMOOTH",
"149 236 OFFCURVE",
"170 220 OFFCURVE",
"170 194 CURVE SMOOTH",
"170 169 OFFCURVE",
"149 148 OFFCURVE",
"123 148 CURVE SMOOTH"
);
}
);
width = 247;
}
);
leftKerningGroup = eight.dnom;
rightKerningGroup = eight.dnom;
},
{
glyphname = nine.dnom;
lastChange = "2020-01-23 01:24:53 +0000";
layers = (
{
layerId = "10BC12B3-5274-42E3-B5BC-F74F362F0DF4";
paths = (
{
closed = 1;
nodes = (
"135 0 LINE",
"211 131 LINE",
"220 147 OFFCURVE",
"224 163 OFFCURVE",
"224 179 CURVE SMOOTH",
"224 230 OFFCURVE",
"183 276 OFFCURVE",
"127 276 CURVE SMOOTH",
"73 276 OFFCURVE",
"30 232 OFFCURVE",
"30 179 CURVE SMOOTH",
"30 137 OFFCURVE",
"57 96 OFFCURVE",
"103 85 CURVE",
"54 0 LINE"
);
},
{
closed = 1;
nodes = (
"117 152 OFFCURVE",
"100 158 OFFCURVE",
"100 178 CURVE SMOOTH",
"100 191 OFFCURVE",
"109 206 OFFCURVE",
"127 206 CURVE SMOOTH",
"140 206 OFFCURVE",
"154 193 OFFCURVE",
"154 180 CURVE SMOOTH",
"154 165 OFFCURVE",
"142 152 OFFCURVE",
"127 152 CURVE SMOOTH"
);
}
);
width = 274;
},
{
layerId = "9AF1F7D9-E035-453E-B2A8-46DE370997D0";
paths = (
{
closed = 1;
nodes = (
"135 0 LINE",
"209 127 LINE",
"209 128 OFFCURVE",
"210 129 OFFCURVE",
"211 131 CURVE SMOOTH",
"249 195 OFFCURVE",
"201 271 OFFCURVE",
"127 271 CURVE SMOOTH",
"94 271 OFFCURVE",
"61 259 OFFCURVE",
"43 227 CURVE SMOOTH",
"0 154 OFFCURVE",
"67 64 OFFCURVE",
"150 85 CURVE",
"101 0 LINE"
);
},
{
closed = 1;
nodes = (
"100 112 OFFCURVE",
"71 130 OFFCURVE",
"62 162 CURVE SMOOTH",
"52 205 OFFCURVE",
"84 241 OFFCURVE",
"127 241 CURVE SMOOTH",
"154 241 OFFCURVE",
"183 228 OFFCURVE",
"192 196 CURVE SMOOTH",
"202 152 OFFCURVE",
"170 112 OFFCURVE",
"127 112 CURVE SMOOTH"
);
}
);
width = 274;
}
);
leftKerningGroup = nine.dnom;
rightKerningGroup = nine.dnom;
},
{
glyphname = zero.numr;
lastChange = "2020-01-23 01:24:53 +0000";
layers = (
{
layerId = "10BC12B3-5274-42E3-B5BC-F74F362F0DF4";
paths = (
{
closed = 1;
nodes = (
"193 416 OFFCURVE",
"240 476 OFFCURVE",
"240 556 CURVE",
"240 635 OFFCURVE",
"193 695 OFFCURVE",
"135 695 CURVE",
"77 695 OFFCURVE",
"30 635 OFFCURVE",
"30 556 CURVE",
"30 476 OFFCURVE",
"77 416 OFFCURVE",
"135 416 CURVE"
);
},
{
closed = 1;
nodes = (
"112 481 OFFCURVE",
"100 523 OFFCURVE",
"100 556 CURVE",
"100 585 OFFCURVE",
"110 630 OFFCURVE",
"135 630 CURVE",
"157 630 OFFCURVE",
"170 587 OFFCURVE",
"170 556 CURVE",
"170 529 OFFCURVE",
"158 481 OFFCURVE",
"135 481 CURVE"
);
}
);
width = 270;
},
{
layerId = "9AF1F7D9-E035-453E-B2A8-46DE370997D0";
paths = (
{
closed = 1;
nodes = (
"193 416 OFFCURVE",
"240 475 OFFCURVE",
"240 555 CURVE SMOOTH",
"240 635 OFFCURVE",
"193 695 OFFCURVE",
"135 695 CURVE SMOOTH",
"77 695 OFFCURVE",
"30 635 OFFCURVE",
"30 555 CURVE SMOOTH",
"30 475 OFFCURVE",
"77 416 OFFCURVE",
"135 416 CURVE SMOOTH"
);
},
{
closed = 1;
nodes = (
"91 446 OFFCURVE",
"60 499 OFFCURVE",
"60 555 CURVE SMOOTH",
"60 609 OFFCURVE",
"89 665 OFFCURVE",
"135 665 CURVE SMOOTH",
"179 665 OFFCURVE",
"210 612 OFFCURVE",
"210 555 CURVE SMOOTH",
"210 502 OFFCURVE",
"181 446 OFFCURVE",
"135 446 CURVE SMOOTH"
);
}
);
width = 270;
}
);
leftKerningGroup = zero.numr;
rightKerningGroup = zero.numr;
},
{
glyphname = one.numr;
lastChange = "2020-01-23 01:24:53 +0000";
layers = (
{
layerId = "10BC12B3-5274-42E3-B5BC-F74F362F0DF4";
paths = (
{
closed = 1;
nodes = (
"134 424 LINE",
"134 687 LINE",
"50 687 LINE",
"40 617 LINE",
"64 617 LINE",
"64 424 LINE"
);
}
);
width = 194;
},
{
layerId = "9AF1F7D9-E035-453E-B2A8-46DE370997D0";
paths = (
{
closed = 1;
nodes = (
"107 424 LINE",
"107 687 LINE",
"44 687 LINE",
"40 657 LINE",
"77 657 LINE",
"77 424 LINE"
);
}
);
width = 167;
}
);
leftKerningGroup = one.numr;
rightKerningGroup = one.numr;
},
{
glyphname = two.numr;
lastChange = "2020-01-23 01:24:53 +0000";
layers = (
{
layerId = "10BC12B3-5274-42E3-B5BC-F74F362F0DF4";
paths = (
{
closed = 1;
nodes = (
"238 424 LINE",
"238 494 LINE",
"168 494 LINE",
"204 526 OFFCURVE",
"243 555 OFFCURVE",
"243 598 CURVE",
"243 654 OFFCURVE",
"198 695 OFFCURVE",
"142 695 CURVE",
"86 695 OFFCURVE",
"40 654 OFFCURVE",
"40 598 CURVE",
"110 598 LINE",
"110 616 OFFCURVE",
"124 630 OFFCURVE",
"142 630 CURVE",
"159 630 OFFCURVE",
"173 616 OFFCURVE",
"173 598 CURVE",
"143 541 OFFCURVE",
"88 518 OFFCURVE",
"40 485 CURVE",
"40 424 LINE"
);
}
);
width = 303;
},
{
layerId = "9AF1F7D9-E035-453E-B2A8-46DE370997D0";
paths = (
{
closed = 1;
nodes = (
"219 424 LINE",
"219 454 LINE",
"91 454 LINE",
"142 489 OFFCURVE",
"219 560 OFFCURVE",
"219 610 CURVE SMOOTH",
"219 659 OFFCURVE",
"179 695 OFFCURVE",
"130 695 CURVE SMOOTH",
"80 695 OFFCURVE",
"40 659 OFFCURVE",
"40 610 CURVE",
"70 610 LINE",
"70 643 OFFCURVE",
"97 665 OFFCURVE",
"130 665 CURVE SMOOTH",
"163 665 OFFCURVE",
"189 643 OFFCURVE",
"189 610 CURVE SMOOTH",
"189 562 OFFCURVE",
"81 482 OFFCURVE",
"40 455 CURVE",
"40 424 LINE"
);
}
);
width = 279;
}
);
leftKerningGroup = two.numr;
rightKerningGroup = two.numr;
},
{
glyphname = three.numr;
lastChange = "2020-01-23 01:24:53 +0000";
layers = (
{
layerId = "10BC12B3-5274-42E3-B5BC-F74F362F0DF4";
paths = (
{
closed = 1;
nodes = (
"173 416 OFFCURVE",
"215 453 OFFCURVE",
"215 504 CURVE SMOOTH",
"215 525 OFFCURVE",
"208 547 OFFCURVE",
"193 563 CURVE",
"203 578 OFFCURVE",
"208 595 OFFCURVE",
"208 613 CURVE SMOOTH",
"208 661 OFFCURVE",
"169 695 OFFCURVE",
"121 695 CURVE SMOOTH",
"73 695 OFFCURVE",
"34 661 OFFCURVE",
"34 613 CURVE",
"104 613 LINE",
"104 622 OFFCURVE",
"112 630 OFFCURVE",
"121 630 CURVE SMOOTH",
"130 630 OFFCURVE",
"138 622 OFFCURVE",
"138 613 CURVE SMOOTH",
"138 601 OFFCURVE",
"131 583 OFFCURVE",
"99 583 CURVE",
"99 539 LINE",
"130 539 OFFCURVE",
"145 520 OFFCURVE",
"145 504 CURVE SMOOTH",
"145 491 OFFCURVE",
"135 481 OFFCURVE",
"123 481 CURVE SMOOTH",
"110 481 OFFCURVE",
"100 491 OFFCURVE",
"100 504 CURVE",
"30 504 LINE",
"30 453 OFFCURVE",
"72 416 OFFCURVE",
"123 416 CURVE SMOOTH"
);
}
);
width = 245;
},
{
layerId = "9AF1F7D9-E035-453E-B2A8-46DE370997D0";
paths = (
{
closed = 1;
nodes = (
"158 416 OFFCURVE",
"195 448 OFFCURVE",
"195 494 CURVE",
"195 528 OFFCURVE",
"182 544 OFFCURVE",
"157 563 CURVE",
"173 571 OFFCURVE",
"187 597 OFFCURVE",
"187 623 CURVE",
"187 665 OFFCURVE",
"153 694 OFFCURVE",
"111 694 CURVE",
"69 694 OFFCURVE",
"35 665 OFFCURVE",
"35 623 CURVE",
"65 623 LINE",
"65 648 OFFCURVE",
"86 664 OFFCURVE",
"111 664 CURVE",
"136 664 OFFCURVE",
"157 648 OFFCURVE",
"157 623 CURVE",
"157 593 OFFCURVE",
"135 577 OFFCURVE",
"97 577 CURVE",
"97 547 LINE",
"140 547 OFFCURVE",
"165 527 OFFCURVE",
"165 494 CURVE",
"165 465 OFFCURVE",
"142 446 OFFCURVE",
"113 446 CURVE",
"83 446 OFFCURVE",
"60 465 OFFCURVE",
"60 494 CURVE",
"30 494 LINE",
"30 448 OFFCURVE",
"67 416 OFFCURVE",
"113 416 CURVE"
);
}
);
width = 225;
}
);
leftKerningGroup = three.numr;
rightKerningGroup = three.numr;
},
{
glyphname = four.numr;
lastChange = "2020-01-23 09:04:26 +0000";
layers = (
{
layerId = "10BC12B3-5274-42E3-B5BC-F74F362F0DF4";
paths = (
{
closed = 1;
nodes = (
"208 424 LINE",
"208 460 LINE",
"230 460 LINE",
"230 530 LINE",
"208 530 LINE",
"208 687 LINE",
"131 687 LINE",
"40 544 LINE",
"40 460 LINE",
"138 460 LINE",
"138 424 LINE"
);
},
{
closed = 1;
nodes = (
"145 589 LINE",
"145 530 LINE",
"108 530 LINE"
);
}
);
width = 290;
},
{
layerId = "9AF1F7D9-E035-453E-B2A8-46DE370997D0";
paths = (
{
closed = 1;
nodes = (
"188 424 LINE",
"188 482 LINE",
"221 482 LINE",
"221 512 LINE",
"188 512 LINE",
"188 687 LINE",
"147 687 LINE",
"40 518 LINE",
"40 482 LINE",
"158 482 LINE",
"158 424 LINE"
);
},
{
closed = 1;
nodes = (
"158 647 LINE",
"158 512 LINE",
"72 512 LINE"
);
}
);
width = 281;
}
);
leftKerningGroup = four.numr;
rightKerningGroup = four.numr;
},
{
glyphname = five.numr;
lastChange = "2020-01-23 01:24:53 +0000";
layers = (
{
layerId = "10BC12B3-5274-42E3-B5BC-F74F362F0DF4";
paths = (
{
closed = 1;
nodes = (
"189 416 OFFCURVE",
"234 455 OFFCURVE",
"234 510 CURVE",
"234 565 OFFCURVE",
"189 609 OFFCURVE",
"134 609 CURVE",
"134 609 OFFCURVE",
"129 609 OFFCURVE",
"126 609 CURVE",
"126 626 LINE",
"204 626 LINE",
"204 686 LINE",
"62 686 LINE",
"48 536 LINE",
"75 539 OFFCURVE",
"120 541 OFFCURVE",
"134 539 CURVE SMOOTH",
"151 537 OFFCURVE",
"164 526 OFFCURVE",
"164 510 CURVE",
"164 494 OFFCURVE",
"151 481 OFFCURVE",
"134 481 CURVE",
"118 481 OFFCURVE",
"105 494 OFFCURVE",
"105 510 CURVE",
"35 510 LINE",
"35 455 OFFCURVE",
"80 416 OFFCURVE",
"134 416 CURVE"
);
}
);
width = 294;
},
{
layerId = "9AF1F7D9-E035-453E-B2A8-46DE370997D0";
paths = (
{
closed = 1;
nodes = (
"178 416 OFFCURVE",
"219 452 OFFCURVE",
"219 503 CURVE SMOOTH",
"219 553 OFFCURVE",
"178 594 OFFCURVE",
"127 594 CURVE SMOOTH",
"113 594 OFFCURVE",
"100 593 OFFCURVE",
"87 591 CURVE",
"92 656 LINE",
"210 656 LINE",
"210 686 LINE",
"65 686 LINE",
"53 550 LINE",
"87 561 OFFCURVE",
"97 564 OFFCURVE",
"127 564 CURVE SMOOTH",
"161 564 OFFCURVE",
"189 537 OFFCURVE",
"189 503 CURVE SMOOTH",
"189 469 OFFCURVE",
"161 446 OFFCURVE",
"127 446 CURVE SMOOTH",
"93 446 OFFCURVE",
"65 469 OFFCURVE",
"65 503 CURVE",
"35 503 LINE",
"35 452 OFFCURVE",
"76 416 OFFCURVE",
"127 416 CURVE SMOOTH"
);
}
);
width = 279;
}
);
leftKerningGroup = five.numr;
rightKerningGroup = five.numr;
},
{
glyphname = six.numr;
lastChange = "2020-01-23 01:24:53 +0000";
layers = (
{
layerId = "10BC12B3-5274-42E3-B5BC-F74F362F0DF4";
paths = (
{
closed = 1;
nodes = (
"190 416 OFFCURVE",
"234 453 OFFCURVE",
"234 507 CURVE SMOOTH",
"234 551 OFFCURVE",
"209 586 OFFCURVE",
"160 602 CURVE",
"209 686 LINE",
"128 686 LINE",
"47 546 OFFCURVE",
"40 538 OFFCURVE",
"40 508 CURVE SMOOTH",
"40 453 OFFCURVE",
"83 416 OFFCURVE",
"137 416 CURVE SMOOTH"
);
},
{
closed = 1;
nodes = (
"127 481 OFFCURVE",
"114 485 OFFCURVE",
"111 501 CURVE SMOOTH",
"107 515 OFFCURVE",
"116 534 OFFCURVE",
"137 534 CURVE SMOOTH",
"150 534 OFFCURVE",
"160 526 OFFCURVE",
"163 514 CURVE SMOOTH",
"167 497 OFFCURVE",
"154 481 OFFCURVE",
"137 481 CURVE SMOOTH"
);
}
);
width = 294;
},
{
layerId = "9AF1F7D9-E035-453E-B2A8-46DE370997D0";
paths = (
{
closed = 1;
nodes = (
"188 416 OFFCURVE",
"234 451 OFFCURVE",
"234 508 CURVE SMOOTH",
"234 567 OFFCURVE",
"177 618 OFFCURVE",
"114 602 CURVE",
"163 687 LINE",
"128 687 LINE",
"56 565 OFFCURVE",
"40 541 OFFCURVE",
"40 508 CURVE SMOOTH",
"40 457 OFFCURVE",
"80 416 OFFCURVE",
"137 416 CURVE SMOOTH"
);
},
{
closed = 1;
nodes = (
"100 446 OFFCURVE",
"70 471 OFFCURVE",
"70 507 CURVE SMOOTH",
"70 545 OFFCURVE",
"100 575 OFFCURVE",
"137 575 CURVE SMOOTH",
"170 575 OFFCURVE",
"204 549 OFFCURVE",
"204 508 CURVE SMOOTH",
"204 471 OFFCURVE",
"174 446 OFFCURVE",
"137 446 CURVE SMOOTH"
);
}
);
width = 294;
}
);
leftKerningGroup = six.numr;
rightKerningGroup = six.numr;
},
{
glyphname = seven.numr;
lastChange = "2020-01-23 09:52:28 +0000";
layers = (
{
layerId = "10BC12B3-5274-42E3-B5BC-F74F362F0DF4";
paths = (
{
closed = 1;
nodes = (
"145 424 LINE",
"256 617 LINE",
"256 685 LINE",
"50 685 LINE",
"50 615 LINE",
"175 615 LINE",
"65 424 LINE"
);
}
);
width = 286;
},
{
layerId = "9AF1F7D9-E035-453E-B2A8-46DE370997D0";
paths = (
{
closed = 1;
nodes = (
"103 424 LINE",
"225 636 LINE",
"225 666 LINE",
"50 666 LINE",
"50 636 LINE",
"190 636 LINE",
"68 424 LINE"
);
}
);
width = 255;
}
);
leftKerningGroup = seven.numr;
rightKerningGroup = seven.numr;
},
{
glyphname = eight.numr;
lastChange = "2020-01-23 01:24:53 +0000";
layers = (
{
layerId = "10BC12B3-5274-42E3-B5BC-F74F362F0DF4";
paths = (
{
closed = 1;
nodes = (
"184 416 OFFCURVE",
"225 451 OFFCURVE",
"225 502 CURVE SMOOTH",
"225 525 OFFCURVE",
"217 546 OFFCURVE",
"204 562 CURVE",
"214 576 OFFCURVE",
"220 594 OFFCURVE",
"220 612 CURVE SMOOTH",
"220 661 OFFCURVE",
"180 696 OFFCURVE",
"132 696 CURVE SMOOTH",
"84 696 OFFCURVE",
"45 661 OFFCURVE",
"45 612 CURVE SMOOTH",
"45 594 OFFCURVE",
"51 576 OFFCURVE",
"61 562 CURVE",
"48 546 OFFCURVE",
"40 525 OFFCURVE",
"40 502 CURVE SMOOTH",
"40 451 OFFCURVE",
"81 416 OFFCURVE",
"132 416 CURVE SMOOTH"
);
},
{
closed = 1;
nodes = (
"120 480 OFFCURVE",
"110 490 OFFCURVE",
"110 502 CURVE SMOOTH",
"110 515 OFFCURVE",
"120 525 OFFCURVE",
"132 525 CURVE SMOOTH",
"145 525 OFFCURVE",
"155 515 OFFCURVE",
"155 502 CURVE SMOOTH",
"155 490 OFFCURVE",
"145 480 OFFCURVE",
"132 480 CURVE SMOOTH"
);
},
{
closed = 1;
nodes = (
"123 595 OFFCURVE",
"115 603 OFFCURVE",
"115 612 CURVE SMOOTH",
"115 622 OFFCURVE",
"123 630 OFFCURVE",
"132 630 CURVE SMOOTH",
"142 630 OFFCURVE",
"150 622 OFFCURVE",
"150 612 CURVE SMOOTH",
"150 603 OFFCURVE",
"142 595 OFFCURVE",
"132 595 CURVE SMOOTH"
);
}
);
width = 265;
},
{
layerId = "9AF1F7D9-E035-453E-B2A8-46DE370997D0";
paths = (
{
closed = 1;
nodes = (
"169 416 OFFCURVE",
"207 448 OFFCURVE",
"207 494 CURVE SMOOTH",
"207 523 OFFCURVE",
"192 548 OFFCURVE",
"170 563 CURVE",
"188 577 OFFCURVE",
"200 599 OFFCURVE",
"200 623 CURVE SMOOTH",
"200 666 OFFCURVE",
"166 695 OFFCURVE",
"123 695 CURVE SMOOTH",
"81 695 OFFCURVE",
"47 666 OFFCURVE",
"47 623 CURVE SMOOTH",
"47 599 OFFCURVE",
"59 577 OFFCURVE",
"77 563 CURVE",
"55 548 OFFCURVE",
"40 523 OFFCURVE",
"40 494 CURVE SMOOTH",
"40 448 OFFCURVE",
"78 416 OFFCURVE",
"123 416 CURVE SMOOTH"
);
},
{
closed = 1;
nodes = (
"94 446 OFFCURVE",
"70 465 OFFCURVE",
"70 494 CURVE SMOOTH",
"70 523 OFFCURVE",
"94 547 OFFCURVE",
"123 547 CURVE SMOOTH",
"153 547 OFFCURVE",
"177 523 OFFCURVE",
"177 494 CURVE SMOOTH",
"177 465 OFFCURVE",
"153 446 OFFCURVE",
"123 446 CURVE SMOOTH"
);
},
{
closed = 1;
nodes = (
"98 577 OFFCURVE",
"77 598 OFFCURVE",
"77 623 CURVE SMOOTH",
"77 649 OFFCURVE",
"98 665 OFFCURVE",
"123 665 CURVE SMOOTH",
"149 665 OFFCURVE",
"170 649 OFFCURVE",
"170 623 CURVE SMOOTH",
"170 598 OFFCURVE",
"149 577 OFFCURVE",
"123 577 CURVE SMOOTH"
);
}
);
width = 247;
}
);
leftKerningGroup = eight.numr;
rightKerningGroup = eight.numr;
},
{
glyphname = nine.numr;
lastChange = "2020-01-23 01:24:53 +0000";
layers = (
{
layerId = "10BC12B3-5274-42E3-B5BC-F74F362F0DF4";
paths = (
{
closed = 1;
nodes = (
"135 424 LINE",
"211 555 LINE",
"220 571 OFFCURVE",
"224 587 OFFCURVE",
"224 603 CURVE SMOOTH",
"224 654 OFFCURVE",
"183 695 OFFCURVE",
"127 695 CURVE SMOOTH",
"73 695 OFFCURVE",
"30 656 OFFCURVE",
"30 603 CURVE SMOOTH",
"30 561 OFFCURVE",
"57 520 OFFCURVE",
"103 509 CURVE",
"54 424 LINE"
);
},
{
closed = 1;
nodes = (
"117 576 OFFCURVE",
"100 582 OFFCURVE",
"100 602 CURVE SMOOTH",
"100 615 OFFCURVE",
"109 630 OFFCURVE",
"127 630 CURVE SMOOTH",
"140 630 OFFCURVE",
"154 617 OFFCURVE",
"154 604 CURVE SMOOTH",
"154 589 OFFCURVE",
"142 576 OFFCURVE",
"127 576 CURVE SMOOTH"
);
}
);
width = 274;
},
{
layerId = "9AF1F7D9-E035-453E-B2A8-46DE370997D0";
paths = (
{
closed = 1;
nodes = (
"135 424 LINE",
"209 551 LINE",
"209 552 OFFCURVE",
"210 553 OFFCURVE",
"211 555 CURVE SMOOTH",
"249 619 OFFCURVE",
"201 695 OFFCURVE",
"127 695 CURVE SMOOTH",
"94 695 OFFCURVE",
"61 683 OFFCURVE",
"43 651 CURVE SMOOTH",
"0 578 OFFCURVE",
"67 488 OFFCURVE",
"150 509 CURVE",
"101 424 LINE"
);
},
{
closed = 1;
nodes = (
"100 536 OFFCURVE",
"71 554 OFFCURVE",
"62 586 CURVE SMOOTH",
"52 629 OFFCURVE",
"84 665 OFFCURVE",
"127 665 CURVE SMOOTH",
"154 665 OFFCURVE",
"183 652 OFFCURVE",
"192 620 CURVE SMOOTH",
"202 576 OFFCURVE",
"170 536 OFFCURVE",
"127 536 CURVE SMOOTH"
);
}
);
width = 274;
}
);
leftKerningGroup = nine.numr;
rightKerningGroup = nine.numr;
},
{
glyphname = fraction;
lastChange = "2020-01-23 09:45:54 +0000";
layers = (
{
layerId = "10BC12B3-5274-42E3-B5BC-F74F362F0DF4";
paths = (
{
closed = 1;
nodes = (
"121 0 LINE",
"525 700 LINE",
"404 700 LINE",
"0 0 LINE"
);
}
);
width = 525;
},
{
layerId = "9AF1F7D9-E035-453E-B2A8-46DE370997D0";
paths = (
{
closed = 1;
nodes = (
"65 0 LINE",
"469 700 LINE",
"434 700 LINE",
"30 0 LINE"
);
}
);
width = 499;
}
);
leftKerningGroup = frac_digits;
rightKerningGroup = fraction;
unicode = "2044,2215";
},
{
glyphname = period;
lastChange = "2020-01-23 10:09:41 +0000";
layers = (
{
layerId = "10BC12B3-5274-42E3-B5BC-F74F362F0DF4";
paths = (
{
closed = 1;
nodes = (
"176 -13 OFFCURVE",
"210 20 OFFCURVE",
"210 62 CURVE SMOOTH",
"210 103 OFFCURVE",
"176 137 OFFCURVE",
"135 137 CURVE SMOOTH",
"93 137 OFFCURVE",
"60 103 OFFCURVE",
"60 62 CURVE SMOOTH",
"60 20 OFFCURVE",
"93 -13 OFFCURVE",
"135 -13 CURVE SMOOTH"
);
}
);
width = 270;
},
{
layerId = "9AF1F7D9-E035-453E-B2A8-46DE370997D0";
paths = (
{
closed = 1;
nodes = (
"95 -13 OFFCURVE",
"105 -3 OFFCURVE",
"105 10 CURVE SMOOTH",
"105 22 OFFCURVE",
"95 32 OFFCURVE",
"82 32 CURVE SMOOTH",
"70 32 OFFCURVE",
"60 22 OFFCURVE",
"60 10 CURVE SMOOTH",
"60 -3 OFFCURVE",
"70 -13 OFFCURVE",
"82 -13 CURVE SMOOTH"
);
}
);
width = 165;
}
);
leftKerningGroup = "1";
rightKerningGroup = period;
unicode = 002E;
},
{
glyphname = comma;
lastChange = "2020-01-23 10:15:08 +0000";
layers = (
{
layerId = "10BC12B3-5274-42E3-B5BC-F74F362F0DF4";
paths = (
{
closed = 1;
nodes = (
"160 -56 LINE",
"241 113 LINE",
"91 113 LINE",
"60 -56 LINE"
);
}
);
width = 301;
},
{
layerId = "9AF1F7D9-E035-453E-B2A8-46DE370997D0";
paths = (
{
closed = 1;
nodes = (
"80 -56 LINE",
"121 113 LINE",
"91 113 LINE",
"60 -56 LINE"
);
}
);
width = 181;
}
);
leftKerningGroup = period;
rightKerningGroup = period;
unicode = 002C;
},
{
glyphname = colon;
lastChange = "2020-01-23 01:24:53 +0000";
layers = (
{
layerId = "10BC12B3-5274-42E3-B5BC-F74F362F0DF4";
paths = (
{
closed = 1;
nodes = (
"176 350 OFFCURVE",
"210 383 OFFCURVE",
"210 425 CURVE SMOOTH",
"210 466 OFFCURVE",
"176 500 OFFCURVE",
"135 500 CURVE SMOOTH",
"93 500 OFFCURVE",
"60 466 OFFCURVE",
"60 425 CURVE SMOOTH",
"60 383 OFFCURVE",
"93 350 OFFCURVE",
"135 350 CURVE SMOOTH"
);
},
{
closed = 1;
nodes = (
"176 -13 OFFCURVE",
"210 20 OFFCURVE",
"210 62 CURVE SMOOTH",
"210 103 OFFCURVE",
"176 137 OFFCURVE",
"135 137 CURVE SMOOTH",
"93 137 OFFCURVE",
"60 103 OFFCURVE",
"60 62 CURVE SMOOTH",
"60 20 OFFCURVE",
"93 -13 OFFCURVE",
"135 -13 CURVE SMOOTH"
);
}
);
width = 270;
},
{
layerId = "9AF1F7D9-E035-453E-B2A8-46DE370997D0";
paths = (
{
closed = 1;
nodes = (
"95 455 OFFCURVE",
"105 465 OFFCURVE",
"105 478 CURVE SMOOTH",
"105 490 OFFCURVE",
"95 500 OFFCURVE",
"82 500 CURVE SMOOTH",
"70 500 OFFCURVE",
"60 490 OFFCURVE",
"60 478 CURVE SMOOTH",
"60 465 OFFCURVE",
"70 455 OFFCURVE",
"82 455 CURVE SMOOTH"
);
},
{
closed = 1;
nodes = (
"95 -13 OFFCURVE",
"105 -3 OFFCURVE",
"105 10 CURVE SMOOTH",
"105 22 OFFCURVE",
"95 32 OFFCURVE",
"82 32 CURVE SMOOTH",
"70 32 OFFCURVE",
"60 22 OFFCURVE",
"60 10 CURVE SMOOTH",
"60 -3 OFFCURVE",
"70 -13 OFFCURVE",
"82 -13 CURVE SMOOTH"
);
}
);
width = 165;
}
);
leftKerningGroup = colon;
rightKerningGroup = colon;
unicode = 003A;
},
{
glyphname = semicolon;
lastChange = "2020-01-23 01:24:53 +0000";
layers = (
{
layerId = "10BC12B3-5274-42E3-B5BC-F74F362F0DF4";
paths = (
{
closed = 1;
nodes = (
"160 -56 LINE",
"241 113 LINE",
"91 113 LINE",
"60 -56 LINE"
);
},
{
closed = 1;
nodes = (
"207 350 OFFCURVE",
"241 383 OFFCURVE",
"241 425 CURVE SMOOTH",
"241 466 OFFCURVE",
"207 500 OFFCURVE",
"166 500 CURVE SMOOTH",
"124 500 OFFCURVE",
"91 466 OFFCURVE",
"91 425 CURVE SMOOTH",
"91 383 OFFCURVE",
"124 350 OFFCURVE",
"166 350 CURVE SMOOTH"
);
}
);
width = 301;
},
{
layerId = "9AF1F7D9-E035-453E-B2A8-46DE370997D0";
paths = (
{
closed = 1;
nodes = (
"66 -56 LINE",
"107 113 LINE",
"77 113 LINE",
"46 -56 LINE"
);
},
{
closed = 1;
nodes = (
"103 455 OFFCURVE",
"113 465 OFFCURVE",
"113 477 CURVE SMOOTH",
"113 490 OFFCURVE",
"103 500 OFFCURVE",
"91 500 CURVE SMOOTH",
"78 500 OFFCURVE",
"68 490 OFFCURVE",
"68 477 CURVE SMOOTH",
"68 465 OFFCURVE",
"78 455 OFFCURVE",
"91 455 CURVE SMOOTH"
);
}
);
width = 181;
}
);
leftKerningGroup = colon;
rightKerningGroup = colon;
unicode = 003B;
},
{
glyphname = exclam;
lastChange = "2020-01-23 08:04:47 +0000";
layers = (
{
layerId = "10BC12B3-5274-42E3-B5BC-F74F362F0DF4";
paths = (
{
closed = 1;
nodes = (
"197 210 LINE",
"197 700 LINE",
"72 700 LINE",
"72 210 LINE"
);
},
{
closed = 1;
nodes = (
"176 -13 OFFCURVE",
"209 20 OFFCURVE",
"209 63 CURVE SMOOTH",
"209 104 OFFCURVE",
"176 137 OFFCURVE",
"135 137 CURVE SMOOTH",
"93 137 OFFCURVE",
"60 104 OFFCURVE",
"60 63 CURVE SMOOTH",
"60 20 OFFCURVE",
"93 -13 OFFCURVE",
"135 -13 CURVE SMOOTH"
);
}
);
width = 269;
},
{
layerId = "9AF1F7D9-E035-453E-B2A8-46DE370997D0";
paths = (
{
closed = 1;
nodes = (
"98 210 LINE",
"98 700 LINE",
"68 700 LINE",
"68 210 LINE"
);
},
{
closed = 1;
nodes = (
"95 -13 OFFCURVE",
"105 -3 OFFCURVE",
"105 10 CURVE SMOOTH",
"105 22 OFFCURVE",
"95 32 OFFCURVE",
"83 32 CURVE SMOOTH",
"70 32 OFFCURVE",
"60 22 OFFCURVE",
"60 10 CURVE SMOOTH",
"60 -3 OFFCURVE",
"70 -13 OFFCURVE",
"83 -13 CURVE SMOOTH"
);
}
);
width = 165;
}
);
leftKerningGroup = exclam;
rightKerningGroup = exclam;
unicode = 0021;
},
{
glyphname = exclamdown;
lastChange = "2020-01-23 01:24:53 +0000";
layers = (
{
layerId = "10BC12B3-5274-42E3-B5BC-F74F362F0DF4";
paths = (
{
closed = 1;
nodes = (
"93 513 OFFCURVE",
"60 480 OFFCURVE",
"60 437 CURVE",
"60 396 OFFCURVE",
"93 363 OFFCURVE",
"134 363 CURVE",
"176 363 OFFCURVE",
"209 396 OFFCURVE",
"209 437 CURVE",
"209 480 OFFCURVE",
"176 513 OFFCURVE",
"134 513 CURVE"
);
},
{
closed = 1;
nodes = (
"72 290 LINE",
"72 -200 LINE",
"197 -200 LINE",
"197 290 LINE"
);
}
);
width = 269;
},
{
layerId = "9AF1F7D9-E035-453E-B2A8-46DE370997D0";
paths = (
{
closed = 1;
nodes = (
"70 513 OFFCURVE",
"60 503 OFFCURVE",
"60 490 CURVE",
"60 478 OFFCURVE",
"70 468 OFFCURVE",
"82 468 CURVE",
"95 468 OFFCURVE",
"105 478 OFFCURVE",
"105 490 CURVE",
"105 503 OFFCURVE",
"95 513 OFFCURVE",
"82 513 CURVE"
);
},
{
closed = 1;
nodes = (
"67 290 LINE",
"67 -200 LINE",
"97 -200 LINE",
"97 290 LINE"
);
}
);
width = 165;
}
);
leftKerningGroup = exclamdown;
rightKerningGroup = exclamdown;
unicode = 00A1;
},
{
glyphname = question;
lastChange = "2020-01-23 10:16:36 +0000";
layers = (
{
layerId = "10BC12B3-5274-42E3-B5BC-F74F362F0DF4";
paths = (
{
closed = 1;
nodes = (
"363 200 LINE",
"363 202 LINE SMOOTH",
"363 226 OFFCURVE",
"377 248 OFFCURVE",
"398 259 CURVE SMOOTH",
"475 300 OFFCURVE",
"522 382 OFFCURVE",
"522 473 CURVE SMOOTH",
"522 605 OFFCURVE",
"414 713 OFFCURVE",
"281 713 CURVE SMOOTH",
"148 713 OFFCURVE",
"40 605 OFFCURVE",
"40 473 CURVE",
"190 473 LINE",
"190 523 OFFCURVE",
"231 563 OFFCURVE",
"281 563 CURVE SMOOTH",
"331 563 OFFCURVE",
"372 523 OFFCURVE",
"372 473 CURVE SMOOTH",
"372 437 OFFCURVE",
"355 406 OFFCURVE",
"327 391 CURVE SMOOTH",
"257 353 OFFCURVE",
"213 281 OFFCURVE",
"213 202 CURVE SMOOTH",
"213 200 LINE"
);
},
{
closed = 1;
nodes = (
"337 -13 OFFCURVE",
"370 20 OFFCURVE",
"370 63 CURVE SMOOTH",
"370 104 OFFCURVE",
"337 137 OFFCURVE",
"296 137 CURVE SMOOTH",
"254 137 OFFCURVE",
"221 104 OFFCURVE",
"221 63 CURVE SMOOTH",
"221 20 OFFCURVE",
"254 -13 OFFCURVE",
"296 -13 CURVE SMOOTH"
);
}
);
width = 582;
},
{
layerId = "9AF1F7D9-E035-453E-B2A8-46DE370997D0";
paths = (
{
closed = 1;
nodes = (
"222 261 LINE",
"222 263 LINE SMOOTH",
"222 309 OFFCURVE",
"248 351 OFFCURVE",
"289 373 CURVE SMOOTH",
"346 404 OFFCURVE",
"381 465 OFFCURVE",
"381 533 CURVE SMOOTH",
"381 633 OFFCURVE",
"300 714 OFFCURVE",
"200 714 CURVE SMOOTH",
"101 714 OFFCURVE",
"20 633 OFFCURVE",
"20 533 CURVE",
"50 533 LINE",
"50 617 OFFCURVE",
"117 684 OFFCURVE",
"200 684 CURVE SMOOTH",
"283 684 OFFCURVE",
"351 617 OFFCURVE",
"351 533 CURVE SMOOTH",
"351 476 OFFCURVE",
"322 425 OFFCURVE",
"275 400 CURVE SMOOTH",
"224 372 OFFCURVE",
"192 320 OFFCURVE",
"192 263 CURVE SMOOTH",
"192 261 LINE"
);
},
{
closed = 1;
nodes = (
"213 -13 OFFCURVE",
"223 -2 OFFCURVE",
"223 10 CURVE SMOOTH",
"223 22 OFFCURVE",
"213 32 OFFCURVE",
"200 32 CURVE SMOOTH",
"188 32 OFFCURVE",
"178 22 OFFCURVE",
"178 10 CURVE SMOOTH",
"178 -2 OFFCURVE",
"188 -13 OFFCURVE",
"200 -13 CURVE SMOOTH"
);
}
);
width = 441;
}
);
leftKerningGroup = question;
rightKerningGroup = question;
unicode = 003F;
},
{
glyphname = questiondown;
lastChange = "2020-01-23 01:24:53 +0000";
layers = (
{
layerId = "10BC12B3-5274-42E3-B5BC-F74F362F0DF4";
paths = (
{
closed = 1;
nodes = (
"434 -213 OFFCURVE",
"542 -105 OFFCURVE",
"542 27 CURVE",
"392 27 LINE",
"392 -23 OFFCURVE",
"351 -63 OFFCURVE",
"301 -63 CURVE SMOOTH",
"251 -63 OFFCURVE",
"210 -23 OFFCURVE",
"210 27 CURVE SMOOTH",
"210 63 OFFCURVE",
"227 94 OFFCURVE",
"255 109 CURVE SMOOTH",
"325 147 OFFCURVE",
"369 219 OFFCURVE",
"369 298 CURVE SMOOTH",
"369 300 LINE",
"219 300 LINE",
"219 298 LINE SMOOTH",
"219 274 OFFCURVE",
"205 252 OFFCURVE",
"184 241 CURVE SMOOTH",
"107 200 OFFCURVE",
"60 118 OFFCURVE",
"60 27 CURVE SMOOTH",
"60 -105 OFFCURVE",
"168 -213 OFFCURVE",
"301 -213 CURVE SMOOTH"
);
},
{
closed = 1;
nodes = (
"328 363 OFFCURVE",
"361 396 OFFCURVE",
"361 437 CURVE SMOOTH",
"361 480 OFFCURVE",
"328 513 OFFCURVE",
"286 513 CURVE SMOOTH",
"245 513 OFFCURVE",
"212 480 OFFCURVE",
"212 437 CURVE SMOOTH",
"212 396 OFFCURVE",
"245 363 OFFCURVE",
"286 363 CURVE SMOOTH"
);
}
);
width = 582;
},
{
layerId = "9AF1F7D9-E035-453E-B2A8-46DE370997D0";
paths = (
{
closed = 1;
nodes = (
"341 -214 OFFCURVE",
"422 -133 OFFCURVE",
"422 -33 CURVE",
"392 -33 LINE",
"392 -116 OFFCURVE",
"324 -184 OFFCURVE",
"241 -184 CURVE SMOOTH",
"158 -184 OFFCURVE",
"90 -116 OFFCURVE",
"90 -33 CURVE SMOOTH",
"90 24 OFFCURVE",
"119 75 OFFCURVE",
"166 101 CURVE SMOOTH",
"216 129 OFFCURVE",
"249 181 OFFCURVE",
"249 238 CURVE SMOOTH",
"249 240 LINE",
"219 240 LINE",
"219 238 LINE SMOOTH",
"219 192 OFFCURVE",
"193 149 OFFCURVE",
"152 127 CURVE SMOOTH",
"95 97 OFFCURVE",
"60 35 OFFCURVE",
"60 -33 CURVE SMOOTH",
"60 -133 OFFCURVE",
"141 -214 OFFCURVE",
"241 -214 CURVE SMOOTH"
);
},
{
closed = 1;
nodes = (
"253 468 OFFCURVE",
"263 478 OFFCURVE",
"263 490 CURVE SMOOTH",
"263 503 OFFCURVE",
"253 513 OFFCURVE",
"241 513 CURVE SMOOTH",
"228 513 OFFCURVE",
"218 503 OFFCURVE",
"218 490 CURVE SMOOTH",
"218 478 OFFCURVE",
"228 468 OFFCURVE",
"241 468 CURVE SMOOTH"
);
}
);
width = 462;
}
);
leftKerningGroup = questiondown;
rightKerningGroup = questiondown;
unicode = 00BF;
},
{
glyphname = periodcentered;
lastChange = "2020-01-23 01:24:53 +0000";
layers = (
{
layerId = "10BC12B3-5274-42E3-B5BC-F74F362F0DF4";
paths = (
{
closed = 1;
nodes = (
"176 175 OFFCURVE",
"210 208 OFFCURVE",
"210 250 CURVE SMOOTH",
"210 291 OFFCURVE",
"176 325 OFFCURVE",
"135 325 CURVE SMOOTH",
"93 325 OFFCURVE",
"60 291 OFFCURVE",
"60 250 CURVE SMOOTH",
"60 208 OFFCURVE",
"93 175 OFFCURVE",
"135 175 CURVE SMOOTH"
);
}
);
width = 270;
},
{
layerId = "9AF1F7D9-E035-453E-B2A8-46DE370997D0";
paths = (
{
closed = 1;
nodes = (
"95 227 OFFCURVE",
"105 237 OFFCURVE",
"105 250 CURVE SMOOTH",
"105 262 OFFCURVE",
"95 272 OFFCURVE",
"82 272 CURVE SMOOTH",
"70 272 OFFCURVE",
"60 262 OFFCURVE",
"60 250 CURVE SMOOTH",
"60 237 OFFCURVE",
"70 227 OFFCURVE",
"82 227 CURVE SMOOTH"
);
}
);
width = 165;
}
);
leftKerningGroup = anoteleia;
rightKerningGroup = anoteleia;
unicode = 00B7;
},
{
glyphname = bullet;
lastChange = "2020-01-23 01:24:53 +0000";
layers = (
{
layerId = "10BC12B3-5274-42E3-B5BC-F74F362F0DF4";
paths = (
{
closed = 1;
nodes = (
"215 150 OFFCURVE",
"260 194 OFFCURVE",
"260 250 CURVE SMOOTH",
"260 305 OFFCURVE",
"215 350 OFFCURVE",
"160 350 CURVE SMOOTH",
"104 350 OFFCURVE",
"60 305 OFFCURVE",
"60 250 CURVE SMOOTH",
"60 194 OFFCURVE",
"104 150 OFFCURVE",
"160 150 CURVE SMOOTH"
);
}
);
width = 320;
},
{
layerId = "9AF1F7D9-E035-453E-B2A8-46DE370997D0";
paths = (
{
closed = 1;
nodes = (
"127 220 OFFCURVE",
"140 233 OFFCURVE",
"140 251 CURVE SMOOTH",
"140 267 OFFCURVE",
"127 280 OFFCURVE",
"109 280 CURVE SMOOTH",
"93 280 OFFCURVE",
"80 267 OFFCURVE",
"80 251 CURVE SMOOTH",
"80 233 OFFCURVE",
"93 220 OFFCURVE",
"109 220 CURVE SMOOTH"
);
}
);
width = 220;
}
);
leftKerningGroup = bullet;
rightKerningGroup = bullet;
unicode = 2022;
},
{
glyphname = asterisk;
lastChange = "2020-01-23 10:06:06 +0000";
layers = (
{
layerId = "10BC12B3-5274-42E3-B5BC-F74F362F0DF4";
paths = (
{
closed = 1;
nodes = (
"211 473 LINE",
"254 413 LINE",
"335 472 LINE",
"291 532 LINE",
"362 554 LINE",
"331 650 LINE",
"261 627 LINE",
"261 700 LINE",
"161 700 LINE",
"161 627 LINE",
"90 650 LINE",
"60 554 LINE",
"130 532 LINE",
"86 472 LINE",
"167 413 LINE"
);
}
);
width = 422;
},
{
layerId = "9AF1F7D9-E035-453E-B2A8-46DE370997D0";
paths = (
{
closed = 1;
nodes = (
"160 532 LINE",
"231 433 LINE",
"256 451 LINE",
"184 549 LINE",
"300 587 LINE",
"291 615 LINE",
"175 578 LINE",
"175 700 LINE",
"145 700 LINE",
"145 578 LINE",
"29 615 LINE",
"20 587 LINE",
"135 549 LINE",
"64 451 LINE",
"88 433 LINE"
);
}
);
width = 320;
}
);
leftKerningGroup = asterisk;
rightKerningGroup = asterisk;
unicode = 002A;
},
{
glyphname = numbersign;
lastChange = "2020-01-23 01:24:53 +0000";
layers = (
{
layerId = "10BC12B3-5274-42E3-B5BC-F74F362F0DF4";
paths = (
{
closed = 1;
nodes = (
"783 570 LINE",
"709 570 LINE",
"743 700 LINE",
"593 700 LINE",
"559 570 LINE",
"402 570 LINE",
"437 700 LINE",
"287 700 LINE",
"252 570 LINE",
"178 570 LINE",
"139 425 LINE",
"214 425 LINE",
"173 275 LINE",
"99 275 LINE",
"60 130 LINE",
"134 130 LINE",
"100 0 LINE",
"250 0 LINE",
"284 130 LINE",
"441 130 LINE",
"406 0 LINE",
"556 0 LINE",
"591 130 LINE",
"665 130 LINE",
"704 275 LINE",
"629 275 LINE",
"670 425 LINE",
"744 425 LINE"
);
},
{
closed = 1;
nodes = (
"323 275 LINE",
"364 425 LINE",
"520 425 LINE",
"479 275 LINE"
);
}
);
width = 843;
},
{
layerId = "9AF1F7D9-E035-453E-B2A8-46DE370997D0";
paths = (
{
closed = 1;
nodes = (
"712 513 LINE",
"598 513 LINE",
"648 700 LINE",
"618 700 LINE",
"568 513 LINE",
"292 513 LINE",
"342 700 LINE",
"312 700 LINE",
"262 513 LINE",
"147 513 LINE",
"139 484 LINE",
"254 484 LINE",
"182 217 LINE",
"68 217 LINE",
"60 188 LINE",
"175 188 LINE",
"124 0 LINE",
"154 0 LINE",
"205 188 LINE",
"481 188 LINE",
"430 0 LINE",
"460 0 LINE",
"511 188 LINE",
"625 188 LINE",
"633 217 LINE",
"518 217 LINE",
"590 484 LINE",
"704 484 LINE"
);
},
{
closed = 1;
nodes = (
"212 217 LINE",
"284 484 LINE",
"560 484 LINE",
"488 217 LINE"
);
}
);
width = 772;
}
);
leftKerningGroup = numbersign;
rightKerningGroup = numbersign;
unicode = 0023;
},
{
glyphname = slash;
lastChange = "2020-01-23 07:40:00 +0000";
layers = (
{
layerId = "10BC12B3-5274-42E3-B5BC-F74F362F0DF4";
paths = (
{
closed = 1;
nodes = (
"263 700 LINE",
"60 -56 LINE",
"210 -56 LINE",
"413 700 LINE"
);
}
);
width = 473;
},
{
layerId = "9AF1F7D9-E035-453E-B2A8-46DE370997D0";
paths = (
{
closed = 1;
nodes = (
"262 700 LINE",
"60 -56 LINE",
"90 -56 LINE",
"292 700 LINE"
);
}
);
width = 352;
}
);
leftKerningGroup = slash;
rightKerningGroup = slash;
unicode = 002F;
},
{
glyphname = backslash;
lastChange = "2020-01-23 05:58:24 +0000";
layers = (
{
layerId = "10BC12B3-5274-42E3-B5BC-F74F362F0DF4";
paths = (
{
closed = 1;
nodes = (
"412 -56 LINE",
"210 700 LINE",
"60 700 LINE",
"262 -56 LINE"
);
}
);
width = 442;
},
{
layerId = "9AF1F7D9-E035-453E-B2A8-46DE370997D0";
paths = (
{
closed = 1;
nodes = (
"293 -56 LINE",
"90 700 LINE",
"60 700 LINE",
"263 -56 LINE"
);
}
);
width = 323;
}
);
leftKerningGroup = backslash;
rightKerningGroup = backslash;
unicode = 005C;
},
{
glyphname = parenleft;
lastChange = "2020-01-23 01:24:53 +0000";
layers = (
{
layerId = "10BC12B3-5274-42E3-B5BC-F74F362F0DF4";
paths = (
{
closed = 1;
nodes = (
"360 -56 LINE",
"294 20 OFFCURVE",
"210 166 OFFCURVE",
"210 322 CURVE SMOOTH",
"210 441 OFFCURVE",
"299 669 OFFCURVE",
"360 700 CURVE",
"210 700 LINE",
"128 670 OFFCURVE",
"60 436 OFFCURVE",
"60 322 CURVE SMOOTH",
"60 163 OFFCURVE",
"105 49 OFFCURVE",
"210 -56 CURVE"
);
}
);
width = 342;
},
{
layerId = "9AF1F7D9-E035-453E-B2A8-46DE370997D0";
paths = (
{
closed = 1;
nodes = (
"227 -56 LINE",
"134 43 OFFCURVE",
"96 164 OFFCURVE",
"90 322 CURVE",
"96 477 OFFCURVE",
"131 594 OFFCURVE",
"227 700 CURVE",
"197 700 LINE",
"99 613 OFFCURVE",
"60 466 OFFCURVE",
"60 322 CURVE SMOOTH",
"60 182 OFFCURVE",
"98 33 OFFCURVE",
"197 -56 CURVE"
);
}
);
width = 248;
}
);
leftKerningGroup = parenleft;
rightKerningGroup = parenleft;
unicode = 0028;
},
{
glyphname = parenright;
lastChange = "2020-01-23 01:24:53 +0000";
layers = (
{
layerId = "10BC12B3-5274-42E3-B5BC-F74F362F0DF4";
paths = (
{
closed = 1;
nodes = (
"132 -56 LINE",
"237 49 OFFCURVE",
"282 163 OFFCURVE",
"282 322 CURVE SMOOTH",
"282 436 OFFCURVE",
"214 670 OFFCURVE",
"132 700 CURVE",
"-18 700 LINE",
"43 669 OFFCURVE",
"132 441 OFFCURVE",
"132 322 CURVE SMOOTH",
"132 166 OFFCURVE",
"48 20 OFFCURVE",
"-18 -56 CURVE"
);
}
);
width = 342;
},
{
layerId = "9AF1F7D9-E035-453E-B2A8-46DE370997D0";
paths = (
{
closed = 1;
nodes = (
"51 -56 LINE",
"150 33 OFFCURVE",
"188 182 OFFCURVE",
"188 322 CURVE SMOOTH",
"188 466 OFFCURVE",
"149 613 OFFCURVE",
"51 700 CURVE",
"21 700 LINE",
"117 594 OFFCURVE",
"152 477 OFFCURVE",
"158 322 CURVE",
"152 164 OFFCURVE",
"114 43 OFFCURVE",
"21 -56 CURVE"
);
}
);
width = 248;
}
);
leftKerningGroup = parenright;
rightKerningGroup = parenright;
unicode = 0029;
},
{
glyphname = braceleft;
lastChange = "2020-01-23 01:24:53 +0000";
layers = (
{
layerId = "10BC12B3-5274-42E3-B5BC-F74F362F0DF4";
paths = (
{
closed = 1;
nodes = (
"365 -56 LINE",
"365 94 LINE",
"302 94 LINE SMOOTH",
"288 94 OFFCURVE",
"277 105 OFFCURVE",
"277 119 CURVE SMOOTH",
"277 247 LINE SMOOTH",
"275 279 OFFCURVE",
"236 292 OFFCURVE",
"236 322 CURVE SMOOTH",
"236 349 OFFCURVE",
"275 366 OFFCURVE",
"277 397 CURVE SMOOTH",
"277 525 LINE SMOOTH",
"277 539 OFFCURVE",
"288 550 OFFCURVE",
"302 550 CURVE SMOOTH",
"365 550 LINE",
"365 700 LINE",
"302 700 LINE SMOOTH",
"205 700 OFFCURVE",
"127 621 OFFCURVE",
"127 525 CURVE SMOOTH",
"127 402 LINE SMOOTH",
"127 375 OFFCURVE",
"60 360 OFFCURVE",
"60 322 CURVE SMOOTH",
"60 280 OFFCURVE",
"127 273 OFFCURVE",
"127 241 CURVE SMOOTH",
"127 119 LINE SMOOTH",
"127 22 OFFCURVE",
"205 -56 OFFCURVE",
"302 -56 CURVE SMOOTH"
);
}
);
width = 415;
},
{
layerId = "9AF1F7D9-E035-453E-B2A8-46DE370997D0";
paths = (
{
closed = 1;
nodes = (
"345 -57 LINE",
"345 -27 LINE",
"321 -27 LINE",
"241 -27 OFFCURVE",
"176 38 OFFCURVE",
"176 118 CURVE",
"176 242 LINE",
"174 285 OFFCURVE",
"164 287 OFFCURVE",
"106 321 CURVE",
"162 354 OFFCURVE",
"174 358 OFFCURVE",
"176 401 CURVE",
"176 525 LINE",
"176 605 OFFCURVE",
"242 670 OFFCURVE",
"321 670 CURVE",
"345 670 LINE",
"345 700 LINE",
"321 700 LINE",
"224 700 OFFCURVE",
"146 621 OFFCURVE",
"146 525 CURVE",
"146 402 LINE",
"143 352 OFFCURVE",
"60 367 OFFCURVE",
"60 321 CURVE",
"60 279 OFFCURVE",
"143 291 OFFCURVE",
"146 241 CURVE",
"146 118 LINE",
"146 22 OFFCURVE",
"224 -57 OFFCURVE",
"321 -57 CURVE"
);
}
);
width = 395;
}
);
leftKerningGroup = braceleft;
rightKerningGroup = braceleft;
unicode = 007B;
},
{
glyphname = braceright;
lastChange = "2020-01-23 01:24:53 +0000";
layers = (
{
layerId = "10BC12B3-5274-42E3-B5BC-F74F362F0DF4";
paths = (
{
closed = 1;
nodes = (
"113 -56 LINE SMOOTH",
"210 -56 OFFCURVE",
"288 22 OFFCURVE",
"288 119 CURVE SMOOTH",
"288 241 LINE SMOOTH",
"288 273 OFFCURVE",
"355 280 OFFCURVE",
"355 322 CURVE SMOOTH",
"355 360 OFFCURVE",
"288 375 OFFCURVE",
"288 402 CURVE SMOOTH",
"288 525 LINE SMOOTH",
"288 621 OFFCURVE",
"210 700 OFFCURVE",
"113 700 CURVE SMOOTH",
"50 700 LINE",
"50 550 LINE",
"113 550 LINE SMOOTH",
"127 550 OFFCURVE",
"138 539 OFFCURVE",
"138 525 CURVE SMOOTH",
"138 397 LINE",
"140 366 OFFCURVE",
"179 349 OFFCURVE",
"179 322 CURVE SMOOTH",
"179 292 OFFCURVE",
"140 279 OFFCURVE",
"138 247 CURVE",
"138 119 LINE SMOOTH",
"138 105 OFFCURVE",
"127 94 OFFCURVE",
"113 94 CURVE SMOOTH",
"50 94 LINE",
"50 -56 LINE"
);
}
);
width = 415;
},
{
layerId = "9AF1F7D9-E035-453E-B2A8-46DE370997D0";
paths = (
{
closed = 1;
nodes = (
"74 -57 LINE SMOOTH",
"171 -57 OFFCURVE",
"249 22 OFFCURVE",
"249 118 CURVE SMOOTH",
"249 241 LINE",
"252 291 OFFCURVE",
"335 279 OFFCURVE",
"335 321 CURVE SMOOTH",
"335 367 OFFCURVE",
"252 352 OFFCURVE",
"249 402 CURVE",
"249 525 LINE SMOOTH",
"249 621 OFFCURVE",
"171 700 OFFCURVE",
"74 700 CURVE SMOOTH",
"50 700 LINE",
"50 670 LINE",
"74 670 LINE SMOOTH",
"153 670 OFFCURVE",
"219 605 OFFCURVE",
"219 525 CURVE SMOOTH",
"219 401 LINE SMOOTH",
"221 358 OFFCURVE",
"233 354 OFFCURVE",
"289 321 CURVE",
"231 287 OFFCURVE",
"221 285 OFFCURVE",
"219 242 CURVE SMOOTH",
"219 118 LINE SMOOTH",
"219 38 OFFCURVE",
"154 -27 OFFCURVE",
"74 -27 CURVE SMOOTH",
"50 -27 LINE",
"50 -57 LINE"
);
}
);
width = 395;
}
);
leftKerningGroup = braceright;
rightKerningGroup = braceright;
unicode = 007D;
},
{
glyphname = bracketleft;
lastChange = "2020-01-23 01:24:53 +0000";
layers = (
{
layerId = "10BC12B3-5274-42E3-B5BC-F74F362F0DF4";
paths = (
{
closed = 1;
nodes = (
"200 94 LINE",
"200 550 LINE",
"288 550 LINE",
"288 700 LINE",
"50 700 LINE",
"50 -56 LINE",
"288 -56 LINE",
"288 94 LINE"
);
}
);
width = 328;
},
{
layerId = "9AF1F7D9-E035-453E-B2A8-46DE370997D0";
paths = (
{
closed = 1;
nodes = (
"80 -26 LINE",
"80 670 LINE",
"170 670 LINE",
"170 700 LINE",
"50 700 LINE",
"50 -56 LINE",
"170 -56 LINE",
"170 -26 LINE"
);
}
);
width = 210;
}
);
leftKerningGroup = bracketleft;
rightKerningGroup = bracketleft;
unicode = 005B;
},
{
glyphname = bracketright;
lastChange = "2020-01-23 01:24:53 +0000";
layers = (
{
layerId = "10BC12B3-5274-42E3-B5BC-F74F362F0DF4";
paths = (
{
closed = 1;
nodes = (
"279 -56 LINE",
"279 700 LINE",
"40 700 LINE",
"40 550 LINE",
"129 550 LINE",
"129 94 LINE",
"40 94 LINE",
"40 -56 LINE"
);
}
);
width = 329;
},
{
layerId = "9AF1F7D9-E035-453E-B2A8-46DE370997D0";
paths = (
{
closed = 1;
nodes = (
"160 -56 LINE",
"160 700 LINE",
"40 700 LINE",
"40 670 LINE",
"130 670 LINE",
"130 -26 LINE",
"40 -26 LINE",
"40 -56 LINE"
);
}
);
width = 210;
}
);
leftKerningGroup = bracketright;
rightKerningGroup = bracketright;
unicode = 005D;
},
{
glyphname = hyphen;
lastChange = "2020-01-23 10:14:51 +0000";
layers = (
{
layerId = "10BC12B3-5274-42E3-B5BC-F74F362F0DF4";
paths = (
{
closed = 1;
nodes = (
"60 175 LINE",
"380 175 LINE",
"380 325 LINE",
"60 325 LINE"
);
}
);
width = 440;
},
{
layerId = "9AF1F7D9-E035-453E-B2A8-46DE370997D0";
paths = (
{
closed = 1;
nodes = (
"40 235 LINE",
"360 235 LINE",
"360 265 LINE",
"40 265 LINE"
);
}
);
width = 400;
}
);
leftKerningGroup = hyphen;
rightKerningGroup = hyphen;
unicode = 002D;
},
{
glyphname = endash;
lastChange = "2020-01-23 06:50:28 +0000";
layers = (
{
layerId = "10BC12B3-5274-42E3-B5BC-F74F362F0DF4";
paths = (
{
closed = 1;
nodes = (
"60 175 LINE",
"560 175 LINE",
"560 325 LINE",
"60 325 LINE"
);
}
);
width = 620;
},
{
layerId = "9AF1F7D9-E035-453E-B2A8-46DE370997D0";
paths = (
{
closed = 1;
nodes = (
"60 235 LINE",
"560 235 LINE",
"560 265 LINE",
"60 265 LINE"
);
}
);
width = 620;
}
);
leftKerningGroup = hyphen;
rightKerningGroup = hyphen;
unicode = 2013;
},
{
glyphname = emdash;
lastChange = "2020-01-23 06:50:23 +0000";
layers = (
{
layerId = "10BC12B3-5274-42E3-B5BC-F74F362F0DF4";
paths = (
{
closed = 1;
nodes = (
"60 175 LINE",
"960 175 LINE",
"960 325 LINE",
"60 325 LINE"
);
}
);
width = 1020;
},
{
layerId = "9AF1F7D9-E035-453E-B2A8-46DE370997D0";
paths = (
{
closed = 1;
nodes = (
"60 235 LINE",
"960 235 LINE",
"960 265 LINE",
"60 265 LINE"
);
}
);
width = 1020;
}
);
leftKerningGroup = hyphen;
rightKerningGroup = hyphen;
unicode = 2014;
},
{
glyphname = underscore;
lastChange = "2020-01-23 01:24:53 +0000";
layers = (
{
layerId = "10BC12B3-5274-42E3-B5BC-F74F362F0DF4";
paths = (
{
closed = 1;
nodes = (
"60 -56 LINE",
"560 -56 LINE",
"560 94 LINE",
"60 94 LINE"
);
}
);
width = 620;
},
{
layerId = "9AF1F7D9-E035-453E-B2A8-46DE370997D0";
paths = (
{
closed = 1;
nodes = (
"60 -56 LINE",
"560 -56 LINE",
"560 -26 LINE",
"60 -26 LINE"
);
}
);
width = 600;
}
);
leftKerningGroup = underscore;
rightKerningGroup = underscore;
unicode = 005F;
},
{
glyphname = quoteleft;
lastChange = "2020-01-23 09:48:05 +0000";
layers = (
{
layerId = "10BC12B3-5274-42E3-B5BC-F74F362F0DF4";
paths = (
{
closed = 1;
nodes = (
"210 439 LINE",
"241 700 LINE",
"141 700 LINE",
"60 439 LINE"
);
}
);
width = 301;
},
{
layerId = "9AF1F7D9-E035-453E-B2A8-46DE370997D0";
paths = (
{
closed = 1;
nodes = (
"90 439 LINE",
"121 700 LINE",
"101 700 LINE",
"60 439 LINE"
);
}
);
width = 181;
}
);
leftKerningGroup = quotedblleft;
rightKerningGroup = quotedblleft;
unicode = "2018,02BB";
},
{
glyphname = quoteright;
lastChange = "2020-01-23 10:15:47 +0000";
layers = (
{
layerId = "10BC12B3-5274-42E3-B5BC-F74F362F0DF4";
paths = (
{
closed = 1;
nodes = (
"160 439 LINE",
"241 700 LINE",
"91 700 LINE",
"60 439 LINE"
);
}
);
width = 301;
},
{
layerId = "9AF1F7D9-E035-453E-B2A8-46DE370997D0";
paths = (
{
closed = 1;
nodes = (
"80 439 LINE",
"121 700 LINE",
"91 700 LINE",
"60 439 LINE"
);
}
);
width = 181;
}
);
leftKerningGroup = quotedblleft;
rightKerningGroup = quotedblleft;
unicode = "2019,2032";
},
{
glyphname = guilsinglleft;
lastChange = "2020-01-23 06:51:06 +0000";
layers = (
{
layerId = "10BC12B3-5274-42E3-B5BC-F74F362F0DF4";
paths = (
{
closed = 1;
nodes = (
"360 81 LINE",
"211 251 LINE",
"360 420 LINE",
"210 420 LINE",
"60 251 LINE",
"210 81 LINE"
);
}
);
width = 420;
},
{
layerId = "9AF1F7D9-E035-453E-B2A8-46DE370997D0";
paths = (
{
closed = 1;
nodes = (
"250 81 LINE",
"100 251 LINE",
"250 420 LINE",
"210 420 LINE",
"60 251 LINE",
"210 81 LINE"
);
}
);
width = 310;
}
);
leftKerningGroup = guillemotleft;
rightKerningGroup = guillemotleft;
unicode = 2039;
},
{
glyphname = guilsinglright;
lastChange = "2020-01-23 06:51:02 +0000";
layers = (
{
layerId = "10BC12B3-5274-42E3-B5BC-F74F362F0DF4";
paths = (
{
closed = 1;
nodes = (
"210 81 LINE",
"360 251 LINE",
"210 420 LINE",
"60 420 LINE",
"209 251 LINE",
"60 81 LINE"
);
}
);
width = 420;
},
{
layerId = "9AF1F7D9-E035-453E-B2A8-46DE370997D0";
paths = (
{
closed = 1;
nodes = (
"100 81 LINE",
"250 251 LINE",
"100 420 LINE",
"60 420 LINE",
"210 251 LINE",
"60 81 LINE"
);
}
);
width = 310;
}
);
leftKerningGroup = guillemotright;
rightKerningGroup = guillemotright;
unicode = 203A;
},
{
glyphname = primeReversed;
lastChange = "2020-01-23 09:39:30 +0000";
layers = (
{
layerId = "10BC12B3-5274-42E3-B5BC-F74F362F0DF4";
paths = (
{
closed = 1;
nodes = (
"241 439 LINE",
"210 700 LINE",
"60 700 LINE",
"141 439 LINE"
);
}
);
width = 301;
},
{
layerId = "9AF1F7D9-E035-453E-B2A8-46DE370997D0";
paths = (
{
closed = 1;
nodes = (
"121 439 LINE",
"90 700 LINE",
"60 700 LINE",
"101 439 LINE"
);
}
);
width = 181;
}
);
unicode = 2035;
},
{
glyphname = quotesingle;
lastChange = "2020-01-23 10:17:20 +0000";
layers = (
{
layerId = "10BC12B3-5274-42E3-B5BC-F74F362F0DF4";
paths = (
{
closed = 1;
nodes = (
"120 439 LINE",
"120 700 LINE",
"20 700 LINE",
"20 439 LINE"
);
}
);
width = 180;
},
{
layerId = "9AF1F7D9-E035-453E-B2A8-46DE370997D0";
paths = (
{
closed = 1;
nodes = (
"90 439 LINE",
"90 700 LINE",
"60 700 LINE",
"60 439 LINE"
);
}
);
width = 150;
}
);
leftKerningGroup = quotesingle;
rightKerningGroup = quotesingle;
unicode = 0027;
},
{
glyphname = cent;
lastChange = "2020-01-23 01:24:53 +0000";
layers = (
{
layerId = "10BC12B3-5274-42E3-B5BC-F74F362F0DF4";
paths = (
{
closed = 1;
nodes = (
"331 0 LINE",
"331 104 LINE",
"401 118 OFFCURVE",
"460 161 OFFCURVE",
"496 220 CURVE",
"366 295 LINE",
"347 267 OFFCURVE",
"315 249 OFFCURVE",
"281 249 CURVE SMOOTH",
"226 249 OFFCURVE",
"180 295 OFFCURVE",
"180 351 CURVE SMOOTH",
"180 406 OFFCURVE",
"226 452 OFFCURVE",
"281 452 CURVE SMOOTH",
"315 452 OFFCURVE",
"347 434 OFFCURVE",
"366 406 CURVE",
"496 481 LINE",
"460 540 OFFCURVE",
"401 583 OFFCURVE",
"331 597 CURVE",
"331 701 LINE",
"231 701 LINE",
"231 597 LINE",
"117 574 OFFCURVE",
"30 472 OFFCURVE",
"30 351 CURVE SMOOTH",
"30 229 OFFCURVE",
"117 128 OFFCURVE",
"231 104 CURVE",
"231 0 LINE"
);
}
);
width = 526;
},
{
layerId = "9AF1F7D9-E035-453E-B2A8-46DE370997D0";
paths = (
{
closed = 1;
nodes = (
"294 0 LINE",
"294 100 LINE",
"379 104 OFFCURVE",
"454 151 OFFCURVE",
"496 220 CURVE",
"470 235 LINE",
"431 171 OFFCURVE",
"356 129 OFFCURVE",
"281 129 CURVE SMOOTH",
"162 129 OFFCURVE",
"60 226 OFFCURVE",
"60 351 CURVE SMOOTH",
"60 473 OFFCURVE",
"160 572 OFFCURVE",
"281 572 CURVE SMOOTH",
"356 572 OFFCURVE",
"431 530 OFFCURVE",
"470 466 CURVE",
"496 481 LINE",
"454 550 OFFCURVE",
"379 597 OFFCURVE",
"294 601 CURVE",
"294 701 LINE",
"264 701 LINE",
"264 601 LINE",
"133 592 OFFCURVE",
"30 484 OFFCURVE",
"30 351 CURVE SMOOTH",
"30 218 OFFCURVE",
"133 109 OFFCURVE",
"264 100 CURVE",
"264 0 LINE"
);
}
);
width = 526;
}
);
leftKerningGroup = o;
rightKerningGroup = c;
unicode = 00A2;
},
{
glyphname = currency;
lastChange = "2020-01-23 01:24:53 +0000";
layers = (
{
layerId = "10BC12B3-5274-42E3-B5BC-F74F362F0DF4";
paths = (
{
closed = 1;
nodes = (
"186 152 LINE",
"241 121 OFFCURVE",
"305 122 OFFCURVE",
"361 151 CURVE",
"415 97 LINE",
"485 168 LINE",
"431 222 LINE",
"461 276 OFFCURVE",
"461 343 OFFCURVE",
"430 397 CURVE",
"485 452 LINE",
"415 522 LINE",
"359 467 LINE",
"306 495 OFFCURVE",
"239 495 OFFCURVE",
"187 466 CURVE",
"131 522 LINE",
"60 452 LINE",
"117 395 LINE",
"87 342 OFFCURVE",
"87 277 OFFCURVE",
"116 224 CURVE",
"60 168 LINE",
"131 97 LINE"
);
},
{
closed = 1;
nodes = (
"230 228 OFFCURVE",
"194 265 OFFCURVE",
"194 309 CURVE SMOOTH",
"194 349 OFFCURVE",
"227 389 OFFCURVE",
"274 388 CURVE SMOOTH",
"315 387 OFFCURVE",
"353 357 OFFCURVE",
"353 309 CURVE SMOOTH",
"353 264 OFFCURVE",
"318 230 OFFCURVE",
"274 229 CURVE SMOOTH"
);
}
);
width = 545;
},
{
layerId = "9AF1F7D9-E035-453E-B2A8-46DE370997D0";
paths = (
{
closed = 1;
nodes = (
"131 175 LINE",
"199 117 OFFCURVE",
"296 116 OFFCURVE",
"364 174 CURVE",
"414 124 LINE",
"435 145 LINE",
"386 195 LINE",
"442 262 OFFCURVE",
"442 361 OFFCURVE",
"385 428 CURVE",
"435 479 LINE",
"414 500 LINE",
"363 449 LINE",
"298 504 OFFCURVE",
"198 503 OFFCURVE",
"133 448 CURVE",
"81 500 LINE",
"60 479 LINE",
"111 427 LINE",
"55 360 OFFCURVE",
"55 263 OFFCURVE",
"110 196 CURVE",
"60 145 LINE",
"81 124 LINE"
);
},
{
closed = 1;
nodes = (
"169 161 OFFCURVE",
"99 226 OFFCURVE",
"99 311 CURVE SMOOTH",
"99 394 OFFCURVE",
"165 460 OFFCURVE",
"248 460 CURVE SMOOTH",
"332 460 OFFCURVE",
"398 394 OFFCURVE",
"398 311 CURVE SMOOTH",
"398 228 OFFCURVE",
"330 161 OFFCURVE",
"248 161 CURVE SMOOTH"
);
}
);
width = 495;
}
);
leftKerningGroup = currency;
rightKerningGroup = currency;
unicode = 00A4;
},
{
glyphname = dollar;
lastChange = "2020-01-23 01:24:53 +0000";
layers = (
{
layerId = "10BC12B3-5274-42E3-B5BC-F74F362F0DF4";
paths = (
{
closed = 1;
nodes = (
"381 562 OFFCURVE",
"431 533 OFFCURVE",
"441 504 CURVE",
"582 555 LINE",
"552 640 OFFCURVE",
"464 696 OFFCURVE",
"366 710 CURVE",
"366 813 LINE",
"266 813 LINE",
"266 710 LINE",
"146 692 OFFCURVE",
"50 610 OFFCURVE",
"50 494 CURVE",
"50 357 OFFCURVE",
"164 297 OFFCURVE",
"316 275 CURVE",
"372 267 OFFCURVE",
"432 248 OFFCURVE",
"432 206 CURVE",
"432 165 OFFCURVE",
"376 137 OFFCURVE",
"316 137 CURVE",
"251 137 OFFCURVE",
"201 167 OFFCURVE",
"191 196 CURVE",
"50 144 LINE",
"81 60 OFFCURVE",
"167 5 OFFCURVE",
"266 -9 CURVE",
"266 -112 LINE",
"366 -112 LINE",
"366 -9 LINE",
"486 9 OFFCURVE",
"582 91 OFFCURVE",
"582 206 CURVE",
"582 335 OFFCURVE",
"460 404 OFFCURVE",
"316 425 CURVE",
"253 434 OFFCURVE",
"200 440 OFFCURVE",
"200 494 CURVE",
"200 533 OFFCURVE",
"258 563 OFFCURVE",
"316 562 CURVE"
);
}
);
width = 632;
},
{
layerId = "9AF1F7D9-E035-453E-B2A8-46DE370997D0";
paths = (
{
closed = 1;
nodes = (
"390 679 OFFCURVE",
"492 638 OFFCURVE",
"520 559 CURVE",
"549 569 LINE",
"516 655 OFFCURVE",
"414 704 OFFCURVE",
"315 708 CURVE",
"315 812 LINE",
"285 812 LINE",
"285 708 LINE",
"162 703 OFFCURVE",
"55 631 OFFCURVE",
"55 521 CURVE",
"55 395 OFFCURVE",
"160 359 OFFCURVE",
"299 333 CURVE",
"407 313 OFFCURVE",
"514 273 OFFCURVE",
"514 175 CURVE",
"514 79 OFFCURVE",
"412 17 OFFCURVE",
"299 17 CURVE",
"208 17 OFFCURVE",
"106 58 OFFCURVE",
"78 137 CURVE",
"50 126 LINE",
"79 43 OFFCURVE",
"180 -9 OFFCURVE",
"285 -13 CURVE",
"285 -113 LINE",
"315 -113 LINE",
"315 -13 LINE",
"438 -7 OFFCURVE",
"544 64 OFFCURVE",
"544 175 CURVE",
"544 288 OFFCURVE",
"428 341 OFFCURVE",
"299 365 CURVE",
"176 388 OFFCURVE",
"85 413 OFFCURVE",
"85 521 CURVE",
"85 616 OFFCURVE",
"185 679 OFFCURVE",
"299 679 CURVE"
);
}
);
width = 599;
}
);
leftKerningGroup = dollar;
rightKerningGroup = dollar;
unicode = 0024;
},
{
glyphname = euro;
lastChange = "2020-01-23 01:24:53 +0000";
layers = (
{
layerId = "10BC12B3-5274-42E3-B5BC-F74F362F0DF4";
paths = (
{
closed = 1;
nodes = (
"498 147 LINE",
"409 119 OFFCURVE",
"324 154 OFFCURVE",
"276 233 CURVE",
"394 233 LINE",
"394 333 LINE",
"245 333 LINE",
"244 365 LINE",
"394 365 LINE",
"394 465 LINE",
"275 465 LINE",
"320 542 OFFCURVE",
"405 582 OFFCURVE",
"498 553 CURVE",
"498 708 LINE",
"321 736 OFFCURVE",
"164 633 OFFCURVE",
"112 465 CURVE",
"30 465 LINE",
"30 365 LINE",
"94 365 LINE",
"94 333 LINE",
"30 333 LINE",
"30 233 LINE",
"112 233 LINE",
"166 68 OFFCURVE",
"320 -36 OFFCURVE",
"498 -8 CURVE"
);
}
);
width = 528;
},
{
layerId = "9AF1F7D9-E035-453E-B2A8-46DE370997D0";
paths = (
{
closed = 1;
nodes = (
"551 23 LINE",
"383 -11 OFFCURVE",
"226 100 OFFCURVE",
"185 269 CURVE",
"374 269 LINE",
"374 299 LINE",
"180 299 LINE",
"180 401 LINE",
"374 401 LINE",
"374 431 LINE",
"185 431 LINE",
"226 597 OFFCURVE",
"380 711 OFFCURVE",
"551 677 CURVE",
"551 707 LINE",
"372 743 OFFCURVE",
"196 619 OFFCURVE",
"154 431 CURVE",
"30 431 LINE",
"30 401 LINE",
"149 401 LINE",
"149 299 LINE",
"30 299 LINE",
"30 269 LINE",
"154 269 LINE",
"194 84 OFFCURVE",
"368 -44 OFFCURVE",
"551 -7 CURVE"
);
}
);
width = 581;
}
);
leftKerningGroup = euro;
rightKerningGroup = euro;
unicode = 20AC;
},
{
glyphname = sterling;
lastChange = "2020-01-23 01:24:53 +0000";
layers = (
{
layerId = "10BC12B3-5274-42E3-B5BC-F74F362F0DF4";
paths = (
{
closed = 1;
nodes = (
"574 0 LINE",
"574 150 LINE",
"344 150 LINE",
"345 156 OFFCURVE",
"349 173 OFFCURVE",
"349 188 CURVE SMOOTH",
"349 200 OFFCURVE",
"348 212 OFFCURVE",
"348 222 CURVE",
"462 222 LINE",
"462 322 LINE",
"323 322 LINE",
"269 344 OFFCURVE",
"274 340 OFFCURVE",
"252 362 CURVE SMOOTH",
"226 388 OFFCURVE",
"210 408 OFFCURVE",
"210 450 CURVE SMOOTH",
"210 512 OFFCURVE",
"261 563 OFFCURVE",
"323 563 CURVE SMOOTH",
"386 563 OFFCURVE",
"437 512 OFFCURVE",
"437 450 CURVE",
"587 450 LINE",
"587 595 OFFCURVE",
"468 713 OFFCURVE",
"323 713 CURVE SMOOTH",
"179 713 OFFCURVE",
"60 594 OFFCURVE",
"60 450 CURVE SMOOTH",
"60 392 OFFCURVE",
"79 367 OFFCURVE",
"113 322 CURVE",
"72 322 LINE",
"72 222 LINE",
"198 222 LINE",
"198 217 OFFCURVE",
"198 202 OFFCURVE",
"192 188 CURVE SMOOTH",
"181 155 OFFCURVE",
"116 150 OFFCURVE",
"72 150 CURVE",
"72 0 LINE"
);
}
);
width = 647;
},
{
layerId = "9AF1F7D9-E035-453E-B2A8-46DE370997D0";
paths = (
{
closed = 1;
nodes = (
"547 0 LINE",
"547 30 LINE",
"167 30 LINE",
"211 48 OFFCURVE",
"257 96 OFFCURVE",
"257 150 CURVE SMOOTH",
"257 182 OFFCURVE",
"252 207 OFFCURVE",
"244 226 CURVE",
"440 226 LINE",
"440 256 LINE",
"227 256 LINE",
"212 276 OFFCURVE",
"193 289 OFFCURVE",
"176 300 CURVE SMOOTH",
"117 338 OFFCURVE",
"90 397 OFFCURVE",
"90 470 CURVE SMOOTH",
"90 587 OFFCURVE",
"186 683 OFFCURVE",
"303 683 CURVE SMOOTH",
"421 683 OFFCURVE",
"517 587 OFFCURVE",
"517 470 CURVE",
"547 470 LINE",
"547 604 OFFCURVE",
"438 713 OFFCURVE",
"303 713 CURVE SMOOTH",
"169 713 OFFCURVE",
"60 604 OFFCURVE",
"60 470 CURVE SMOOTH",
"60 365 OFFCURVE",
"97 333 OFFCURVE",
"185 256 CURVE",
"72 256 LINE",
"72 226 LINE",
"211 226 LINE",
"221 209 OFFCURVE",
"227 185 OFFCURVE",
"227 150 CURVE SMOOTH",
"227 78 OFFCURVE",
"156 30 OFFCURVE",
"72 30 CURVE",
"72 0 LINE"
);
}
);
width = 607;
}
);
leftKerningGroup = sterling;
rightKerningGroup = sterling;
unicode = 00A3;
},
{
glyphname = yen;
lastChange = "2020-01-23 01:24:53 +0000";
layers = (
{
layerId = "10BC12B3-5274-42E3-B5BC-F74F362F0DF4";
paths = (
{
closed = 1;
nodes = (
"423 0 LINE",
"423 62 LINE",
"530 62 LINE",
"530 162 LINE",
"423 162 LINE",
"423 195 LINE",
"530 195 LINE",
"530 295 LINE",
"423 295 LINE",
"423 315 LINE",
"666 700 LINE",
"489 700 LINE",
"348 478 LINE",
"207 700 LINE",
"30 700 LINE",
"273 315 LINE",
"273 295 LINE",
"166 295 LINE",
"166 195 LINE",
"273 195 LINE",
"273 162 LINE",
"166 162 LINE",
"166 62 LINE",
"273 62 LINE",
"273 0 LINE"
);
}
);
width = 696;
},
{
layerId = "9AF1F7D9-E035-453E-B2A8-46DE370997D0";
paths = (
{
closed = 1;
nodes = (
"292 0 LINE",
"292 97 LINE",
"459 97 LINE",
"459 127 LINE",
"292 127 LINE",
"292 230 LINE",
"459 230 LINE",
"459 260 LINE",
"292 260 LINE",
"292 318 LINE",
"524 700 LINE",
"489 700 LINE",
"277 351 LINE",
"65 700 LINE",
"30 700 LINE",
"262 318 LINE",
"262 260 LINE",
"95 260 LINE",
"95 230 LINE",
"262 230 LINE",
"262 127 LINE",
"95 127 LINE",
"95 97 LINE",
"262 97 LINE",
"262 0 LINE"
);
}
);
width = 554;
}
);
leftKerningGroup = yen;
rightKerningGroup = yen;
unicode = 00A5;
},
{
glyphname = plus;
lastChange = "2020-01-23 01:24:53 +0000";
layers = (
{
layerId = "10BC12B3-5274-42E3-B5BC-F74F362F0DF4";
paths = (
{
closed = 1;
nodes = (
"385 0 LINE",
"385 175 LINE",
"560 175 LINE",
"560 325 LINE",
"385 325 LINE",
"385 500 LINE",
"235 500 LINE",
"235 325 LINE",
"60 325 LINE",
"60 175 LINE",
"235 175 LINE",
"235 0 LINE"
);
}
);
width = 620;
},
{
layerId = "9AF1F7D9-E035-453E-B2A8-46DE370997D0";
paths = (
{
closed = 1;
nodes = (
"325 0 LINE",
"325 235 LINE",
"560 235 LINE",
"560 265 LINE",
"325 265 LINE",
"325 500 LINE",
"295 500 LINE",
"295 265 LINE",
"60 265 LINE",
"60 235 LINE",
"295 235 LINE",
"295 0 LINE"
);
}
);
width = 620;
}
);
leftKerningGroup = plus;
rightKerningGroup = plus;
unicode = 002B;
},
{
glyphname = minus;
lastChange = "2020-01-23 01:24:53 +0000";
layers = (
{
layerId = "10BC12B3-5274-42E3-B5BC-F74F362F0DF4";
paths = (
{
closed = 1;
nodes = (
"560 175 LINE",
"560 325 LINE",
"60 325 LINE",
"60 175 LINE"
);
}
);
width = 620;
},
{
layerId = "9AF1F7D9-E035-453E-B2A8-46DE370997D0";
paths = (
{
closed = 1;
nodes = (
"560 235 LINE",
"560 265 LINE",
"60 265 LINE",
"60 235 LINE"
);
}
);
width = 620;
}
);
leftKerningGroup = minus;
rightKerningGroup = minus;
unicode = 2212;
},
{
glyphname = multiply;
lastChange = "2020-01-23 01:24:53 +0000";
layers = (
{
layerId = "10BC12B3-5274-42E3-B5BC-F74F362F0DF4";
paths = (
{
closed = 1;
nodes = (
"289 144 LINE",
"413 20 LINE",
"519 126 LINE",
"395 250 LINE",
"519 374 LINE",
"413 480 LINE",
"289 356 LINE",
"166 480 LINE",
"60 374 LINE",
"183 250 LINE",
"60 126 LINE",
"166 20 LINE"
);
}
);
width = 579;
},
{
layerId = "9AF1F7D9-E035-453E-B2A8-46DE370997D0";
paths = (
{
closed = 1;
nodes = (
"247 229 LINE",
"413 63 LINE",
"435 84 LINE",
"268 250 LINE",
"435 416 LINE",
"413 437 LINE",
"247 271 LINE",
"81 437 LINE",
"60 416 LINE",
"226 250 LINE",
"60 84 LINE",
"81 63 LINE"
);
}
);
width = 495;
}
);
leftKerningGroup = multiply;
rightKerningGroup = multiply;
unicode = 00D7;
},
{
glyphname = divide;
lastChange = "2020-01-23 01:24:53 +0000";
layers = (
{
layerId = "10BC12B3-5274-42E3-B5BC-F74F362F0DF4";
paths = (
{
closed = 1;
nodes = (
"560 175 LINE",
"560 325 LINE",
"60 325 LINE",
"60 175 LINE"
);
},
{
closed = 1;
nodes = (
"268 505 OFFCURVE",
"235 471 OFFCURVE",
"235 430 CURVE",
"235 389 OFFCURVE",
"268 355 OFFCURVE",
"310 355 CURVE",
"351 355 OFFCURVE",
"385 389 OFFCURVE",
"385 430 CURVE",
"385 471 OFFCURVE",
"351 505 OFFCURVE",
"310 505 CURVE"
);
},
{
closed = 1;
nodes = (
"268 145 OFFCURVE",
"235 111 OFFCURVE",
"235 70 CURVE",
"235 29 OFFCURVE",
"268 -5 OFFCURVE",
"310 -5 CURVE",
"351 -5 OFFCURVE",
"385 29 OFFCURVE",
"385 70 CURVE",
"385 111 OFFCURVE",
"351 145 OFFCURVE",
"310 145 CURVE"
);
}
);
width = 620;
},
{
layerId = "9AF1F7D9-E035-453E-B2A8-46DE370997D0";
paths = (
{
closed = 1;
nodes = (
"560 235 LINE",
"560 265 LINE",
"60 265 LINE",
"60 235 LINE"
);
},
{
closed = 1;
nodes = (
"286 472 OFFCURVE",
"270 451 OFFCURVE",
"270 431 CURVE",
"270 409 OFFCURVE",
"286 391 OFFCURVE",
"310 391 CURVE",
"331 391 OFFCURVE",
"349 409 OFFCURVE",
"349 431 CURVE",
"349 451 OFFCURVE",
"331 472 OFFCURVE",
"310 472 CURVE"
);
},
{
closed = 1;
nodes = (
"286 108 OFFCURVE",
"270 88 OFFCURVE",
"270 67 CURVE",
"270 45 OFFCURVE",
"286 28 OFFCURVE",
"310 28 CURVE",
"331 28 OFFCURVE",
"351 45 OFFCURVE",
"351 67 CURVE",
"351 88 OFFCURVE",
"331 108 OFFCURVE",
"310 108 CURVE"
);
}
);
width = 620;
}
);
leftKerningGroup = divide;
rightKerningGroup = divide;
unicode = 00F7;
},
{
glyphname = equal;
lastChange = "2020-01-23 01:24:53 +0000";
layers = (
{
layerId = "10BC12B3-5274-42E3-B5BC-F74F362F0DF4";
paths = (
{
closed = 1;
nodes = (
"560 64 LINE",
"560 214 LINE",
"60 214 LINE",
"60 64 LINE"
);
},
{
closed = 1;
nodes = (
"560 286 LINE",
"560 436 LINE",
"60 436 LINE",
"60 286 LINE"
);
}
);
width = 620;
},
{
layerId = "9AF1F7D9-E035-453E-B2A8-46DE370997D0";
paths = (
{
closed = 1;
nodes = (
"560 139 LINE",
"560 169 LINE",
"60 169 LINE",
"60 139 LINE"
);
},
{
closed = 1;
nodes = (
"560 331 LINE",
"560 361 LINE",
"60 361 LINE",
"60 331 LINE"
);
}
);
width = 620;
}
);
leftKerningGroup = equal;
rightKerningGroup = equal;
unicode = 003D;
},
{
glyphname = notequal;
lastChange = "2020-01-23 01:24:53 +0000";
layers = (
{
layerId = "10BC12B3-5274-42E3-B5BC-F74F362F0DF4";
paths = (
{
closed = 1;
nodes = (
"317 541 LINE",
"286 436 LINE",
"60 436 LINE",
"60 286 LINE",
"242 286 LINE",
"221 214 LINE",
"60 214 LINE",
"60 64 LINE",
"177 64 LINE",
"146 -41 LINE",
"302 -41 LINE",
"333 64 LINE",
"560 64 LINE",
"560 214 LINE",
"377 214 LINE",
"398 286 LINE",
"560 286 LINE",
"560 436 LINE",
"442 436 LINE",
"473 541 LINE"
);
}
);
width = 620;
},
{
layerId = "9AF1F7D9-E035-453E-B2A8-46DE370997D0";
paths = (
{
closed = 1;
nodes = (
"379 541 LINE",
"327 361 LINE",
"60 361 LINE",
"60 331 LINE",
"318 331 LINE",
"270 169 LINE",
"60 169 LINE",
"60 139 LINE",
"262 139 LINE",
"209 -41 LINE",
"240 -41 LINE",
"293 139 LINE",
"560 139 LINE",
"560 169 LINE",
"302 169 LINE",
"349 331 LINE",
"560 331 LINE",
"560 361 LINE",
"358 361 LINE",
"410 541 LINE"
);
}
);
width = 620;
}
);
leftKerningGroup = notequal;
rightKerningGroup = notequal;
unicode = 2260;
},
{
glyphname = greater;
lastChange = "2020-01-23 01:24:53 +0000";
layers = (
{
layerId = "10BC12B3-5274-42E3-B5BC-F74F362F0DF4";
paths = (
{
closed = 1;
nodes = (
"530 124 LINE",
"530 375 LINE",
"30 512 LINE",
"30 356 LINE",
"423 250 LINE",
"30 144 LINE",
"30 -12 LINE"
);
}
);
width = 620;
},
{
layerId = "9AF1F7D9-E035-453E-B2A8-46DE370997D0";
paths = (
{
closed = 1;
nodes = (
"560 226 LINE",
"560 273 LINE",
"60 416 LINE",
"60 384 LINE",
"533 250 LINE",
"60 115 LINE",
"60 84 LINE"
);
}
);
width = 620;
}
);
leftKerningGroup = greater;
rightKerningGroup = greater;
unicode = 003E;
},
{
glyphname = less;
lastChange = "2020-01-23 01:24:53 +0000";
layers = (
{
layerId = "10BC12B3-5274-42E3-B5BC-F74F362F0DF4";
paths = (
{
closed = 1;
nodes = (
"560 138 LINE",
"167 250 LINE",
"560 362 LINE",
"560 518 LINE",
"60 375 LINE",
"60 124 LINE",
"560 -18 LINE"
);
}
);
width = 620;
},
{
layerId = "9AF1F7D9-E035-453E-B2A8-46DE370997D0";
paths = (
{
closed = 1;
nodes = (
"560 115 LINE",
"87 250 LINE",
"560 384 LINE",
"560 416 LINE",
"60 273 LINE",
"60 226 LINE",
"560 84 LINE"
);
}
);
width = 620;
}
);
leftKerningGroup = less;
rightKerningGroup = less;
unicode = 003C;
},
{
glyphname = greaterequal;
lastChange = "2020-01-23 01:24:53 +0000";
layers = (
{
layerId = "10BC12B3-5274-42E3-B5BC-F74F362F0DF4";
paths = (
{
closed = 1;
nodes = (
"530 312 LINE",
"530 563 LINE",
"30 700 LINE",
"30 544 LINE",
"423 438 LINE",
"30 332 LINE",
"30 176 LINE"
);
},
{
closed = 1;
nodes = (
"530 0 LINE",
"530 150 LINE",
"30 150 LINE",
"30 0 LINE"
);
}
);
width = 620;
},
{
layerId = "9AF1F7D9-E035-453E-B2A8-46DE370997D0";
paths = (
{
closed = 1;
nodes = (
"560 310 LINE",
"560 357 LINE",
"60 500 LINE",
"60 468 LINE",
"533 334 LINE",
"60 199 LINE",
"60 168 LINE"
);
},
{
closed = 1;
nodes = (
"560 0 LINE",
"560 30 LINE",
"60 30 LINE",
"60 0 LINE"
);
}
);
width = 620;
}
);
leftKerningGroup = greaterequal;
rightKerningGroup = greaterequal;
unicode = 2265;
},
{
glyphname = lessequal;
lastChange = "2020-01-23 01:24:53 +0000";
layers = (
{
layerId = "10BC12B3-5274-42E3-B5BC-F74F362F0DF4";
paths = (
{
closed = 1;
nodes = (
"560 320 LINE",
"167 432 LINE",
"560 544 LINE",
"560 700 LINE",
"60 557 LINE",
"60 306 LINE",
"560 164 LINE"
);
},
{
closed = 1;
nodes = (
"560 0 LINE",
"560 150 LINE",
"60 150 LINE",
"60 0 LINE"
);
}
);
width = 620;
},
{
layerId = "9AF1F7D9-E035-453E-B2A8-46DE370997D0";
paths = (
{
closed = 1;
nodes = (
"560 199 LINE",
"87 334 LINE",
"560 468 LINE",
"560 500 LINE",
"60 357 LINE",
"60 310 LINE",
"560 168 LINE"
);
},
{
closed = 1;
nodes = (
"560 0 LINE",
"560 30 LINE",
"60 30 LINE",
"60 0 LINE"
);
}
);
width = 620;
}
);
leftKerningGroup = lessequal;
rightKerningGroup = lessequal;
unicode = 2264;
},
{
glyphname = plusminus;
lastChange = "2020-01-23 01:24:53 +0000";
layers = (
{
layerId = "10BC12B3-5274-42E3-B5BC-F74F362F0DF4";
paths = (
{
closed = 1;
nodes = (
"385 210 LINE",
"385 385 LINE",
"560 385 LINE",
"560 535 LINE",
"385 535 LINE",
"385 710 LINE",
"235 710 LINE",
"235 535 LINE",
"60 535 LINE",
"60 385 LINE",
"235 385 LINE",
"235 210 LINE"
);
},
{
closed = 1;
nodes = (
"560 0 LINE",
"560 150 LINE",
"60 150 LINE",
"60 0 LINE"
);
}
);
width = 600;
},
{
layerId = "9AF1F7D9-E035-453E-B2A8-46DE370997D0";
paths = (
{
closed = 1;
nodes = (
"327 103 LINE",
"327 338 LINE",
"562 338 LINE",
"562 368 LINE",
"327 368 LINE",
"327 603 LINE",
"297 603 LINE",
"297 368 LINE",
"62 368 LINE",
"62 338 LINE",
"297 338 LINE",
"297 103 LINE"
);
},
{
closed = 1;
nodes = (
"562 1 LINE",
"562 31 LINE",
"62 31 LINE",
"62 1 LINE"
);
}
);
width = 600;
}
);
leftKerningGroup = plusminus;
rightKerningGroup = plusminus;
unicode = 00B1;
},
{
glyphname = asciitilde;
lastChange = "2020-01-23 01:24:53 +0000";
layers = (
{
layerId = "10BC12B3-5274-42E3-B5BC-F74F362F0DF4";
paths = (
{
closed = 1;
nodes = (
"603 120 OFFCURVE",
"654 203 OFFCURVE",
"642 297 CURVE",
"495 301 LINE",
"495 276 OFFCURVE",
"489 256 OFFCURVE",
"464 256 CURVE SMOOTH",
"394 256 OFFCURVE",
"299 336 OFFCURVE",
"210 336 CURVE SMOOTH",
"114 336 OFFCURVE",
"38 251 OFFCURVE",
"50 157 CURVE",
"197 153 LINE",
"197 174 OFFCURVE",
"201 196 OFFCURVE",
"226 196 CURVE SMOOTH",
"296 196 OFFCURVE",
"418 120 OFFCURVE",
"507 120 CURVE SMOOTH"
);
}
);
width = 728;
},
{
layerId = "9AF1F7D9-E035-453E-B2A8-46DE370997D0";
paths = (
{
closed = 1;
nodes = (
"517 172 OFFCURVE",
"579 241 OFFCURVE",
"556 316 CURVE",
"527 307 LINE",
"542 254 OFFCURVE",
"500 203 OFFCURVE",
"445 203 CURVE SMOOTH",
"369 203 OFFCURVE",
"253 329 OFFCURVE",
"176 329 CURVE SMOOTH",
"99 329 OFFCURVE",
"44 253 OFFCURVE",
"65 184 CURVE",
"94 191 LINE",
"80 247 OFFCURVE",
"121 299 OFFCURVE",
"175 298 CURVE SMOOTH",
"241 299 OFFCURVE",
"362 172 OFFCURVE",
"444 172 CURVE SMOOTH"
);
}
);
width = 621;
}
);
leftKerningGroup = asciitilde;
rightKerningGroup = asciitilde;
unicode = 007E;
},
{
glyphname = logicalnot;
lastChange = "2020-01-23 01:24:53 +0000";
layers = (
{
layerId = "10BC12B3-5274-42E3-B5BC-F74F362F0DF4";
paths = (
{
closed = 1;
nodes = (
"505 50 LINE",
"505 375 LINE",
"60 375 LINE",
"60 225 LINE",
"355 225 LINE",
"355 50 LINE"
);
}
);
width = 565;
},
{
layerId = "9AF1F7D9-E035-453E-B2A8-46DE370997D0";
paths = (
{
closed = 1;
nodes = (
"447 50 LINE",
"447 315 LINE",
"60 315 LINE",
"60 285 LINE",
"417 285 LINE",
"417 50 LINE"
);
}
);
width = 507;
}
);
leftKerningGroup = logicalnot;
rightKerningGroup = logicalnot;
unicode = 00AC;
},
{
glyphname = asciicircum;
lastChange = "2020-01-23 01:24:53 +0000";
layers = (
{
layerId = "10BC12B3-5274-42E3-B5BC-F74F362F0DF4";
paths = (
{
closed = 1;
nodes = (
"188 375 LINE",
"251 549 LINE",
"314 375 LINE",
"474 375 LINE",
"356 700 LINE",
"146 700 LINE",
"28 375 LINE"
);
}
);
width = 523;
},
{
layerId = "9AF1F7D9-E035-453E-B2A8-46DE370997D0";
paths = (
{
closed = 1;
nodes = (
"197 375 LINE",
"289 626 LINE",
"380 375 LINE",
"412 375 LINE",
"294 700 LINE",
"284 700 LINE",
"166 375 LINE"
);
}
);
width = 600;
}
);
leftKerningGroup = asciicircum;
rightKerningGroup = asciicircum;
unicode = 005E;
},
{
glyphname = emptyset;
lastChange = "2020-01-23 01:24:53 +0000";
layers = (
{
layerId = "10BC12B3-5274-42E3-B5BC-F74F362F0DF4";
paths = (
{
closed = 1;
nodes = (
"204 -1 LINE",
"228 -9 OFFCURVE",
"253 -13 OFFCURVE",
"280 -13 CURVE SMOOTH",
"418 -13 OFFCURVE",
"530 105 OFFCURVE",
"530 250 CURVE SMOOTH",
"530 323 OFFCURVE",
"502 389 OFFCURVE",
"457 437 CURVE",
"484 484 LINE",
"380 544 LINE",
"355 502 LINE",
"332 510 OFFCURVE",
"306 514 OFFCURVE",
"280 514 CURVE SMOOTH",
"142 514 OFFCURVE",
"30 396 OFFCURVE",
"30 250 CURVE SMOOTH",
"30 178 OFFCURVE",
"58 112 OFFCURVE",
"103 64 CURVE",
"76 17 LINE",
"180 -43 LINE"
);
},
{
closed = 1;
nodes = (
"171 206 OFFCURVE",
"168 222 OFFCURVE",
"168 241 CURVE SMOOTH",
"168 316 OFFCURVE",
"221 381 OFFCURVE",
"288 383 CURVE",
"177 190 LINE"
);
},
{
closed = 1;
nodes = (
"383 311 LINE",
"388 295 OFFCURVE",
"392 278 OFFCURVE",
"392 259 CURVE SMOOTH",
"392 184 OFFCURVE",
"341 120 OFFCURVE",
"272 118 CURVE"
);
}
);
width = 560;
},
{
layerId = "9AF1F7D9-E035-453E-B2A8-46DE370997D0";
paths = (
{
closed = 1;
nodes = (
"163 18 LINE",
"198 -1 OFFCURVE",
"238 -13 OFFCURVE",
"280 -13 CURVE SMOOTH",
"418 -13 OFFCURVE",
"530 105 OFFCURVE",
"530 250 CURVE SMOOTH",
"530 341 OFFCURVE",
"488 420 OFFCURVE",
"423 468 CURVE",
"446 507 LINE",
"420 522 LINE",
"397 484 LINE",
"363 503 OFFCURVE",
"323 514 OFFCURVE",
"280 514 CURVE SMOOTH",
"142 514 OFFCURVE",
"30 396 OFFCURVE",
"30 250 CURVE SMOOTH",
"30 161 OFFCURVE",
"73 82 OFFCURVE",
"138 34 CURVE",
"115 -5 LINE",
"141 -20 LINE"
);
},
{
closed = 1;
nodes = (
"97 103 OFFCURVE",
"60 172 OFFCURVE",
"60 250 CURVE SMOOTH",
"60 423 OFFCURVE",
"236 540 OFFCURVE",
"382 458 CURVE",
"153 61 LINE"
);
},
{
closed = 1;
nodes = (
"408 441 LINE",
"464 398 OFFCURVE",
"500 328 OFFCURVE",
"500 250 CURVE SMOOTH",
"500 81 OFFCURVE",
"330 -40 OFFCURVE",
"178 44 CURVE"
);
}
);
width = 560;
}
);
leftKerningGroup = emptyset;
rightKerningGroup = emptyset;
unicode = 2205;
},
{
glyphname = infinity;
lastChange = "2020-01-23 06:15:13 +0000";
layers = (
{
layerId = "10BC12B3-5274-42E3-B5BC-F74F362F0DF4";
paths = (
{
closed = 1;
nodes = (
"283 109 OFFCURVE",
"333 139 OFFCURVE",
"377 191 CURVE",
"420 142 OFFCURVE",
"469 114 OFFCURVE",
"532 114 CURVE SMOOTH",
"647 114 OFFCURVE",
"724 197 OFFCURVE",
"724 307 CURVE SMOOTH",
"724 410 OFFCURVE",
"654 500 OFFCURVE",
"532 500 CURVE SMOOTH",
"472 500 OFFCURVE",
"422 474 OFFCURVE",
"377 422 CURVE",
"335 472 OFFCURVE",
"285 500 OFFCURVE",
"223 500 CURVE SMOOTH",
"108 500 OFFCURVE",
"30 416 OFFCURVE",
"30 307 CURVE SMOOTH",
"30 204 OFFCURVE",
"102 124 OFFCURVE",
"223 114 CURVE SMOOTH"
);
},
{
closed = 1;
nodes = (
"187 250 OFFCURVE",
"165 275 OFFCURVE",
"165 307 CURVE SMOOTH",
"165 333 OFFCURVE",
"184 362 OFFCURVE",
"221 363 CURVE SMOOTH",
"249 365 OFFCURVE",
"283 325 OFFCURVE",
"295 307 CURVE",
"285 291 OFFCURVE",
"250 250 OFFCURVE",
"221 250 CURVE SMOOTH"
);
},
{
closed = 1;
nodes = (
"506 249 OFFCURVE",
"472 289 OFFCURVE",
"460 307 CURVE",
"477 331 OFFCURVE",
"506 364 OFFCURVE",
"540 364 CURVE SMOOTH",
"569 364 OFFCURVE",
"590 336 OFFCURVE",
"590 307 CURVE SMOOTH",
"590 279 OFFCURVE",
"571 251 OFFCURVE",
"534 250 CURVE SMOOTH"
);
}
);
width = 754;
},
{
layerId = "9AF1F7D9-E035-453E-B2A8-46DE370997D0";
paths = (
{
closed = 1;
nodes = (
"246 170 OFFCURVE",
"277 206 OFFCURVE",
"349 293 CURVE",
"424 201 OFFCURVE",
"454 170 OFFCURVE",
"535 170 CURVE",
"610 179 OFFCURVE",
"667 241 OFFCURVE",
"667 316 CURVE SMOOTH",
"667 394 OFFCURVE",
"614 455 OFFCURVE",
"521 462 CURVE",
"453 462 OFFCURVE",
"414 420 OFFCURVE",
"349 339 CURVE",
"279 424 OFFCURVE",
"247 462 OFFCURVE",
"163 462 CURVE",
"87 455 OFFCURVE",
"30 391 OFFCURVE",
"30 316 CURVE SMOOTH",
"30 244 OFFCURVE",
"84 180 OFFCURVE",
"163 170 CURVE"
);
},
{
closed = 1;
nodes = (
"108 207 OFFCURVE",
"60 253 OFFCURVE",
"60 316 CURVE SMOOTH",
"60 376 OFFCURVE",
"105 425 OFFCURVE",
"165 432 CURVE",
"236 432 OFFCURVE",
"252 408 OFFCURVE",
"329 316 CURVE",
"255 227 OFFCURVE",
"237 200 OFFCURVE",
"165 200 CURVE"
);
},
{
closed = 1;
nodes = (
"467 200 OFFCURVE",
"454 214 OFFCURVE",
"368 316 CURVE",
"439 400 OFFCURVE",
"461 432 OFFCURVE",
"521 432 CURVE",
"594 425 OFFCURVE",
"637 378 OFFCURVE",
"637 316 CURVE SMOOTH",
"637 256 OFFCURVE",
"591 207 OFFCURVE",
"532 200 CURVE"
);
}
);
width = 697;
}
);
leftKerningGroup = infinity;
rightKerningGroup = infinity;
unicode = 221E;
},
{
glyphname = integral;
lastChange = "2020-01-23 01:24:53 +0000";
layers = (
{
layerId = "10BC12B3-5274-42E3-B5BC-F74F362F0DF4";
paths = (
{
closed = 1;
nodes = (
"263 -13 OFFCURVE",
"324 19 OFFCURVE",
"344 101 CURVE",
"390 558 LINE",
"393 580 OFFCURVE",
"406 591 OFFCURVE",
"421 593 CURVE",
"442 597 OFFCURVE",
"461 588 OFFCURVE",
"466 554 CURVE",
"549 546 LINE",
"557 632 OFFCURVE",
"486 713 OFFCURVE",
"396 713 CURVE SMOOTH",
"327 713 OFFCURVE",
"254 662 OFFCURVE",
"245 598 CURVE",
"198 138 LINE",
"195 117 OFFCURVE",
"179 105 OFFCURVE",
"157 105 CURVE SMOOTH",
"135 105 OFFCURVE",
"136 123 OFFCURVE",
"132 146 CURVE",
"40 153 LINE",
"35 56 OFFCURVE",
"106 -13 OFFCURVE",
"201 -13 CURVE SMOOTH"
);
}
);
width = 590;
},
{
layerId = "9AF1F7D9-E035-453E-B2A8-46DE370997D0";
paths = (
{
closed = 1;
nodes = (
"142 -12 OFFCURVE",
"167 8 OFFCURVE",
"171 47 CURVE",
"223 651 LINE",
"224 667 OFFCURVE",
"240 686 OFFCURVE",
"262 683 CURVE",
"281 682 OFFCURVE",
"296 665 OFFCURVE",
"295 645 CURVE",
"324 642 LINE",
"327 679 OFFCURVE",
"300 710 OFFCURVE",
"264 713 CURVE",
"230 715 OFFCURVE",
"198 693 OFFCURVE",
"193 654 CURVE",
"141 49 LINE",
"138 29 OFFCURVE",
"122 15 OFFCURVE",
"103 17 CURVE",
"82 21 OFFCURVE",
"68 36 OFFCURVE",
"71 55 CURVE",
"41 58 LINE",
"36 21 OFFCURVE",
"66 -12 OFFCURVE",
"100 -13 CURVE"
);
}
);
width = 364;
}
);
leftKerningGroup = integral;
rightKerningGroup = integral;
unicode = 222B;
},
{
glyphname = product;
lastChange = "2020-01-23 01:24:53 +0000";
layers = (
{
layerId = "10BC12B3-5274-42E3-B5BC-F74F362F0DF4";
paths = (
{
closed = 1;
nodes = (
"40 550 LINE",
"600 550 LINE",
"600 700 LINE",
"40 700 LINE"
);
},
{
closed = 1;
nodes = (
"95 0 LINE",
"245 0 LINE",
"245 597 LINE",
"95 597 LINE"
);
},
{
closed = 1;
nodes = (
"395 0 LINE",
"545 0 LINE",
"545 597 LINE",
"395 597 LINE"
);
}
);
width = 640;
},
{
layerId = "9AF1F7D9-E035-453E-B2A8-46DE370997D0";
paths = (
{
closed = 1;
nodes = (
"40 670 LINE",
"600 670 LINE",
"600 700 LINE",
"40 700 LINE"
);
},
{
closed = 1;
nodes = (
"155 0 LINE",
"185 0 LINE",
"185 682 LINE",
"155 682 LINE"
);
},
{
closed = 1;
nodes = (
"455 0 LINE",
"485 0 LINE",
"485 682 LINE",
"455 682 LINE"
);
}
);
width = 640;
}
);
leftKerningGroup = product;
rightKerningGroup = product;
unicode = 220F;
},
{
glyphname = summation;
lastChange = "2020-01-23 01:24:53 +0000";
layers = (
{
layerId = "10BC12B3-5274-42E3-B5BC-F74F362F0DF4";
paths = (
{
closed = 1;
nodes = (
"423 0 LINE",
"423 150 LINE",
"209 150 LINE",
"310 349 LINE",
"209 548 LINE",
"423 548 LINE",
"423 698 LINE",
"40 698 LINE",
"40 548 LINE",
"142 349 LINE",
"40 150 LINE",
"40 0 LINE"
);
}
);
width = 443;
},
{
layerId = "9AF1F7D9-E035-453E-B2A8-46DE370997D0";
paths = (
{
closed = 1;
nodes = (
"460 0 LINE",
"460 30 LINE",
"74 30 LINE",
"237 349 LINE",
"74 668 LINE",
"460 668 LINE",
"460 698 LINE",
"40 698 LINE",
"40 668 LINE",
"203 349 LINE",
"40 30 LINE",
"40 0 LINE"
);
}
);
width = 480;
}
);
leftKerningGroup = summation;
rightKerningGroup = summation;
unicode = 2211;
},
{
glyphname = radical;
lastChange = "2020-01-23 01:24:53 +0000";
layers = (
{
layerId = "10BC12B3-5274-42E3-B5BC-F74F362F0DF4";
paths = (
{
closed = 1;
nodes = (
"249 172 LINE",
"182 354 LINE",
"23 354 LINE",
"152 0 LINE",
"346 0 LINE",
"547 550 LINE",
"632 550 LINE",
"632 700 LINE",
"442 700 LINE"
);
}
);
width = 705;
},
{
layerId = "9AF1F7D9-E035-453E-B2A8-46DE370997D0";
paths = (
{
closed = 1;
nodes = (
"174 48 LINE",
"62 354 LINE",
"30 354 LINE",
"159 0 LINE",
"188 0 LINE",
"433 670 LINE",
"570 670 LINE",
"570 700 LINE",
"412 700 LINE"
);
}
);
width = 580;
}
);
leftKerningGroup = radical;
rightKerningGroup = radical;
unicode = 221A;
},
{
glyphname = partialdiff;
lastChange = "2020-01-23 18:40:19 +0000";
layers = (
{
layerId = "10BC12B3-5274-42E3-B5BC-F74F362F0DF4";
paths = (
{
closed = 1;
nodes = (
"417 -13 OFFCURVE",
"523 99 OFFCURVE",
"523 256 CURVE",
"523 523 OFFCURVE",
"380 770 OFFCURVE",
"149 770 CURVE",
"150 620 LINE",
"259 620 OFFCURVE",
"285 540 OFFCURVE",
"312 486 CURVE",
"299 489 OFFCURVE",
"285 490 OFFCURVE",
"272 490 CURVE",
"133 490 OFFCURVE",
"20 377 OFFCURVE",
"20 238 CURVE",
"20 100 OFFCURVE",
"133 -13 OFFCURVE",
"272 -13 CURVE"
);
},
{
closed = 1;
nodes = (
"216 137 OFFCURVE",
"170 183 OFFCURVE",
"170 238 CURVE",
"170 294 OFFCURVE",
"216 340 OFFCURVE",
"272 340 CURVE",
"327 340 OFFCURVE",
"373 294 OFFCURVE",
"373 238 CURVE",
"373 183 OFFCURVE",
"327 137 OFFCURVE",
"272 137 CURVE"
);
}
);
width = 600;
},
{
layerId = "9AF1F7D9-E035-453E-B2A8-46DE370997D0";
paths = (
{
closed = 1;
nodes = (
"421 -13 OFFCURVE",
"522 99 OFFCURVE",
"522 261 CURVE",
"520 526 OFFCURVE",
"360 739 OFFCURVE",
"160 739 CURVE",
"160 709 LINE",
"326 709 OFFCURVE",
"450 547 OFFCURVE",
"482 375 CURVE",
"437 444 OFFCURVE",
"360 489 OFFCURVE",
"271 489 CURVE",
"133 489 OFFCURVE",
"20 377 OFFCURVE",
"20 238 CURVE",
"20 99 OFFCURVE",
"133 -13 OFFCURVE",
"271 -13 CURVE"
);
},
{
closed = 1;
nodes = (
"148 17 OFFCURVE",
"50 118 OFFCURVE",
"50 238 CURVE",
"50 357 OFFCURVE",
"146 459 OFFCURVE",
"271 459 CURVE",
"395 459 OFFCURVE",
"493 359 OFFCURVE",
"493 238 CURVE",
"493 120 OFFCURVE",
"397 17 OFFCURVE",
"271 17 CURVE"
);
}
);
width = 600;
}
);
leftKerningGroup = partialdiff;
rightKerningGroup = partialdiff;
unicode = 2202;
},
{
glyphname = percent;
lastChange = "2020-01-23 01:24:53 +0000";
layers = (
{
layerId = "10BC12B3-5274-42E3-B5BC-F74F362F0DF4";
paths = (
{
closed = 1;
nodes = (
"282 0 LINE",
"686 700 LINE",
"513 700 LINE",
"109 0 LINE"
);
},
{
closed = 1;
nodes = (
"285 380 OFFCURVE",
"363 451 OFFCURVE",
"363 546 CURVE SMOOTH",
"363 639 OFFCURVE",
"288 712 OFFCURVE",
"197 712 CURVE SMOOTH",
"108 712 OFFCURVE",
"30 642 OFFCURVE",
"30 546 CURVE SMOOTH",
"30 453 OFFCURVE",
"106 380 OFFCURVE",
"197 380 CURVE SMOOTH"
);
},
{
closed = 1;
nodes = (
"160 480 OFFCURVE",
"130 509 OFFCURVE",
"130 546 CURVE SMOOTH",
"130 583 OFFCURVE",
"160 612 OFFCURVE",
"197 612 CURVE SMOOTH",
"233 612 OFFCURVE",
"263 583 OFFCURVE",
"263 546 CURVE SMOOTH",
"263 509 OFFCURVE",
"233 480 OFFCURVE",
"197 480 CURVE SMOOTH"
);
},
{
closed = 1;
nodes = (
"690 -13 OFFCURVE",
"765 62 OFFCURVE",
"765 153 CURVE SMOOTH",
"765 241 OFFCURVE",
"694 320 OFFCURVE",
"598 320 CURVE SMOOTH",
"510 320 OFFCURVE",
"432 248 OFFCURVE",
"432 153 CURVE SMOOTH",
"432 66 OFFCURVE",
"505 -13 OFFCURVE",
"598 -13 CURVE SMOOTH"
);
},
{
closed = 1;
nodes = (
"562 87 OFFCURVE",
"532 117 OFFCURVE",
"532 153 CURVE SMOOTH",
"532 190 OFFCURVE",
"562 220 OFFCURVE",
"598 220 CURVE SMOOTH",
"635 220 OFFCURVE",
"665 190 OFFCURVE",
"665 153 CURVE SMOOTH",
"665 117 OFFCURVE",
"635 87 OFFCURVE",
"598 87 CURVE SMOOTH"
);
}
);
width = 795;
},
{
layerId = "9AF1F7D9-E035-453E-B2A8-46DE370997D0";
paths = (
{
closed = 1;
nodes = (
"82 0 LINE",
"486 700 LINE",
"451 700 LINE",
"47 0 LINE"
);
},
{
closed = 1;
nodes = (
"179 450 OFFCURVE",
"222 493 OFFCURVE",
"222 546 CURVE",
"222 599 OFFCURVE",
"179 643 OFFCURVE",
"126 643 CURVE",
"73 643 OFFCURVE",
"30 599 OFFCURVE",
"30 546 CURVE",
"30 493 OFFCURVE",
"73 450 OFFCURVE",
"126 450 CURVE"
);
},
{
closed = 1;
nodes = (
"89 480 OFFCURVE",
"60 510 OFFCURVE",
"60 546 CURVE",
"60 583 OFFCURVE",
"89 613 OFFCURVE",
"126 613 CURVE",
"163 613 OFFCURVE",
"192 583 OFFCURVE",
"192 546 CURVE",
"192 510 OFFCURVE",
"163 480 OFFCURVE",
"126 480 CURVE"
);
},
{
closed = 1;
nodes = (
"461 57 OFFCURVE",
"504 101 OFFCURVE",
"504 154 CURVE",
"504 207 OFFCURVE",
"461 250 OFFCURVE",
"408 250 CURVE",
"355 250 OFFCURVE",
"311 207 OFFCURVE",
"311 154 CURVE",
"311 101 OFFCURVE",
"355 57 OFFCURVE",
"408 57 CURVE"
);
},
{
closed = 1;
nodes = (
"371 87 OFFCURVE",
"341 117 OFFCURVE",
"341 154 CURVE",
"341 190 OFFCURVE",
"371 220 OFFCURVE",
"408 220 CURVE",
"444 220 OFFCURVE",
"474 190 OFFCURVE",
"474 154 CURVE",
"474 117 OFFCURVE",
"444 87 OFFCURVE",
"408 87 CURVE"
);
}
);
width = 534;
}
);
leftKerningGroup = percent;
rightKerningGroup = percent;
unicode = 0025;
},
{
glyphname = perthousand;
lastChange = "2020-01-23 01:24:53 +0000";
layers = (
{
layerId = "10BC12B3-5274-42E3-B5BC-F74F362F0DF4";
paths = (
{
closed = 1;
nodes = (
"282 0 LINE",
"686 700 LINE",
"513 700 LINE",
"109 0 LINE"
);
},
{
closed = 1;
nodes = (
"285 380 OFFCURVE",
"363 451 OFFCURVE",
"363 546 CURVE",
"363 638 OFFCURVE",
"288 712 OFFCURVE",
"197 712 CURVE",
"108 712 OFFCURVE",
"30 642 OFFCURVE",
"30 546 CURVE",
"30 453 OFFCURVE",
"106 380 OFFCURVE",
"197 380 CURVE"
);
},
{
closed = 1;
nodes = (
"160 480 OFFCURVE",
"130 509 OFFCURVE",
"130 546 CURVE",
"130 583 OFFCURVE",
"160 612 OFFCURVE",
"197 612 CURVE",
"233 612 OFFCURVE",
"263 583 OFFCURVE",
"263 546 CURVE",
"263 509 OFFCURVE",
"233 480 OFFCURVE",
"197 480 CURVE"
);
},
{
closed = 1;
nodes = (
"690 -13 OFFCURVE",
"765 62 OFFCURVE",
"765 153 CURVE",
"765 241 OFFCURVE",
"694 320 OFFCURVE",
"598 320 CURVE",
"510 320 OFFCURVE",
"432 248 OFFCURVE",
"432 153 CURVE",
"432 66 OFFCURVE",
"505 -13 OFFCURVE",
"598 -13 CURVE"
);
},
{
closed = 1;
nodes = (
"562 87 OFFCURVE",
"532 117 OFFCURVE",
"532 153 CURVE",
"532 190 OFFCURVE",
"562 220 OFFCURVE",
"598 220 CURVE",
"635 220 OFFCURVE",
"665 190 OFFCURVE",
"665 153 CURVE",
"665 117 OFFCURVE",
"635 87 OFFCURVE",
"598 87 CURVE"
);
},
{
closed = 1;
nodes = (
"1050 -13 OFFCURVE",
"1125 62 OFFCURVE",
"1125 153 CURVE",
"1125 241 OFFCURVE",
"1054 320 OFFCURVE",
"958 320 CURVE",
"870 320 OFFCURVE",
"792 248 OFFCURVE",
"792 153 CURVE",
"792 66 OFFCURVE",
"865 -13 OFFCURVE",
"958 -13 CURVE"
);
},
{
closed = 1;
nodes = (
"922 87 OFFCURVE",
"892 117 OFFCURVE",
"892 153 CURVE",
"892 190 OFFCURVE",
"922 220 OFFCURVE",
"958 220 CURVE",
"995 220 OFFCURVE",
"1025 190 OFFCURVE",
"1025 153 CURVE",
"1025 117 OFFCURVE",
"995 87 OFFCURVE",
"958 87 CURVE"
);
}
);
width = 1195;
},
{
layerId = "9AF1F7D9-E035-453E-B2A8-46DE370997D0";
paths = (
{
closed = 1;
nodes = (
"82 0 LINE",
"486 700 LINE",
"451 700 LINE",
"47 0 LINE"
);
},
{
closed = 1;
nodes = (
"179 450 OFFCURVE",
"222 493 OFFCURVE",
"222 546 CURVE",
"222 599 OFFCURVE",
"179 643 OFFCURVE",
"126 643 CURVE",
"73 643 OFFCURVE",
"30 599 OFFCURVE",
"30 546 CURVE",
"30 493 OFFCURVE",
"73 450 OFFCURVE",
"126 450 CURVE"
);
},
{
closed = 1;
nodes = (
"89 480 OFFCURVE",
"60 510 OFFCURVE",
"60 546 CURVE",
"60 583 OFFCURVE",
"89 613 OFFCURVE",
"126 613 CURVE",
"163 613 OFFCURVE",
"192 583 OFFCURVE",
"192 546 CURVE",
"192 510 OFFCURVE",
"163 480 OFFCURVE",
"126 480 CURVE"
);
},
{
closed = 1;
nodes = (
"431 57 OFFCURVE",
"474 101 OFFCURVE",
"474 154 CURVE",
"474 207 OFFCURVE",
"431 250 OFFCURVE",
"378 250 CURVE",
"325 250 OFFCURVE",
"281 207 OFFCURVE",
"281 154 CURVE",
"281 101 OFFCURVE",
"325 57 OFFCURVE",
"378 57 CURVE"
);
},
{
closed = 1;
nodes = (
"341 87 OFFCURVE",
"311 117 OFFCURVE",
"311 154 CURVE",
"311 190 OFFCURVE",
"341 220 OFFCURVE",
"378 220 CURVE",
"414 220 OFFCURVE",
"444 190 OFFCURVE",
"444 154 CURVE",
"444 117 OFFCURVE",
"414 87 OFFCURVE",
"378 87 CURVE"
);
},
{
closed = 1;
nodes = (
"666 57 OFFCURVE",
"709 101 OFFCURVE",
"709 154 CURVE",
"709 207 OFFCURVE",
"666 250 OFFCURVE",
"613 250 CURVE",
"560 250 OFFCURVE",
"516 207 OFFCURVE",
"516 154 CURVE",
"516 101 OFFCURVE",
"560 57 OFFCURVE",
"613 57 CURVE"
);
},
{
closed = 1;
nodes = (
"576 87 OFFCURVE",
"546 117 OFFCURVE",
"546 154 CURVE",
"546 190 OFFCURVE",
"576 220 OFFCURVE",
"613 220 CURVE",
"649 220 OFFCURVE",
"679 190 OFFCURVE",
"679 154 CURVE",
"679 117 OFFCURVE",
"649 87 OFFCURVE",
"613 87 CURVE"
);
}
);
width = 739;
}
);
leftKerningGroup = percent;
rightKerningGroup = percent;
unicode = 2030;
},
{
glyphname = upArrow;
lastChange = "2020-01-23 01:24:53 +0000";
layers = (
{
layerId = "10BC12B3-5274-42E3-B5BC-F74F362F0DF4";
paths = (
{
closed = 1;
nodes = (
"351 -17 LINE",
"351 329 LINE",
"446 235 LINE",
"552 341 LINE",
"276 617 LINE",
"0 341 LINE",
"106 235 LINE",
"201 329 LINE",
"201 -17 LINE"
);
}
);
width = 600;
},
{
layerId = "9AF1F7D9-E035-453E-B2A8-46DE370997D0";
paths = (
{
closed = 1;
nodes = (
"279 4 LINE",
"279 539 LINE",
"476 341 LINE",
"497 363 LINE",
"264 596 LINE",
"30 363 LINE",
"52 341 LINE",
"249 539 LINE",
"249 4 LINE"
);
}
);
width = 527;
}
);
leftKerningGroup = upArrow;
rightKerningGroup = upArrow;
unicode = 2191;
},
{
glyphname = northEastArrow;
lastChange = "2020-01-23 01:24:53 +0000";
layers = (
{
layerId = "10BC12B3-5274-42E3-B5BC-F74F362F0DF4";
paths = (
{
closed = 1;
nodes = (
"381 294 LINE",
"381 160 LINE",
"531 160 LINE",
"531 550 LINE",
"140 550 LINE",
"140 400 LINE",
"275 400 LINE",
"30 156 LINE",
"136 50 LINE"
);
}
);
width = 581;
},
{
layerId = "9AF1F7D9-E035-453E-B2A8-46DE370997D0";
paths = (
{
closed = 1;
nodes = (
"428 463 LINE",
"428 184 LINE",
"458 184 LINE",
"458 514 LINE",
"128 514 LINE",
"128 484 LINE",
"407 484 LINE",
"30 107 LINE",
"51 86 LINE"
);
}
);
width = 508;
}
);
leftKerningGroup = northEastArrow;
rightKerningGroup = northEastArrow;
unicode = 2197;
},
{
glyphname = rightArrow;
lastChange = "2020-01-23 01:24:53 +0000";
layers = (
{
layerId = "10BC12B3-5274-42E3-B5BC-F74F362F0DF4";
paths = (
{
closed = 1;
nodes = (
"654 300 LINE",
"378 576 LINE",
"272 470 LINE",
"366 375 LINE",
"20 375 LINE",
"20 225 LINE",
"366 225 LINE",
"272 130 LINE",
"378 24 LINE"
);
}
);
width = 694;
},
{
layerId = "9AF1F7D9-E035-453E-B2A8-46DE370997D0";
paths = (
{
closed = 1;
nodes = (
"611 300 LINE",
"377 533 LINE",
"356 512 LINE",
"553 315 LINE",
"20 315 LINE",
"20 285 LINE",
"553 285 LINE",
"356 88 LINE",
"377 67 LINE"
);
}
);
width = 651;
}
);
leftKerningGroup = rightArrow;
rightKerningGroup = rightArrow;
unicode = 2192;
},
{
glyphname = southEastArrow;
lastChange = "2020-01-23 01:24:53 +0000";
layers = (
{
layerId = "10BC12B3-5274-42E3-B5BC-F74F362F0DF4";
paths = (
{
closed = 1;
nodes = (
"531 50 LINE",
"531 440 LINE",
"381 440 LINE",
"381 306 LINE",
"136 550 LINE",
"30 444 LINE",
"275 200 LINE",
"141 200 LINE",
"141 50 LINE"
);
}
);
width = 581;
},
{
layerId = "9AF1F7D9-E035-453E-B2A8-46DE370997D0";
paths = (
{
closed = 1;
nodes = (
"458 86 LINE",
"458 416 LINE",
"428 416 LINE",
"428 137 LINE",
"51 514 LINE",
"30 493 LINE",
"407 116 LINE",
"128 116 LINE",
"128 86 LINE"
);
}
);
width = 508;
}
);
leftKerningGroup = southEastArrow;
rightKerningGroup = southEastArrow;
unicode = 2198;
},
{
glyphname = downArrow;
lastChange = "2020-01-23 01:24:53 +0000";
layers = (
{
layerId = "10BC12B3-5274-42E3-B5BC-F74F362F0DF4";
paths = (
{
closed = 1;
nodes = (
"551 259 LINE",
"445 365 LINE",
"350 271 LINE",
"350 617 LINE",
"200 617 LINE",
"200 271 LINE",
"106 365 LINE",
"0 259 LINE",
"275 -17 LINE"
);
}
);
width = 600;
},
{
layerId = "9AF1F7D9-E035-453E-B2A8-46DE370997D0";
paths = (
{
closed = 1;
nodes = (
"497 238 LINE",
"476 259 LINE",
"278 62 LINE",
"278 595 LINE",
"248 595 LINE",
"248 62 LINE",
"51 259 LINE",
"30 238 LINE",
"263 5 LINE"
);
}
);
width = 527;
}
);
leftKerningGroup = downArrow;
rightKerningGroup = downArrow;
unicode = 2193;
},
{
glyphname = southWestArrow;
lastChange = "2020-01-23 01:24:53 +0000";
layers = (
{
layerId = "10BC12B3-5274-42E3-B5BC-F74F362F0DF4";
paths = (
{
closed = 1;
nodes = (
"440 50 LINE",
"440 200 LINE",
"306 200 LINE",
"551 444 LINE",
"445 550 LINE",
"200 306 LINE",
"200 440 LINE",
"50 440 LINE",
"50 50 LINE"
);
}
);
width = 581;
},
{
layerId = "9AF1F7D9-E035-453E-B2A8-46DE370997D0";
paths = (
{
closed = 1;
nodes = (
"380 86 LINE",
"380 116 LINE",
"101 116 LINE",
"478 493 LINE",
"457 514 LINE",
"80 137 LINE",
"80 416 LINE",
"50 416 LINE",
"50 86 LINE"
);
}
);
width = 508;
}
);
leftKerningGroup = southWestArrow;
rightKerningGroup = southWestArrow;
unicode = 2199;
},
{
glyphname = leftArrow;
lastChange = "2020-01-23 01:24:53 +0000";
layers = (
{
layerId = "10BC12B3-5274-42E3-B5BC-F74F362F0DF4";
paths = (
{
closed = 1;
nodes = (
"422 130 LINE",
"327 225 LINE",
"673 225 LINE",
"673 375 LINE",
"327 375 LINE",
"422 470 LINE",
"316 576 LINE",
"40 300 LINE",
"316 24 LINE"
);
}
);
width = 693;
},
{
layerId = "9AF1F7D9-E035-453E-B2A8-46DE370997D0";
paths = (
{
closed = 1;
nodes = (
"294 88 LINE",
"97 285 LINE",
"631 285 LINE",
"631 315 LINE",
"97 315 LINE",
"294 512 LINE",
"273 533 LINE",
"40 300 LINE",
"273 67 LINE"
);
}
);
width = 651;
}
);
leftKerningGroup = leftArrow;
rightKerningGroup = leftArrow;
unicode = 2190;
},
{
glyphname = northWestArrow;
lastChange = "2020-01-23 01:24:53 +0000";
layers = (
{
layerId = "10BC12B3-5274-42E3-B5BC-F74F362F0DF4";
paths = (
{
closed = 1;
nodes = (
"551 106 LINE",
"306 351 LINE",
"440 351 LINE",
"440 501 LINE",
"50 501 LINE",
"50 111 LINE",
"200 111 LINE",
"200 245 LINE",
"445 0 LINE"
);
}
);
width = 581;
},
{
layerId = "9AF1F7D9-E035-453E-B2A8-46DE370997D0";
paths = (
{
closed = 1;
nodes = (
"479 107 LINE",
"102 484 LINE",
"380 484 LINE",
"380 514 LINE",
"50 514 LINE",
"50 184 LINE",
"80 184 LINE",
"80 463 LINE",
"458 86 LINE"
);
}
);
width = 509;
}
);
leftKerningGroup = northWestArrow;
rightKerningGroup = northWestArrow;
unicode = 2196;
},
{
glyphname = leftRightArrow;
lastChange = "2020-01-23 01:24:53 +0000";
layers = (
{
layerId = "10BC12B3-5274-42E3-B5BC-F74F362F0DF4";
paths = (
{
closed = 1;
nodes = (
"422 130 LINE",
"327 225 LINE",
"636 225 LINE",
"542 130 LINE",
"648 24 LINE",
"924 300 LINE",
"648 576 LINE",
"542 470 LINE",
"636 375 LINE",
"327 375 LINE",
"422 470 LINE",
"316 576 LINE",
"40 300 LINE",
"316 24 LINE"
);
}
);
width = 964;
},
{
layerId = "9AF1F7D9-E035-453E-B2A8-46DE370997D0";
paths = (
{
closed = 1;
nodes = (
"294 88 LINE",
"97 285 LINE",
"683 285 LINE",
"486 88 LINE",
"507 67 LINE",
"741 300 LINE",
"507 533 LINE",
"486 512 LINE",
"683 315 LINE",
"97 315 LINE",
"294 512 LINE",
"273 533 LINE",
"40 300 LINE",
"273 67 LINE"
);
}
);
width = 781;
}
);
leftKerningGroup = leftRightArrow;
rightKerningGroup = leftRightArrow;
unicode = 2194;
},
{
glyphname = upDownArrow;
lastChange = "2020-01-23 01:24:53 +0000";
layers = (
{
layerId = "10BC12B3-5274-42E3-B5BC-F74F362F0DF4";
paths = (
{
closed = 1;
nodes = (
"582 134 LINE",
"476 240 LINE",
"381 146 LINE",
"381 454 LINE",
"476 360 LINE",
"582 466 LINE",
"306 742 LINE",
"30 466 LINE",
"136 360 LINE",
"231 454 LINE",
"231 146 LINE",
"136 240 LINE",
"30 134 LINE",
"306 -142 LINE"
);
}
);
width = 612;
},
{
layerId = "9AF1F7D9-E035-453E-B2A8-46DE370997D0";
paths = (
{
closed = 1;
nodes = (
"497 183 LINE",
"475 205 LINE",
"278 6 LINE",
"278 594 LINE",
"475 396 LINE",
"497 418 LINE",
"263 651 LINE",
"30 418 LINE",
"51 396 LINE",
"248 594 LINE",
"248 6 LINE",
"51 205 LINE",
"30 183 LINE",
"263 -51 LINE"
);
}
);
width = 527;
}
);
leftKerningGroup = upDownArrow;
rightKerningGroup = upDownArrow;
unicode = 2195;
},
{
glyphname = lozenge;
lastChange = "2020-01-23 01:24:53 +0000";
layers = (
{
layerId = "10BC12B3-5274-42E3-B5BC-F74F362F0DF4";
paths = (
{
closed = 1;
nodes = (
"436 0 LINE",
"570 351 LINE",
"437 700 LINE",
"163 700 LINE",
"30 351 LINE",
"164 0 LINE"
);
},
{
closed = 1;
nodes = (
"188 351 LINE",
"300 635 LINE",
"413 351 LINE",
"300 67 LINE"
);
}
);
width = 600;
},
{
layerId = "9AF1F7D9-E035-453E-B2A8-46DE370997D0";
paths = (
{
closed = 1;
nodes = (
"184 0 LINE",
"318 351 LINE",
"185 700 LINE",
"163 700 LINE",
"30 351 LINE",
"164 0 LINE"
);
},
{
closed = 1;
nodes = (
"62 351 LINE",
"174 635 LINE",
"287 351 LINE",
"174 67 LINE"
);
}
);
width = 348;
}
);
leftKerningGroup = lozenge;
rightKerningGroup = lozenge;
unicode = 25CA;
},
{
glyphname = at;
lastChange = "2020-01-23 09:41:20 +0000";
layers = (
{
layerId = "10BC12B3-5274-42E3-B5BC-F74F362F0DF4";
paths = (
{
closed = 1;
nodes = (
"473 -18 LINE",
"297 -18 OFFCURVE",
"150 91 OFFCURVE",
"150 271 CURVE SMOOTH",
"150 447 OFFCURVE",
"263 573 OFFCURVE",
"443 573 CURVE SMOOTH",
"671 573 OFFCURVE",
"765 467 OFFCURVE",
"765 177 CURVE SMOOTH",
"765 145 OFFCURVE",
"749 119 OFFCURVE",
"717 119 CURVE SMOOTH",
"685 119 OFFCURVE",
"669 145 OFFCURVE",
"669 177 CURVE SMOOTH",
"669 422 LINE",
"566 482 LINE",
"566 455 LINE",
"534 483 OFFCURVE",
"492 500 OFFCURVE",
"441 500 CURVE SMOOTH",
"319 500 OFFCURVE",
"220 402 OFFCURVE",
"220 280 CURVE SMOOTH",
"220 158 OFFCURVE",
"319 59 OFFCURVE",
"441 59 CURVE SMOOTH",
"491 59 OFFCURVE",
"533 76 OFFCURVE",
"564 104 CURVE",
"592 42 OFFCURVE",
"645 -1 OFFCURVE",
"717 -1 CURVE SMOOTH",
"815 -1 OFFCURVE",
"885 79 OFFCURVE",
"885 177 CURVE SMOOTH",
"885 536 OFFCURVE",
"734 693 OFFCURVE",
"443 693 CURVE SMOOTH",
"199 693 OFFCURVE",
"30 516 OFFCURVE",
"30 271 CURVE SMOOTH",
"30 30 OFFCURVE",
"223 -138 OFFCURVE",
"473 -138 CURVE"
);
},
{
closed = 1;
nodes = (
"375 159 OFFCURVE",
"320 214 OFFCURVE",
"320 280 CURVE SMOOTH",
"320 342 OFFCURVE",
"371 400 OFFCURVE",
"441 400 CURVE SMOOTH",
"506 400 OFFCURVE",
"535 347 OFFCURVE",
"535 280 CURVE SMOOTH",
"535 217 OFFCURVE",
"507 159 OFFCURVE",
"441 159 CURVE SMOOTH"
);
}
);
width = 935;
},
{
layerId = "9AF1F7D9-E035-453E-B2A8-46DE370997D0";
paths = (
{
closed = 1;
nodes = (
"410 27 LINE",
"236 13 OFFCURVE",
"93 98 OFFCURVE",
"93 278 CURVE SMOOTH",
"93 407 OFFCURVE",
"177 549 OFFCURVE",
"361 549 CURVE SMOOTH",
"570 549 OFFCURVE",
"656 368 OFFCURVE",
"628 186 CURVE SMOOTH",
"619 129 OFFCURVE",
"612 123 OFFCURVE",
"590 123 CURVE SMOOTH",
"554 123 OFFCURVE",
"530 142 OFFCURVE",
"530 186 CURVE SMOOTH",
"530 424 LINE",
"500 444 LINE",
"500 392 LINE",
"473 441 OFFCURVE",
"426 473 OFFCURVE",
"363 473 CURVE SMOOTH",
"261 473 OFFCURVE",
"179 390 OFFCURVE",
"179 289 CURVE SMOOTH",
"179 187 OFFCURVE",
"261 105 OFFCURVE",
"363 105 CURVE SMOOTH",
"426 105 OFFCURVE",
"473 137 OFFCURVE",
"500 185 CURVE",
"500 129 OFFCURVE",
"534 93 OFFCURVE",
"590 93 CURVE SMOOTH",
"643 93 OFFCURVE",
"649 130 OFFCURVE",
"658 186 CURVE SMOOTH",
"688 382 OFFCURVE",
"592 579 OFFCURVE",
"361 579 CURVE SMOOTH",
"163 579 OFFCURVE",
"63 425 OFFCURVE",
"63 278 CURVE SMOOTH",
"63 81 OFFCURVE",
"212 -21 OFFCURVE",
"410 -3 CURVE"
);
},
{
closed = 1;
nodes = (
"277 135 OFFCURVE",
"209 204 OFFCURVE",
"209 289 CURVE SMOOTH",
"209 374 OFFCURVE",
"278 443 OFFCURVE",
"363 443 CURVE SMOOTH",
"447 443 OFFCURVE",
"495 374 OFFCURVE",
"495 289 CURVE SMOOTH",
"495 206 OFFCURVE",
"448 135 OFFCURVE",
"363 135 CURVE SMOOTH"
);
}
);
width = 805;
}
);
leftKerningGroup = at;
rightKerningGroup = at;
unicode = 0040;
},
